SplineFontDB: 3.0
FontName: ConcertOne-Regular
FullName: Concert One
FamilyName: Concert One
Weight: Book
Copyright: Copyright (c) 2011, 2011 Johan Kallas (johankallas@gmail.com), Copyright (c) 2011, 2011 Mihkel Virkus (mihkelvirkus@gmail.com), with Reserved Font Name Concert.
Version: 1.003
ItalicAngle: 0
UnderlinePosition: -100
UnderlineWidth: 100
Ascent: 1638
Descent: 410
sfntRevision: 0x00010000
LayerCount: 2
Layer: 0 1 "Back"  1
Layer: 1 1 "Fore"  0
XUID: [1021 723 548469661 4914499]
FSType: 0
OS2Version: 3
OS2_WeightWidthSlopeOnly: 0
OS2_UseTypoMetrics: 1
CreationTime: 1329344199
ModificationTime: 1329351567
PfmFamily: 81
TTFWeight: 400
TTFWidth: 5
LineGap: 0
VLineGap: 0
Panose: 0 0 0 0 0 0 0 0 0 0
OS2TypoAscent: 367
OS2TypoAOffset: 1
OS2TypoDescent: 820
OS2TypoDOffset: 1
OS2TypoLinegap: 0
OS2WinAscent: 47
OS2WinAOffset: 1
OS2WinDescent: 10
OS2WinDOffset: 1
HheadAscent: 47
HheadAOffset: 1
HheadDescent: 810
HheadDOffset: 1
OS2SubXSize: 1434
OS2SubYSize: 1331
OS2SubXOff: 0
OS2SubYOff: 287
OS2SupXSize: 1434
OS2SupYSize: 1331
OS2SupXOff: 0
OS2SupYOff: 977
OS2StrikeYSize: 102
OS2StrikeYPos: 512
OS2Vendor: 'pyrs'
OS2CodePages: 20000111.40000000
OS2UnicodeRanges: 80000027.00000043.00000000.00000000
DEI: 91125
TtTable: prep
PUSHB_1
 0
CALL
SVTCA[y-axis]
PUSHB_3
 1
 4
 7
CALL
PUSHB_1
 0
DUP
RCVT
RDTG
ROUND[Black]
RTG
WCVTP
EndTTInstrs
TtTable: fpgm
PUSHB_1
 0
FDEF
MPPEM
PUSHB_1
 9
LT
IF
PUSHB_2
 1
 1
INSTCTRL
EIF
PUSHW_1
 511
SCANCTRL
PUSHB_1
 68
SCVTCI
PUSHB_2
 9
 3
SDS
SDB
ENDF
PUSHB_1
 1
FDEF
DUP
DUP
RCVT
ROUND[Black]
WCVTP
PUSHB_1
 1
ADD
ENDF
PUSHB_1
 2
FDEF
PUSHB_1
 1
LOOPCALL
POP
ENDF
PUSHB_1
 3
FDEF
DUP
GC[cur]
PUSHB_1
 3
CINDEX
GC[cur]
GT
IF
SWAP
EIF
DUP
ROLL
DUP
ROLL
MD[grid]
ABS
ROLL
DUP
GC[cur]
DUP
ROUND[Grey]
SUB
ABS
PUSHB_1
 4
CINDEX
GC[cur]
DUP
ROUND[Grey]
SUB
ABS
GT
IF
SWAP
NEG
ROLL
EIF
MDAP[rnd]
DUP
PUSHB_1
 0
GTEQ
IF
ROUND[Black]
DUP
PUSHB_1
 0
EQ
IF
POP
PUSHB_1
 64
EIF
ELSE
ROUND[Black]
DUP
PUSHB_1
 0
EQ
IF
POP
PUSHB_1
 64
NEG
EIF
EIF
MSIRP[no-rp0]

StartChar: .notdef
Encoding: 65536 -1 0
Width: 1304
Flags: W
LayerCount: 2
Fore
SplineSet
1066 128 m 2,0,1
 1066 84 1066 84 1057 59 c 128,-1,2
 1048 34 1048 34 1027 20.5 c 128,-1,3
 1006 7 1006 7 971 3.5 c 128,-1,4
 936 0 936 0 884 0 c 2,5,-1
 420 0 l 2,6,7
 367 0 367 0 332 3.5 c 128,-1,8
 297 7 297 7 276 20.5 c 128,-1,9
 255 34 255 34 246.5 59 c 128,-1,10
 238 84 238 84 238 128 c 2,11,-1
 238 1272 l 2,12,13
 238 1315 238 1315 246.5 1340.5 c 128,-1,14
 255 1366 255 1366 276 1379.5 c 128,-1,15
 297 1393 297 1393 332 1396.5 c 128,-1,16
 367 1400 367 1400 420 1400 c 2,17,-1
 884 1400 l 2,18,19
 936 1400 936 1400 971 1396.5 c 128,-1,20
 1006 1393 1006 1393 1027 1379.5 c 128,-1,21
 1048 1366 1048 1366 1057 1340.5 c 128,-1,22
 1066 1315 1066 1315 1066 1272 c 2,23,-1
 1066 128 l 2,0,1
488 1186 m 1,24,-1
 488 214 l 1,25,-1
 816 214 l 1,26,-1
 816 1186 l 1,27,-1
 488 1186 l 1,24,-1
EndSplineSet
EndChar

StartChar: exclam
Encoding: 33 33 4
Width: 808
Flags: W
LayerCount: 2
Fore
SplineSet
506 608 m 1,0,1
 506 576 506 576 502.5 546 c 128,-1,2
 499 516 499 516 487 492.5 c 128,-1,3
 475 469 475 469 452.5 454.5 c 128,-1,4
 430 440 430 440 392 440 c 256,5,6
 354 440 354 440 331.5 454.5 c 128,-1,7
 309 469 309 469 297 492.5 c 128,-1,8
 285 516 285 516 281.5 546 c 128,-1,9
 278 576 278 576 278 608 c 1,10,-1
 226 932 l 1,11,-1
 226 1176 l 2,12,13
 226 1218 226 1218 233 1258 c 128,-1,14
 240 1298 240 1298 258 1329 c 128,-1,15
 276 1360 276 1360 308.5 1379 c 128,-1,16
 341 1398 341 1398 392 1398 c 256,17,18
 443 1398 443 1398 475 1378.5 c 128,-1,19
 507 1359 507 1359 525 1327.5 c 128,-1,20
 543 1296 543 1296 549.5 1256 c 128,-1,21
 556 1216 556 1216 556 1174 c 2,22,-1
 556 928 l 1,23,-1
 506 608 l 1,0,1
556 164 m 0,24,25
 556 79 556 79 513 38.5 c 128,-1,26
 470 -2 470 -2 392 -2 c 0,27,28
 312 -2 312 -2 269 38.5 c 128,-1,29
 226 79 226 79 226 164 c 0,30,31
 226 250 226 250 269 289 c 128,-1,32
 312 328 312 328 392 328 c 0,33,34
 475 328 475 328 515.5 289 c 128,-1,35
 556 250 556 250 556 164 c 0,24,25
EndSplineSet
EndChar

StartChar: quotedbl
Encoding: 34 34 5
Width: 898
Flags: W
LayerCount: 2
Fore
SplineSet
354 1048 m 2,0,1
 354 1020 354 1020 350.5 994 c 128,-1,2
 347 968 347 968 334.5 948 c 128,-1,3
 322 928 322 928 298 916 c 128,-1,4
 274 904 274 904 234 904 c 0,5,6
 190 904 190 904 165 916 c 128,-1,7
 140 928 140 928 128 948 c 128,-1,8
 116 968 116 968 113 994 c 128,-1,9
 110 1020 110 1020 110 1048 c 2,10,-1
 110 1260 l 2,11,12
 110 1285 110 1285 113 1311 c 128,-1,13
 116 1337 116 1337 128 1357.5 c 128,-1,14
 140 1378 140 1378 165 1391 c 128,-1,15
 190 1404 190 1404 234 1404 c 0,16,17
 274 1404 274 1404 298 1391 c 128,-1,18
 322 1378 322 1378 334.5 1357.5 c 128,-1,19
 347 1337 347 1337 350.5 1311 c 128,-1,20
 354 1285 354 1285 354 1260 c 2,21,-1
 354 1104 l 1,22,-1
 354 1048 l 2,0,1
766 1052 m 2,23,24
 766 1024 766 1024 762.5 998 c 128,-1,25
 759 972 759 972 746.5 952 c 128,-1,26
 734 932 734 932 710 920 c 128,-1,27
 686 908 686 908 646 908 c 0,28,29
 602 908 602 908 577 920 c 128,-1,30
 552 932 552 932 540 952 c 128,-1,31
 528 972 528 972 525 998 c 128,-1,32
 522 1024 522 1024 522 1052 c 2,33,-1
 522 1256 l 2,34,35
 522 1281 522 1281 525 1307 c 128,-1,36
 528 1333 528 1333 540 1353.5 c 128,-1,37
 552 1374 552 1374 577 1387 c 128,-1,38
 602 1400 602 1400 646 1400 c 0,39,40
 686 1400 686 1400 710 1387 c 128,-1,41
 734 1374 734 1374 746.5 1353.5 c 128,-1,42
 759 1333 759 1333 762.5 1307 c 128,-1,43
 766 1281 766 1281 766 1256 c 2,44,-1
 766 1108 l 1,45,-1
 766 1052 l 2,23,24
EndSplineSet
EndChar

StartChar: numbersign
Encoding: 35 35 6
Width: 1268
Flags: W
LayerCount: 2
Fore
SplineSet
298 812 m 2,0,1
 277 812 277 812 257 815 c 128,-1,2
 237 818 237 818 222 827.5 c 128,-1,3
 207 837 207 837 197.5 855 c 128,-1,4
 188 873 188 873 188 904 c 0,5,6
 188 938 188 938 197.5 957 c 128,-1,7
 207 976 207 976 222 985 c 128,-1,8
 237 994 237 994 257 996 c 128,-1,9
 277 998 277 998 298 998 c 2,10,-1
 428 998 l 1,11,-1
 450 1128 l 2,12,13
 451 1138 451 1138 455.5 1154 c 128,-1,14
 460 1170 460 1170 469.5 1185 c 128,-1,15
 479 1200 479 1200 494.5 1211 c 128,-1,16
 510 1222 510 1222 534 1222 c 0,17,18
 553 1222 553 1222 572 1219 c 128,-1,19
 591 1216 591 1216 605.5 1207 c 128,-1,20
 620 1198 620 1198 629 1181 c 128,-1,21
 638 1164 638 1164 638 1136 c 0,22,23
 638 1133 638 1133 637.5 1128.5 c 128,-1,24
 637 1124 637 1124 635 1110.5 c 128,-1,25
 633 1097 633 1097 628.5 1070.5 c 128,-1,26
 624 1044 624 1044 616 998 c 1,27,-1
 786 998 l 1,28,-1
 808 1128 l 2,29,30
 809 1138 809 1138 813.5 1154 c 128,-1,31
 818 1170 818 1170 827.5 1185 c 128,-1,32
 837 1200 837 1200 852.5 1211 c 128,-1,33
 868 1222 868 1222 892 1222 c 0,34,35
 911 1222 911 1222 930 1219 c 128,-1,36
 949 1216 949 1216 963.5 1207 c 128,-1,37
 978 1198 978 1198 987 1181 c 128,-1,38
 996 1164 996 1164 996 1136 c 0,39,40
 996 1133 996 1133 995.5 1128.5 c 128,-1,41
 995 1124 995 1124 993 1110.5 c 128,-1,42
 991 1097 991 1097 986.5 1070.5 c 128,-1,43
 982 1044 982 1044 974 998 c 1,44,-1
 1060 998 l 2,45,46
 1079 998 1079 998 1099 996 c 128,-1,47
 1119 994 1119 994 1134.5 985 c 128,-1,48
 1150 976 1150 976 1160 957 c 128,-1,49
 1170 938 1170 938 1170 904 c 0,50,51
 1170 873 1170 873 1160 855 c 128,-1,52
 1150 837 1150 837 1134.5 827.5 c 128,-1,53
 1119 818 1119 818 1099 815 c 128,-1,54
 1079 812 1079 812 1060 812 c 2,55,-1
 944 812 l 1,56,-1
 904 588 l 1,57,-1
 988 588 l 2,58,59
 1007 588 1007 588 1027 586 c 128,-1,60
 1047 584 1047 584 1062.5 575 c 128,-1,61
 1078 566 1078 566 1088 547 c 128,-1,62
 1098 528 1098 528 1098 494 c 0,63,64
 1098 462 1098 462 1088 444 c 128,-1,65
 1078 426 1078 426 1062.5 416.5 c 128,-1,66
 1047 407 1047 407 1027 404.5 c 128,-1,67
 1007 402 1007 402 988 402 c 2,68,-1
 872 402 l 1,69,-1
 856 298 l 2,70,71
 851 269 851 269 844.5 244 c 128,-1,72
 838 219 838 219 827.5 200.5 c 128,-1,73
 817 182 817 182 801.5 171 c 128,-1,74
 786 160 786 160 764 160 c 0,75,76
 745 160 745 160 726.5 162 c 128,-1,77
 708 164 708 164 693 172.5 c 128,-1,78
 678 181 678 181 669 197 c 128,-1,79
 660 213 660 213 660 242 c 0,80,81
 660 245 660 245 660.5 250.5 c 128,-1,82
 661 256 661 256 663 272 c 128,-1,83
 665 288 665 288 670 318.5 c 128,-1,84
 675 349 675 349 684 402 c 1,85,-1
 514 402 l 1,86,-1
 498 298 l 2,87,88
 493 269 493 269 486.5 244 c 128,-1,89
 480 219 480 219 469.5 200.5 c 128,-1,90
 459 182 459 182 443.5 171 c 128,-1,91
 428 160 428 160 406 160 c 0,92,93
 387 160 387 160 368.5 162 c 128,-1,94
 350 164 350 164 335 172.5 c 128,-1,95
 320 181 320 181 311 197 c 128,-1,96
 302 213 302 213 302 242 c 0,97,98
 302 245 302 245 302.5 250.5 c 128,-1,99
 303 256 303 256 305 272 c 128,-1,100
 307 288 307 288 312 318.5 c 128,-1,101
 317 349 317 349 326 402 c 1,102,-1
 228 402 l 2,103,104
 207 402 207 402 187 404.5 c 128,-1,105
 167 407 167 407 152 416.5 c 128,-1,106
 137 426 137 426 127.5 444 c 128,-1,107
 118 462 118 462 118 494 c 0,108,109
 118 528 118 528 127.5 547 c 128,-1,110
 137 566 137 566 152 575 c 128,-1,111
 167 584 167 584 187 586 c 128,-1,112
 207 588 207 588 228 588 c 2,113,-1
 356 588 l 1,114,-1
 396 812 l 1,115,-1
 298 812 l 2,0,1
546 588 m 1,116,-1
 714 588 l 1,117,-1
 754 812 l 1,118,-1
 586 812 l 1,119,-1
 546 588 l 1,116,-1
EndSplineSet
EndChar

StartChar: dollar
Encoding: 36 36 7
Width: 1052
Flags: W
LayerCount: 2
Fore
SplineSet
688 748 m 0,0,1
 759 719 759 719 802 691.5 c 128,-1,2
 845 664 845 664 867.5 631.5 c 128,-1,3
 890 599 890 599 897 559.5 c 128,-1,4
 904 520 904 520 904 468 c 0,5,6
 904 404 904 404 884 354 c 128,-1,7
 864 304 864 304 828 267.5 c 128,-1,8
 792 231 792 231 741.5 208.5 c 128,-1,9
 691 186 691 186 630 178 c 1,10,-1
 630 150 l 2,11,12
 630 122 630 122 626.5 96 c 128,-1,13
 623 70 623 70 610.5 50 c 128,-1,14
 598 30 598 30 574 18 c 128,-1,15
 550 6 550 6 510 6 c 0,16,17
 466 6 466 6 441 18 c 128,-1,18
 416 30 416 30 404 50 c 128,-1,19
 392 70 392 70 389 96 c 128,-1,20
 386 122 386 122 386 150 c 2,21,-1
 386 190 l 1,22,23
 305 209 305 209 258.5 242 c 128,-1,24
 212 275 212 275 189 310.5 c 128,-1,25
 166 346 166 346 160 377.5 c 128,-1,26
 154 409 154 409 154 426 c 2,27,-1
 154 442 l 2,28,29
 154 452 154 452 157 472 c 128,-1,30
 160 492 160 492 175 512 c 128,-1,31
 190 532 190 532 221 547 c 128,-1,32
 252 562 252 562 308 562 c 0,33,34
 318 562 318 562 340.5 560 c 128,-1,35
 363 558 363 558 386 547.5 c 128,-1,36
 409 537 409 537 426.5 515.5 c 128,-1,37
 444 494 444 494 444 456 c 0,38,39
 444 420 444 420 472 401 c 128,-1,40
 500 382 500 382 536 382 c 0,41,42
 568 382 568 382 589 395.5 c 128,-1,43
 610 409 610 409 610 448 c 0,44,45
 610 467 610 467 599 481.5 c 128,-1,46
 588 496 588 496 571 507.5 c 128,-1,47
 554 519 554 519 532.5 528.5 c 128,-1,48
 511 538 511 538 490 546 c 1,49,-1
 478 552 l 1,50,51
 398 585 398 585 335.5 618 c 128,-1,52
 273 651 273 651 230 688.5 c 128,-1,53
 187 726 187 726 164.5 770 c 128,-1,54
 142 814 142 814 142 870 c 2,55,-1
 142 928 l 2,56,57
 142 983 142 983 160 1023.5 c 128,-1,58
 178 1064 178 1064 210 1092.5 c 128,-1,59
 242 1121 242 1121 287 1138.5 c 128,-1,60
 332 1156 332 1156 386 1164 c 1,61,-1
 386 1240 l 2,62,63
 386 1265 386 1265 389 1291 c 128,-1,64
 392 1317 392 1317 404 1337.5 c 128,-1,65
 416 1358 416 1358 441 1371 c 128,-1,66
 466 1384 466 1384 510 1384 c 0,67,68
 550 1384 550 1384 574 1371 c 128,-1,69
 598 1358 598 1358 610.5 1337.5 c 128,-1,70
 623 1317 623 1317 626.5 1291 c 128,-1,71
 630 1265 630 1265 630 1240 c 2,72,-1
 630 1164 l 1,73,74
 704 1152 704 1152 753 1125.5 c 128,-1,75
 802 1099 802 1099 830.5 1064.5 c 128,-1,76
 859 1030 859 1030 870.5 991.5 c 128,-1,77
 882 953 882 953 882 918 c 0,78,79
 882 879 882 879 867.5 856.5 c 128,-1,80
 853 834 853 834 830.5 822 c 128,-1,81
 808 810 808 810 779 807 c 128,-1,82
 750 804 750 804 722 804 c 0,83,84
 707 804 707 804 685 807.5 c 128,-1,85
 663 811 663 811 642 820 c 128,-1,86
 621 829 621 829 606.5 846 c 128,-1,87
 592 863 592 863 592 890 c 0,88,89
 592 909 592 909 589 924.5 c 128,-1,90
 586 940 586 940 577 951 c 128,-1,91
 568 962 568 962 551.5 968 c 128,-1,92
 535 974 535 974 508 974 c 0,93,94
 493 974 493 974 479 972.5 c 128,-1,95
 465 971 465 971 454.5 964.5 c 128,-1,96
 444 958 444 958 438 944.5 c 128,-1,97
 432 931 432 931 432 906 c 0,98,99
 432 874 432 874 462.5 849.5 c 128,-1,100
 493 825 493 825 535 806 c 128,-1,101
 577 787 577 787 620 773 c 128,-1,102
 663 759 663 759 688 748 c 0,0,1
EndSplineSet
EndChar

StartChar: percent
Encoding: 37 37 8
Width: 1484
Flags: W
LayerCount: 2
Fore
SplineSet
560 92 m 1,0,1
 551 77 551 77 540 60.5 c 128,-1,2
 529 44 529 44 514.5 30.5 c 128,-1,3
 500 17 500 17 481.5 8.5 c 128,-1,4
 463 0 463 0 438 0 c 0,5,6
 426 0 426 0 412.5 5 c 128,-1,7
 399 10 399 10 384 18 c 0,8,9
 345 39 345 39 328.5 62.5 c 128,-1,10
 312 86 312 86 310 110 c 1,11,12
 312 140 312 140 320 161.5 c 128,-1,13
 328 183 328 183 340 204 c 2,14,-1
 916 1310 l 2,15,16
 924 1326 924 1326 934 1342 c 128,-1,17
 944 1358 944 1358 956 1371 c 128,-1,18
 968 1384 968 1384 983 1392 c 128,-1,19
 998 1400 998 1400 1018 1400 c 0,20,21
 1039 1400 1039 1400 1056.5 1395.5 c 128,-1,22
 1074 1391 1074 1391 1092 1382 c 0,23,24
 1130 1362 1130 1362 1146 1339 c 128,-1,25
 1162 1316 1162 1316 1162 1292 c 0,26,27
 1162 1262 1162 1262 1152.5 1239 c 128,-1,28
 1143 1216 1143 1216 1132 1198 c 1,29,-1
 560 92 l 1,0,1
664 1120 m 256,30,31
 664 974 664 974 591 905 c 128,-1,32
 518 836 518 836 384 836 c 0,33,34
 247 836 247 836 172.5 905 c 128,-1,35
 98 974 98 974 98 1120 c 0,36,37
 98 1265 98 1265 172.5 1332.5 c 128,-1,38
 247 1400 247 1400 384 1400 c 0,39,40
 527 1400 527 1400 595.5 1333 c 128,-1,41
 664 1266 664 1266 664 1120 c 256,30,31
1384 278 m 256,42,43
 1384 132 1384 132 1311 63 c 128,-1,44
 1238 -6 1238 -6 1104 -6 c 0,45,46
 967 -6 967 -6 892.5 63 c 128,-1,47
 818 132 818 132 818 278 c 0,48,49
 818 423 818 423 892.5 490.5 c 128,-1,50
 967 558 967 558 1104 558 c 0,51,52
 1247 558 1247 558 1315.5 491 c 128,-1,53
 1384 424 1384 424 1384 278 c 256,42,43
482 1120 m 256,54,55
 482 1220 482 1220 384 1220 c 0,56,57
 336 1220 336 1220 310 1195.5 c 128,-1,58
 284 1171 284 1171 284 1120 c 0,59,60
 284 1070 284 1070 310 1045 c 128,-1,61
 336 1020 336 1020 384 1020 c 0,62,63
 482 1020 482 1020 482 1120 c 256,54,55
1202 278 m 256,64,65
 1202 378 1202 378 1104 378 c 0,66,67
 1056 378 1056 378 1030 353.5 c 128,-1,68
 1004 329 1004 329 1004 278 c 0,69,70
 1004 228 1004 228 1030 203 c 128,-1,71
 1056 178 1056 178 1104 178 c 0,72,73
 1202 178 1202 178 1202 278 c 256,64,65
EndSplineSet
EndChar

StartChar: ampersand
Encoding: 38 38 9
Width: 1296
Flags: W
LayerCount: 2
Fore
SplineSet
222 1076 m 0,0,1
 222 1149 222 1149 243.5 1210.5 c 128,-1,2
 265 1272 265 1272 308 1315.5 c 128,-1,3
 351 1359 351 1359 416 1383.5 c 128,-1,4
 481 1408 481 1408 568 1408 c 0,5,6
 641 1408 641 1408 706.5 1383.5 c 128,-1,7
 772 1359 772 1359 820.5 1313 c 128,-1,8
 869 1267 869 1267 897.5 1202 c 128,-1,9
 926 1137 926 1137 926 1056 c 0,10,11
 926 969 926 969 876.5 881 c 128,-1,12
 827 793 827 793 712 714 c 1,13,-1
 846 558 l 1,14,-1
 898 620 l 1,15,16
 931 661 931 661 967.5 690.5 c 128,-1,17
 1004 720 1004 720 1046 720 c 0,18,19
 1085 720 1085 720 1128 686 c 1,20,21
 1155 662 1155 662 1166.5 639 c 128,-1,22
 1178 616 1178 616 1178 592 c 0,23,24
 1178 554 1178 554 1156 518 c 128,-1,25
 1134 482 1134 482 1104 446 c 2,26,-1
 1022 346 l 1,27,-1
 1092 264 l 2,28,29
 1122 228 1122 228 1144 191 c 128,-1,30
 1166 154 1166 154 1166 118 c 0,31,32
 1166 97 1166 97 1154 74.5 c 128,-1,33
 1142 52 1142 52 1118 32 c 0,34,35
 1098 15 1098 15 1077 6.5 c 128,-1,36
 1056 -2 1056 -2 1036 -2 c 0,37,38
 997 -2 997 -2 956 34 c 128,-1,39
 915 70 915 70 854 148 c 1,40,41
 832 119 832 119 800.5 92 c 128,-1,42
 769 65 769 65 728 44.5 c 128,-1,43
 687 24 687 24 637.5 12 c 128,-1,44
 588 0 588 0 530 0 c 0,45,46
 429 0 429 0 350 32 c 128,-1,47
 271 64 271 64 216.5 119 c 128,-1,48
 162 174 162 174 133 248 c 128,-1,49
 104 322 104 322 104 406 c 0,50,51
 104 463 104 463 124.5 518 c 128,-1,52
 145 573 145 573 179.5 622 c 128,-1,53
 214 671 214 671 260 711 c 128,-1,54
 306 751 306 751 356 778 c 1,55,56
 332 814 332 814 308 845 c 128,-1,57
 284 876 284 876 265 909.5 c 128,-1,58
 246 943 246 943 234 983 c 128,-1,59
 222 1023 222 1023 222 1076 c 0,0,1
500 596 m 1,60,61
 480 580 480 580 461 559 c 128,-1,62
 442 538 442 538 427 513 c 128,-1,63
 412 488 412 488 403 461 c 128,-1,64
 394 434 394 434 394 406 c 0,65,66
 394 362 394 362 407 334 c 128,-1,67
 420 306 420 306 439.5 289.5 c 128,-1,68
 459 273 459 273 481 266.5 c 128,-1,69
 503 260 503 260 520 260 c 0,70,71
 548 260 548 260 569 266.5 c 128,-1,72
 590 273 590 273 608 286 c 128,-1,73
 626 299 626 299 644 318 c 128,-1,74
 662 337 662 337 684 362 c 1,75,-1
 500 596 l 1,60,61
568 1184 m 0,76,77
 546 1184 546 1184 529.5 1173.5 c 128,-1,78
 513 1163 513 1163 501.5 1146.5 c 128,-1,79
 490 1130 490 1130 484 1109 c 128,-1,80
 478 1088 478 1088 478 1066 c 0,81,82
 478 1060 478 1060 479.5 1047.5 c 128,-1,83
 481 1035 481 1035 490.5 1013 c 128,-1,84
 500 991 500 991 520 959 c 128,-1,85
 540 927 540 927 578 882 c 1,86,87
 605 898 605 898 625.5 919.5 c 128,-1,88
 646 941 646 941 660 965 c 128,-1,89
 674 989 674 989 681 1014.5 c 128,-1,90
 688 1040 688 1040 688 1064 c 0,91,92
 688 1089 688 1089 680.5 1110.5 c 128,-1,93
 673 1132 673 1132 658 1148.5 c 128,-1,94
 643 1165 643 1165 620.5 1174.5 c 128,-1,95
 598 1184 598 1184 568 1184 c 0,76,77
EndSplineSet
EndChar

StartChar: quotesingle
Encoding: 39 39 10
Width: 522
Flags: W
LayerCount: 2
Fore
SplineSet
374 1048 m 2,0,1
 374 1020 374 1020 370.5 994 c 128,-1,2
 367 968 367 968 354.5 948 c 128,-1,3
 342 928 342 928 318 916 c 128,-1,4
 294 904 294 904 254 904 c 0,5,6
 210 904 210 904 185 916 c 128,-1,7
 160 928 160 928 148 948 c 128,-1,8
 136 968 136 968 133 994 c 128,-1,9
 130 1020 130 1020 130 1048 c 2,10,-1
 130 1260 l 2,11,12
 130 1285 130 1285 133 1311 c 128,-1,13
 136 1337 136 1337 148 1357.5 c 128,-1,14
 160 1378 160 1378 185 1391 c 128,-1,15
 210 1404 210 1404 254 1404 c 0,16,17
 294 1404 294 1404 318 1391 c 128,-1,18
 342 1378 342 1378 354.5 1357.5 c 128,-1,19
 367 1337 367 1337 370.5 1311 c 128,-1,20
 374 1285 374 1285 374 1260 c 2,21,-1
 374 1104 l 1,22,-1
 374 1048 l 2,0,1
EndSplineSet
EndChar

StartChar: parenleft
Encoding: 40 40 11
Width: 888
Flags: W
LayerCount: 2
Fore
SplineSet
814 -40 m 256,0,1
 814 -65 814 -65 805.5 -86.5 c 128,-1,2
 797 -108 797 -108 776 -124 c 128,-1,3
 755 -140 755 -140 719.5 -149 c 128,-1,4
 684 -158 684 -158 630 -158 c 1,5,6
 520 -152 520 -152 435 -106 c 0,7,8
 398 -87 398 -87 363 -56.5 c 128,-1,9
 328 -26 328 -26 300.5 17.5 c 128,-1,10
 273 61 273 61 256.5 120.5 c 128,-1,11
 240 180 240 180 240 258 c 2,12,-1
 240 1198 l 2,13,14
 240 1289 240 1289 273.5 1357 c 128,-1,15
 307 1425 307 1425 365.5 1470.5 c 128,-1,16
 424 1516 424 1516 502.5 1539 c 128,-1,17
 581 1562 581 1562 672 1562 c 0,18,19
 710 1562 710 1562 737 1552.5 c 128,-1,20
 764 1543 764 1543 781 1526.5 c 128,-1,21
 798 1510 798 1510 806 1488.5 c 128,-1,22
 814 1467 814 1467 814 1442 c 0,23,24
 814 1392 814 1392 782 1358 c 128,-1,25
 750 1324 750 1324 680 1324 c 1,26,27
 636 1322 636 1322 603 1304 c 0,28,29
 588 1296 588 1296 574.5 1283.5 c 128,-1,30
 561 1271 561 1271 550 1252.5 c 128,-1,31
 539 1234 539 1234 532.5 1208.5 c 128,-1,32
 526 1183 526 1183 526 1150 c 2,33,-1
 526 240 l 2,34,35
 526 210 526 210 532.5 187 c 128,-1,36
 539 164 539 164 550 147.5 c 128,-1,37
 561 131 561 131 574.5 119 c 128,-1,38
 588 107 588 107 603 100 c 1,39,40
 636 82 636 82 680 80 c 1,41,42
 715 80 715 80 740.5 70.5 c 128,-1,43
 766 61 766 61 782.5 44.5 c 128,-1,44
 799 28 799 28 806.5 6.5 c 128,-1,45
 814 -15 814 -15 814 -40 c 256,0,1
EndSplineSet
EndChar

StartChar: parenright
Encoding: 41 41 12
Width: 888
Flags: W
LayerCount: 2
Fore
SplineSet
74 -40 m 256,0,1
 74 -15 74 -15 81.5 6.5 c 128,-1,2
 89 28 89 28 105.5 44.5 c 128,-1,3
 122 61 122 61 147.5 70.5 c 128,-1,4
 173 80 173 80 208 80 c 1,5,6
 251 82 251 82 285 100 c 0,7,8
 299 107 299 107 313 119 c 128,-1,9
 327 131 327 131 338 147.5 c 128,-1,10
 349 164 349 164 355.5 187 c 128,-1,11
 362 210 362 210 362 240 c 2,12,-1
 362 1150 l 2,13,14
 362 1183 362 1183 355.5 1208.5 c 128,-1,15
 349 1234 349 1234 338 1252.5 c 128,-1,16
 327 1271 327 1271 313 1283.5 c 128,-1,17
 299 1296 299 1296 285 1304 c 0,18,19
 251 1322 251 1322 208 1324 c 1,20,21
 173 1324 173 1324 147.5 1333 c 128,-1,22
 122 1342 122 1342 105.5 1358 c 128,-1,23
 89 1374 89 1374 81.5 1395.5 c 128,-1,24
 74 1417 74 1417 74 1442 c 256,25,26
 74 1467 74 1467 82 1488.5 c 128,-1,27
 90 1510 90 1510 107 1526.5 c 128,-1,28
 124 1543 124 1543 151 1552.5 c 128,-1,29
 178 1562 178 1562 216 1562 c 0,30,31
 307 1562 307 1562 385.5 1539 c 128,-1,32
 464 1516 464 1516 522.5 1470.5 c 128,-1,33
 581 1425 581 1425 614.5 1357 c 128,-1,34
 648 1289 648 1289 648 1198 c 2,35,-1
 648 258 l 2,36,37
 648 180 648 180 631 120.5 c 128,-1,38
 614 61 614 61 586.5 17.5 c 128,-1,39
 559 -26 559 -26 524 -56.5 c 128,-1,40
 489 -87 489 -87 453 -106 c 0,41,42
 367 -152 367 -152 258 -158 c 1,43,44
 204 -158 204 -158 168.5 -149 c 128,-1,45
 133 -140 133 -140 112 -124 c 128,-1,46
 91 -108 91 -108 82.5 -86.5 c 128,-1,47
 74 -65 74 -65 74 -40 c 256,0,1
EndSplineSet
EndChar

StartChar: asterisk
Encoding: 42 42 13
Width: 1194
Flags: W
LayerCount: 2
Fore
SplineSet
460 944 m 1,0,-1
 472 952 l 1,1,-1
 472 1116 l 2,2,3
 472 1185 472 1185 499 1222.5 c 128,-1,4
 526 1260 526 1260 598 1260 c 0,5,6
 667 1260 667 1260 693.5 1222.5 c 128,-1,7
 720 1185 720 1185 720 1116 c 2,8,-1
 720 952 l 1,9,-1
 730 944 l 1,10,-1
 878 1044 l 2,11,12
 927 1078 927 1078 970 1078 c 0,13,14
 991 1078 991 1078 1011.5 1065 c 128,-1,15
 1032 1052 1032 1052 1048 1032 c 128,-1,16
 1064 1012 1064 1012 1074 988 c 128,-1,17
 1084 964 1084 964 1084 942 c 0,18,19
 1084 910 1084 910 1064.5 883.5 c 128,-1,20
 1045 857 1045 857 1010 836 c 2,21,-1
 828 726 l 1,22,-1
 828 714 l 1,23,-1
 1006 608 l 2,24,25
 1042 587 1042 587 1063 559.5 c 128,-1,26
 1084 532 1084 532 1084 500 c 0,27,28
 1084 478 1084 478 1073 454 c 128,-1,29
 1062 430 1062 430 1045.5 410 c 128,-1,30
 1029 390 1029 390 1008 377 c 128,-1,31
 987 364 987 364 968 364 c 0,32,33
 926 364 926 364 872 400 c 2,34,-1
 730 496 l 1,35,-1
 720 488 l 1,36,-1
 720 304 l 2,37,38
 720 241 720 241 693.5 202.5 c 128,-1,39
 667 164 667 164 598 164 c 0,40,41
 562 164 562 164 538 174 c 128,-1,42
 514 184 514 184 499 202.5 c 128,-1,43
 484 221 484 221 478 246.5 c 128,-1,44
 472 272 472 272 472 304 c 2,45,-1
 472 488 l 1,46,-1
 462 496 l 1,47,-1
 322 400 l 2,48,49
 268 364 268 364 226 364 c 0,50,51
 206 364 206 364 185.5 377 c 128,-1,52
 165 390 165 390 148.5 410 c 128,-1,53
 132 430 132 430 121 454 c 128,-1,54
 110 478 110 478 110 500 c 0,55,56
 110 532 110 532 131 559.5 c 128,-1,57
 152 587 152 587 188 608 c 2,58,-1
 366 714 l 1,59,-1
 366 726 l 1,60,-1
 184 836 l 2,61,62
 149 857 149 857 129.5 883.5 c 128,-1,63
 110 910 110 910 110 942 c 0,64,65
 110 964 110 964 120 988 c 128,-1,66
 130 1012 130 1012 146 1032 c 128,-1,67
 162 1052 162 1052 182.5 1065 c 128,-1,68
 203 1078 203 1078 224 1078 c 256,69,70
 245 1078 245 1078 269 1069.5 c 128,-1,71
 293 1061 293 1061 316 1044 c 2,72,-1
 460 944 l 1,0,-1
EndSplineSet
EndChar

StartChar: plus
Encoding: 43 43 14
Width: 1102
Flags: W
LayerCount: 2
Fore
SplineSet
336 600 m 2,0,1
 307 600 307 600 281 603.5 c 128,-1,2
 255 607 255 607 234.5 619.5 c 128,-1,3
 214 632 214 632 202 655.5 c 128,-1,4
 190 679 190 679 190 720 c 0,5,6
 190 764 190 764 202 789 c 128,-1,7
 214 814 214 814 234 826 c 128,-1,8
 254 838 254 838 280 841 c 128,-1,9
 306 844 306 844 334 844 c 2,10,-1
 432 844 l 1,11,-1
 432 942 l 2,12,13
 432 967 432 967 435 993 c 128,-1,14
 438 1019 438 1019 450 1039.5 c 128,-1,15
 462 1060 462 1060 487 1073 c 128,-1,16
 512 1086 512 1086 556 1086 c 0,17,18
 596 1086 596 1086 620 1073 c 128,-1,19
 644 1060 644 1060 656.5 1039.5 c 128,-1,20
 669 1019 669 1019 672.5 993 c 128,-1,21
 676 967 676 967 676 942 c 2,22,-1
 676 844 l 1,23,-1
 776 844 l 2,24,25
 801 844 801 844 827 841 c 128,-1,26
 853 838 853 838 873.5 826 c 128,-1,27
 894 814 894 814 907 789 c 128,-1,28
 920 764 920 764 920 720 c 0,29,30
 920 679 920 679 907 655.5 c 128,-1,31
 894 632 894 632 873.5 619.5 c 128,-1,32
 853 607 853 607 827 603.5 c 128,-1,33
 801 600 801 600 776 600 c 2,34,-1
 676 600 l 1,35,-1
 676 500 l 2,36,37
 676 472 676 472 672.5 446 c 128,-1,38
 669 420 669 420 656.5 400 c 128,-1,39
 644 380 644 380 620 368 c 128,-1,40
 596 356 596 356 556 356 c 0,41,42
 512 356 512 356 487 368 c 128,-1,43
 462 380 462 380 450 400 c 128,-1,44
 438 420 438 420 435 446 c 128,-1,45
 432 472 432 472 432 500 c 2,46,-1
 432 600 l 1,47,-1
 356 600 l 1,48,-1
 336 600 l 2,0,1
EndSplineSet
EndChar

StartChar: comma
Encoding: 44 44 15
Width: 598
Flags: W
LayerCount: 2
Fore
SplineSet
464 166 m 0,0,1
 464 117 464 117 453 59.5 c 128,-1,2
 442 2 442 2 419.5 -47.5 c 128,-1,3
 397 -97 397 -97 362.5 -130.5 c 128,-1,4
 328 -164 328 -164 282 -164 c 0,5,6
 265 -164 265 -164 249.5 -152 c 128,-1,7
 234 -140 234 -140 234 -114 c 2,8,-1
 234 -106 l 1,9,10
 235 -96 235 -96 240 -85.5 c 128,-1,11
 245 -75 245 -75 251 -65 c 128,-1,12
 257 -55 257 -55 261.5 -45 c 128,-1,13
 266 -35 266 -35 266 -24 c 256,14,15
 266 -13 266 -13 256 -6 c 128,-1,16
 246 1 246 1 231.5 9 c 128,-1,17
 217 17 217 17 200 27.5 c 128,-1,18
 183 38 183 38 168.5 55.5 c 128,-1,19
 154 73 154 73 144 99.5 c 128,-1,20
 134 126 134 126 134 166 c 0,21,22
 134 252 134 252 177 291 c 128,-1,23
 220 330 220 330 300 330 c 0,24,25
 383 330 383 330 423.5 291 c 128,-1,26
 464 252 464 252 464 166 c 0,0,1
EndSplineSet
EndChar

StartChar: hyphen
Encoding: 45 45 16
Width: 966
Flags: W
LayerCount: 2
Fore
SplineSet
252 480 m 2,0,1
 224 480 224 480 198 483.5 c 128,-1,2
 172 487 172 487 152 499.5 c 128,-1,3
 132 512 132 512 120 535.5 c 128,-1,4
 108 559 108 559 108 600 c 0,5,6
 108 644 108 644 120 669 c 128,-1,7
 132 694 132 694 152 706 c 128,-1,8
 172 718 172 718 198 721 c 128,-1,9
 224 724 224 724 252 724 c 2,10,-1
 694 724 l 2,11,12
 719 724 719 724 745 721 c 128,-1,13
 771 718 771 718 791.5 706 c 128,-1,14
 812 694 812 694 825 669 c 128,-1,15
 838 644 838 644 838 600 c 0,16,17
 838 559 838 559 825 535.5 c 128,-1,18
 812 512 812 512 791.5 499.5 c 128,-1,19
 771 487 771 487 745 483.5 c 128,-1,20
 719 480 719 480 694 480 c 2,21,-1
 308 480 l 1,22,-1
 252 480 l 2,0,1
EndSplineSet
EndChar

StartChar: period
Encoding: 46 46 17
Width: 598
Flags: W
LayerCount: 2
Fore
SplineSet
464 166 m 0,0,1
 464 81 464 81 421 40.5 c 128,-1,2
 378 0 378 0 300 0 c 0,3,4
 220 0 220 0 177 40.5 c 128,-1,5
 134 81 134 81 134 166 c 0,6,7
 134 252 134 252 177 291 c 128,-1,8
 220 330 220 330 300 330 c 0,9,10
 383 330 383 330 423.5 291 c 128,-1,11
 464 252 464 252 464 166 c 0,0,1
EndSplineSet
EndChar

StartChar: slash
Encoding: 47 47 18
Width: 906
Flags: W
LayerCount: 2
Fore
SplineSet
318 74 m 2,0,1
 310 57 310 57 300.5 39.5 c 128,-1,2
 291 22 291 22 277.5 7.5 c 128,-1,3
 264 -7 264 -7 246.5 -16.5 c 128,-1,4
 229 -26 229 -26 206 -26 c 0,5,6
 181 -26 181 -26 150 -12 c 0,7,8
 109 6 109 6 91 28 c 128,-1,9
 73 50 73 50 70 74 c 1,10,11
 70 103 70 103 76.5 124 c 128,-1,12
 83 145 83 145 92 168 c 2,13,-1
 580 1310 l 2,14,15
 587 1326 587 1326 595 1343 c 128,-1,16
 603 1360 603 1360 614 1373.5 c 128,-1,17
 625 1387 625 1387 639.5 1396.5 c 128,-1,18
 654 1406 654 1406 674 1408 c 1,19,20
 695 1408 695 1408 712.5 1405 c 128,-1,21
 730 1402 730 1402 750 1394 c 0,22,23
 789 1377 789 1377 806 1355.5 c 128,-1,24
 823 1334 823 1334 826 1310 c 1,25,26
 826 1280 826 1280 819.5 1257 c 128,-1,27
 813 1234 813 1234 804 1214 c 2,28,-1
 318 74 l 2,0,1
EndSplineSet
EndChar

StartChar: zero
Encoding: 48 48 19
Width: 1118
Flags: W
LayerCount: 2
Fore
SplineSet
102 1000 m 2,0,1
 102 1097 102 1097 129.5 1165.5 c 128,-1,2
 157 1234 157 1234 200 1279 c 128,-1,3
 243 1324 243 1324 295 1350 c 128,-1,4
 347 1376 347 1376 396.5 1389 c 128,-1,5
 446 1402 446 1402 485.5 1405 c 128,-1,6
 525 1408 525 1408 544 1408 c 2,7,-1
 578 1408 l 2,8,9
 597 1408 597 1408 637 1405 c 128,-1,10
 677 1402 677 1402 725.5 1389 c 128,-1,11
 774 1376 774 1376 825.5 1350 c 128,-1,12
 877 1324 877 1324 919.5 1279 c 128,-1,13
 962 1234 962 1234 989 1165.5 c 128,-1,14
 1016 1097 1016 1097 1016 1000 c 2,15,-1
 1016 410 l 2,16,17
 1016 310 1016 310 989 240 c 128,-1,18
 962 170 962 170 919.5 123.5 c 128,-1,19
 877 77 877 77 825.5 51 c 128,-1,20
 774 25 774 25 725.5 11.5 c 128,-1,21
 677 -2 677 -2 637 -5 c 128,-1,22
 597 -8 597 -8 578 -8 c 2,23,-1
 544 -8 l 2,24,25
 525 -8 525 -8 485.5 -5 c 128,-1,26
 446 -2 446 -2 396.5 11.5 c 128,-1,27
 347 25 347 25 295 51 c 128,-1,28
 243 77 243 77 200 123.5 c 128,-1,29
 157 170 157 170 129.5 240 c 128,-1,30
 102 310 102 310 102 410 c 2,31,-1
 102 1000 l 2,0,1
430 358 m 1,32,33
 433 323 433 323 449 296 c 0,34,35
 462 273 462 273 488.5 253.5 c 128,-1,36
 515 234 515 234 562 234 c 0,37,38
 608 234 608 234 634 253.5 c 128,-1,39
 660 273 660 273 673 296 c 0,40,41
 688 323 688 323 692 358 c 1,42,-1
 692 1034 l 1,43,44
 688 1069 688 1069 673 1096 c 0,45,46
 660 1119 660 1119 634 1138.5 c 128,-1,47
 608 1158 608 1158 562 1158 c 0,48,49
 515 1158 515 1158 488.5 1138.5 c 128,-1,50
 462 1119 462 1119 449 1096 c 0,51,52
 433 1069 433 1069 430 1034 c 1,53,-1
 430 358 l 1,32,33
EndSplineSet
EndChar

StartChar: one
Encoding: 49 49 20
Width: 786
Flags: W
LayerCount: 2
Fore
SplineSet
360 962 m 1,0,1
 327 932 327 932 288 915 c 128,-1,2
 249 898 249 898 196 898 c 0,3,4
 166 898 166 898 140.5 909.5 c 128,-1,5
 115 921 115 921 97 940.5 c 128,-1,6
 79 960 79 960 68.5 985 c 128,-1,7
 58 1010 58 1010 58 1038 c 256,8,9
 58 1066 58 1066 67 1086.5 c 128,-1,10
 76 1107 76 1107 92 1122 c 128,-1,11
 108 1137 108 1137 129 1149 c 128,-1,12
 150 1161 150 1161 174 1174 c 1,13,14
 224 1207 224 1207 263.5 1241 c 128,-1,15
 303 1275 303 1275 334 1304.5 c 128,-1,16
 365 1334 365 1334 388 1355 c 128,-1,17
 411 1376 411 1376 428 1384 c 0,18,19
 438 1389 438 1389 446.5 1392.5 c 128,-1,20
 455 1396 455 1396 464 1397.5 c 128,-1,21
 473 1399 473 1399 484 1399.5 c 128,-1,22
 495 1400 495 1400 512 1400 c 0,23,24
 564 1400 564 1400 594.5 1379 c 128,-1,25
 625 1358 625 1358 640.5 1324.5 c 128,-1,26
 656 1291 656 1291 660 1249 c 128,-1,27
 664 1207 664 1207 664 1164 c 2,28,-1
 664 236 l 2,29,30
 664 192 664 192 660 149.5 c 128,-1,31
 656 107 656 107 640.5 74 c 128,-1,32
 625 41 625 41 594.5 20.5 c 128,-1,33
 564 0 564 0 512 0 c 0,34,35
 459 0 459 0 429 20.5 c 128,-1,36
 399 41 399 41 383.5 74 c 128,-1,37
 368 107 368 107 364 149.5 c 128,-1,38
 360 192 360 192 360 236 c 2,39,-1
 360 962 l 1,0,1
EndSplineSet
EndChar

StartChar: two
Encoding: 50 50 21
Width: 1060
Flags: W
LayerCount: 2
Fore
SplineSet
552 1408 m 0,0,1
 665 1408 665 1408 750.5 1377.5 c 128,-1,2
 836 1347 836 1347 893 1292.5 c 128,-1,3
 950 1238 950 1238 979 1162.5 c 128,-1,4
 1008 1087 1008 1087 1008 996 c 0,5,6
 1008 936 1008 936 991.5 885 c 128,-1,7
 975 834 975 834 948.5 792 c 128,-1,8
 922 750 922 750 888 716 c 128,-1,9
 854 682 854 682 819 656 c 0,10,11
 735 594 735 594 630 556 c 1,12,13
 595 542 595 542 560.5 522.5 c 128,-1,14
 526 503 526 503 499 477.5 c 128,-1,15
 472 452 472 452 455 418.5 c 128,-1,16
 438 385 438 385 438 342 c 2,17,-1
 438 280 l 1,18,-1
 786 280 l 2,19,20
 828 280 828 280 870 276 c 128,-1,21
 912 272 912 272 946 258 c 128,-1,22
 980 244 980 244 1001 216.5 c 128,-1,23
 1022 189 1022 189 1022 142 c 0,24,25
 1022 94 1022 94 1001 66 c 128,-1,26
 980 38 980 38 946 23 c 128,-1,27
 912 8 912 8 870 4 c 128,-1,28
 828 0 828 0 786 0 c 2,29,-1
 288 0 l 2,30,31
 238 0 238 0 205.5 16.5 c 128,-1,32
 173 33 173 33 154 58.5 c 128,-1,33
 135 84 135 84 127.5 115.5 c 128,-1,34
 120 147 120 147 120 178 c 2,35,-1
 120 338 l 2,36,37
 120 415 120 415 145.5 482.5 c 128,-1,38
 171 550 171 550 217.5 605.5 c 128,-1,39
 264 661 264 661 328.5 705 c 128,-1,40
 393 749 393 749 472 780 c 256,41,42
 551 811 551 811 598 839.5 c 128,-1,43
 645 868 645 868 670.5 895.5 c 128,-1,44
 696 923 696 923 704 951 c 128,-1,45
 712 979 712 979 712 1008 c 0,46,47
 712 1060 712 1060 694.5 1090 c 128,-1,48
 677 1120 677 1120 651.5 1134.5 c 128,-1,49
 626 1149 626 1149 598.5 1152.5 c 128,-1,50
 571 1156 571 1156 552 1156 c 0,51,52
 502 1156 502 1156 472 1141.5 c 128,-1,53
 442 1127 442 1127 426.5 1105 c 128,-1,54
 411 1083 411 1083 406.5 1056.5 c 128,-1,55
 402 1030 402 1030 402 1006 c 0,56,57
 402 967 402 967 387 939.5 c 128,-1,58
 372 912 372 912 349.5 895 c 128,-1,59
 327 878 327 878 300.5 870 c 128,-1,60
 274 862 274 862 252 862 c 0,61,62
 184 862 184 862 142 899.5 c 128,-1,63
 100 937 100 937 100 996 c 0,64,65
 100 1022 100 1022 106 1063 c 128,-1,66
 112 1104 112 1104 129 1150 c 128,-1,67
 146 1196 146 1196 177 1242 c 128,-1,68
 208 1288 208 1288 258 1325 c 128,-1,69
 308 1362 308 1362 380 1385 c 128,-1,70
 452 1408 452 1408 552 1408 c 0,0,1
EndSplineSet
EndChar

StartChar: three
Encoding: 51 51 22
Width: 1026
Flags: W
LayerCount: 2
Fore
SplineSet
542 1108 m 1,0,-1
 542 1122 l 1,1,-1
 282 1122 l 2,2,3
 248 1122 248 1122 211.5 1126 c 128,-1,4
 175 1130 175 1130 145 1144 c 128,-1,5
 115 1158 115 1158 95.5 1186 c 128,-1,6
 76 1214 76 1214 76 1262 c 0,7,8
 76 1309 76 1309 95.5 1336.5 c 128,-1,9
 115 1364 115 1364 145 1378 c 128,-1,10
 175 1392 175 1392 211.5 1396 c 128,-1,11
 248 1400 248 1400 282 1400 c 2,12,-1
 728 1400 l 2,13,14
 768 1400 768 1400 799.5 1387 c 128,-1,15
 831 1374 831 1374 852.5 1352.5 c 128,-1,16
 874 1331 874 1331 885 1303 c 128,-1,17
 896 1275 896 1275 896 1246 c 0,18,19
 896 1229 896 1229 893.5 1213 c 128,-1,20
 891 1197 891 1197 882 1182 c 2,21,-1
 702 882 l 1,22,23
 748 863 748 863 792 831.5 c 128,-1,24
 836 800 836 800 870.5 752 c 128,-1,25
 905 704 905 704 925.5 638.5 c 128,-1,26
 946 573 946 573 946 488 c 0,27,28
 946 392 946 392 925.5 317.5 c 128,-1,29
 905 243 905 243 870.5 188 c 128,-1,30
 836 133 836 133 789.5 95.5 c 128,-1,31
 743 58 743 58 690.5 35 c 128,-1,32
 638 12 638 12 582 2 c 128,-1,33
 526 -8 526 -8 472 -8 c 0,34,35
 431 -8 431 -8 384 0 c 128,-1,36
 337 8 337 8 290.5 25 c 128,-1,37
 244 42 244 42 201.5 66.5 c 128,-1,38
 159 91 159 91 126 125 c 128,-1,39
 93 159 93 159 73.5 201 c 128,-1,40
 54 243 54 243 54 294 c 0,41,42
 54 319 54 319 61 341.5 c 128,-1,43
 68 364 68 364 82.5 381.5 c 128,-1,44
 97 399 97 399 119 409.5 c 128,-1,45
 141 420 141 420 172 420 c 0,46,47
 213 420 213 420 248.5 397 c 128,-1,48
 284 374 284 374 308 326 c 0,49,50
 314 315 314 315 326.5 301 c 128,-1,51
 339 287 339 287 359.5 275 c 128,-1,52
 380 263 380 263 409 254.5 c 128,-1,53
 438 246 438 246 476 246 c 0,54,55
 534 246 534 246 571.5 264.5 c 128,-1,56
 609 283 609 283 631 313 c 128,-1,57
 653 343 653 343 661.5 381 c 128,-1,58
 670 419 670 419 670 458 c 0,59,60
 670 503 670 503 655 541 c 128,-1,61
 640 579 640 579 614.5 607 c 128,-1,62
 589 635 589 635 556.5 650.5 c 128,-1,63
 524 666 524 666 490 666 c 0,64,65
 442 666 442 666 412 695 c 128,-1,66
 382 724 382 724 382 774 c 0,67,68
 382 795 382 795 390 820.5 c 128,-1,69
 398 846 398 846 416 878 c 2,70,-1
 542 1108 l 1,0,-1
EndSplineSet
EndChar

StartChar: four
Encoding: 52 52 23
Width: 1002
Flags: W
LayerCount: 2
Fore
SplineSet
764 926 m 0,0,1
 813 926 813 926 841 912.5 c 128,-1,2
 869 899 869 899 883.5 876 c 128,-1,3
 898 853 898 853 902 822.5 c 128,-1,4
 906 792 906 792 906 758 c 2,5,-1
 906 166 l 2,6,7
 906 131 906 131 902 101 c 128,-1,8
 898 71 898 71 884 48.5 c 128,-1,9
 870 26 870 26 842 13 c 128,-1,10
 814 0 814 0 766 0 c 0,11,12
 719 0 719 0 691 12.5 c 128,-1,13
 663 25 663 25 648 46 c 128,-1,14
 633 67 633 67 628.5 96 c 128,-1,15
 624 125 624 125 624 158 c 2,16,-1
 624 336 l 1,17,-1
 282 336 l 2,18,19
 220 336 220 336 180 346 c 128,-1,20
 140 356 140 356 116.5 372.5 c 128,-1,21
 93 389 93 389 83.5 411 c 128,-1,22
 74 433 74 433 74 456 c 0,23,24
 74 468 74 468 76.5 480 c 128,-1,25
 79 492 79 492 82 504 c 2,26,-1
 284 1206 l 2,27,28
 294 1243 294 1243 303.5 1278 c 128,-1,29
 313 1313 313 1313 329.5 1340 c 128,-1,30
 346 1367 346 1367 375 1383.5 c 128,-1,31
 404 1400 404 1400 454 1400 c 0,32,33
 490 1400 490 1400 513.5 1390 c 128,-1,34
 537 1380 537 1380 551 1363.5 c 128,-1,35
 565 1347 565 1347 570.5 1325.5 c 128,-1,36
 576 1304 576 1304 576 1280 c 256,37,38
 576 1256 576 1256 572 1231.5 c 128,-1,39
 568 1207 568 1207 562.5 1186 c 128,-1,40
 557 1165 557 1165 551.5 1148.5 c 128,-1,41
 546 1132 546 1132 544 1124 c 2,42,43
 544 1124 544 1124 538 1102.5 c 128,-1,44
 532 1081 532 1081 522 1046.5 c 128,-1,45
 512 1012 512 1012 500 967.5 c 128,-1,46
 488 923 488 923 475 877 c 0,47,48
 444 769 444 769 406 632 c 1,49,-1
 414 624 l 1,50,-1
 624 624 l 1,51,-1
 624 760 l 2,52,53
 624 794 624 794 628 824 c 128,-1,54
 632 854 632 854 646 876.5 c 128,-1,55
 660 899 660 899 688 912.5 c 128,-1,56
 716 926 716 926 764 926 c 0,0,1
EndSplineSet
EndChar

StartChar: five
Encoding: 53 53 24
Width: 1026
Flags: W
LayerCount: 2
Fore
SplineSet
386 888 m 1,0,1
 427 903 427 903 475.5 909.5 c 128,-1,2
 524 916 524 916 562 916 c 0,3,4
 598 916 598 916 642 908 c 128,-1,5
 686 900 686 900 731 880.5 c 128,-1,6
 776 861 776 861 819 829 c 128,-1,7
 862 797 862 797 895 749.5 c 128,-1,8
 928 702 928 702 948 637 c 128,-1,9
 968 572 968 572 968 488 c 0,10,11
 968 392 968 392 947.5 317.5 c 128,-1,12
 927 243 927 243 892.5 188 c 128,-1,13
 858 133 858 133 811.5 95.5 c 128,-1,14
 765 58 765 58 712.5 35 c 128,-1,15
 660 12 660 12 604 2 c 128,-1,16
 548 -8 548 -8 494 -8 c 0,17,18
 435 -8 435 -8 369.5 7.5 c 128,-1,19
 304 23 304 23 245.5 54.5 c 128,-1,20
 187 86 187 86 142.5 133.5 c 128,-1,21
 98 181 98 181 82 246 c 0,22,23
 76 270 76 270 76 294 c 0,24,25
 76 319 76 319 83 341.5 c 128,-1,26
 90 364 90 364 104.5 381.5 c 128,-1,27
 119 399 119 399 141 409.5 c 128,-1,28
 163 420 163 420 194 420 c 0,29,30
 235 420 235 420 270.5 397 c 128,-1,31
 306 374 306 374 330 326 c 0,32,33
 336 315 336 315 348.5 301 c 128,-1,34
 361 287 361 287 381.5 275 c 128,-1,35
 402 263 402 263 431 254.5 c 128,-1,36
 460 246 460 246 498 246 c 0,37,38
 556 246 556 246 593.5 264.5 c 128,-1,39
 631 283 631 283 653 313 c 128,-1,40
 675 343 675 343 683.5 381 c 128,-1,41
 692 419 692 419 692 458 c 0,42,43
 692 507 692 507 675 542.5 c 128,-1,44
 658 578 658 578 629.5 601.5 c 128,-1,45
 601 625 601 625 565 636.5 c 128,-1,46
 529 648 529 648 492 648 c 0,47,48
 460 648 460 648 428.5 639.5 c 128,-1,49
 397 631 397 631 365.5 621 c 128,-1,50
 334 611 334 611 302 602.5 c 128,-1,51
 270 594 270 594 236 594 c 0,52,53
 213 594 213 594 190 599 c 128,-1,54
 167 604 167 604 149 617.5 c 128,-1,55
 131 631 131 631 119.5 653 c 128,-1,56
 108 675 108 675 108 710 c 1,57,-1
 166 1260 l 2,58,59
 168 1282 168 1282 174.5 1306.5 c 128,-1,60
 181 1331 181 1331 194.5 1352 c 128,-1,61
 208 1373 208 1373 230.5 1386.5 c 128,-1,62
 253 1400 253 1400 288 1400 c 2,63,-1
 688 1400 l 2,64,65
 725 1400 725 1400 763.5 1396 c 128,-1,66
 802 1392 802 1392 832.5 1378 c 128,-1,67
 863 1364 863 1364 882.5 1336.5 c 128,-1,68
 902 1309 902 1309 902 1262 c 0,69,70
 902 1214 902 1214 882.5 1186 c 128,-1,71
 863 1158 863 1158 832.5 1144 c 128,-1,72
 802 1130 802 1130 763.5 1126 c 128,-1,73
 725 1122 725 1122 688 1122 c 2,74,-1
 448 1122 l 2,75,76
 440 1122 440 1122 432.5 1121.5 c 128,-1,77
 425 1121 425 1121 419.5 1117 c 128,-1,78
 414 1113 414 1113 410.5 1104.5 c 128,-1,79
 407 1096 407 1096 406 1080 c 2,80,-1
 386 888 l 1,0,1
EndSplineSet
EndChar

StartChar: six
Encoding: 54 54 25
Width: 992
Flags: W
LayerCount: 2
Fore
SplineSet
122 490 m 2,0,1
 122 537 122 537 122.5 598.5 c 128,-1,2
 123 660 123 660 123 720 c 128,-1,3
 123 780 123 780 123.5 830 c 128,-1,4
 124 880 124 880 124 904 c 0,5,6
 124 962 124 962 136 1021.5 c 128,-1,7
 148 1081 148 1081 170.5 1136 c 128,-1,8
 193 1191 193 1191 225 1239 c 128,-1,9
 257 1287 257 1287 296.5 1323 c 128,-1,10
 336 1359 336 1359 381.5 1379.5 c 128,-1,11
 427 1400 427 1400 478 1400 c 1,12,13
 513 1398 513 1398 539.5 1386.5 c 128,-1,14
 566 1375 566 1375 584 1357.5 c 128,-1,15
 602 1340 602 1340 611 1318 c 128,-1,16
 620 1296 620 1296 620 1272 c 0,17,18
 620 1239 620 1239 602 1206 c 128,-1,19
 584 1173 584 1173 546 1144 c 0,20,21
 516 1120 516 1120 494 1101 c 128,-1,22
 472 1082 472 1082 457.5 1063 c 128,-1,23
 443 1044 443 1044 434.5 1022.5 c 128,-1,24
 426 1001 426 1001 421.5 973.5 c 128,-1,25
 417 946 417 946 415.5 909 c 128,-1,26
 414 872 414 872 414 822 c 1,27,28
 424 843 424 843 443 857 c 128,-1,29
 462 871 462 871 484.5 879 c 128,-1,30
 507 887 507 887 532 890.5 c 128,-1,31
 557 894 557 894 580 894 c 0,32,33
 608 894 608 894 646.5 889 c 128,-1,34
 685 884 685 884 726 869.5 c 128,-1,35
 767 855 767 855 807 828 c 128,-1,36
 847 801 847 801 878 757.5 c 128,-1,37
 909 714 909 714 928.5 651 c 128,-1,38
 948 588 948 588 948 502 c 2,39,-1
 948 410 l 2,40,41
 948 310 948 310 923.5 240 c 128,-1,42
 899 170 899 170 861 123.5 c 128,-1,43
 823 77 823 77 776 51 c 128,-1,44
 729 25 729 25 684 11.5 c 128,-1,45
 639 -2 639 -2 600.5 -5 c 128,-1,46
 562 -8 562 -8 542 -8 c 0,47,48
 515 -8 515 -8 473.5 -5 c 128,-1,49
 432 -2 432 -2 385 11.5 c 128,-1,50
 338 25 338 25 291.5 51 c 128,-1,51
 245 77 245 77 207 123.5 c 128,-1,52
 169 170 169 170 145.5 240 c 128,-1,53
 122 310 122 310 122 410 c 2,54,-1
 122 490 l 2,0,1
414 372 m 1,55,56
 416 339 416 339 429 313 c 0,57,58
 440 290 440 290 464 272 c 128,-1,59
 488 254 488 254 532 254 c 256,60,61
 576 254 576 254 599 272 c 128,-1,62
 622 290 622 290 633 313 c 0,63,64
 645 339 645 339 648 372 c 1,65,-1
 648 518 l 1,66,67
 645 551 645 551 633 577 c 0,68,69
 622 599 622 599 598.5 617.5 c 128,-1,70
 575 636 575 636 532 636 c 0,71,72
 488 636 488 636 464 617.5 c 128,-1,73
 440 599 440 599 429 577 c 0,74,75
 416 551 416 551 414 518 c 1,76,-1
 414 372 l 1,55,56
EndSplineSet
EndChar

StartChar: seven
Encoding: 55 55 26
Width: 1012
Flags: W
LayerCount: 2
Fore
SplineSet
576 1110 m 1,0,-1
 576 1122 l 1,1,-1
 262 1122 l 2,2,3
 227 1122 227 1122 189.5 1126 c 128,-1,4
 152 1130 152 1130 120.5 1144 c 128,-1,5
 89 1158 89 1158 68.5 1186 c 128,-1,6
 48 1214 48 1214 48 1262 c 0,7,8
 48 1309 48 1309 68.5 1336.5 c 128,-1,9
 89 1364 89 1364 120.5 1378 c 128,-1,10
 152 1392 152 1392 189.5 1396 c 128,-1,11
 227 1400 227 1400 262 1400 c 2,12,-1
 798 1400 l 2,13,14
 838 1400 838 1400 869.5 1387 c 128,-1,15
 901 1374 901 1374 922.5 1352.5 c 128,-1,16
 944 1331 944 1331 955 1303 c 128,-1,17
 966 1275 966 1275 966 1246 c 0,18,19
 966 1229 966 1229 963 1213 c 128,-1,20
 960 1197 960 1197 952 1182 c 2,21,-1
 664 656 l 2,22,23
 639 611 639 611 624.5 578.5 c 128,-1,24
 610 546 610 546 602.5 517 c 128,-1,25
 595 488 595 488 592.5 457 c 128,-1,26
 590 426 590 426 590 384 c 2,27,-1
 590 234 l 2,28,29
 590 190 590 190 587.5 148 c 128,-1,30
 585 106 585 106 570 73 c 128,-1,31
 555 40 555 40 522.5 20 c 128,-1,32
 490 0 490 0 430 0 c 0,33,34
 371 0 371 0 339.5 20 c 128,-1,35
 308 40 308 40 293.5 73 c 128,-1,36
 279 106 279 106 276.5 148 c 128,-1,37
 274 190 274 190 274 234 c 2,38,-1
 274 384 l 2,39,40
 274 455 274 455 277.5 500 c 128,-1,41
 281 545 281 545 291 579.5 c 128,-1,42
 301 614 301 614 318 647 c 128,-1,43
 335 680 335 680 362 728 c 2,44,-1
 576 1110 l 1,0,-1
EndSplineSet
EndChar

StartChar: eight
Encoding: 56 56 27
Width: 1020
Flags: W
LayerCount: 2
Fore
SplineSet
390 344 m 1,0,1
 392 313 392 313 406 289 c 0,2,3
 418 268 418 268 443 251 c 128,-1,4
 468 234 468 234 516 234 c 0,5,6
 561 234 561 234 585.5 251 c 128,-1,7
 610 268 610 268 621 289 c 0,8,9
 634 313 634 313 636 344 c 1,10,-1
 636 534 l 1,11,12
 634 568 634 568 621 594 c 0,13,14
 610 617 610 617 585.5 635.5 c 128,-1,15
 561 654 561 654 516 654 c 0,16,17
 492 654 492 654 474.5 649 c 128,-1,18
 457 644 457 644 443.5 635.5 c 128,-1,19
 430 627 430 627 421 616 c 128,-1,20
 412 605 412 605 406 594 c 0,21,22
 392 568 392 568 390 534 c 1,23,-1
 390 344 l 1,0,1
516 1408 m 256,24,25
 539 1408 539 1408 577.5 1405.5 c 128,-1,26
 616 1403 616 1403 660 1392 c 128,-1,27
 704 1381 704 1381 748.5 1358 c 128,-1,28
 793 1335 793 1335 829 1293 c 128,-1,29
 865 1251 865 1251 887.5 1187.5 c 128,-1,30
 910 1124 910 1124 910 1032 c 2,31,-1
 910 1006 l 2,32,33
 910 944 910 944 902 900.5 c 128,-1,34
 894 857 894 857 879 827 c 128,-1,35
 864 797 864 797 843 777 c 128,-1,36
 822 757 822 757 796 742 c 1,37,38
 822 727 822 727 846.5 707 c 128,-1,39
 871 687 871 687 889.5 657 c 128,-1,40
 908 627 908 627 919 583.5 c 128,-1,41
 930 540 930 540 930 478 c 2,42,-1
 930 368 l 2,43,44
 930 276 930 276 906 212.5 c 128,-1,45
 882 149 882 149 843.5 107 c 128,-1,46
 805 65 805 65 758 42 c 128,-1,47
 711 19 711 19 665 8 c 128,-1,48
 619 -3 619 -3 579 -5.5 c 128,-1,49
 539 -8 539 -8 516 -8 c 256,50,51
 493 -8 493 -8 452.5 -5.5 c 128,-1,52
 412 -3 412 -3 364.5 8 c 128,-1,53
 317 19 317 19 268.5 42 c 128,-1,54
 220 65 220 65 180 107 c 128,-1,55
 140 149 140 149 115 212.5 c 128,-1,56
 90 276 90 276 90 368 c 2,57,-1
 90 478 l 2,58,59
 90 540 90 540 101 583.5 c 128,-1,60
 112 627 112 627 130.5 657 c 128,-1,61
 149 687 149 687 173.5 707 c 128,-1,62
 198 727 198 727 224 742 c 1,63,64
 198 757 198 757 177 777 c 128,-1,65
 156 797 156 797 141 827 c 128,-1,66
 126 857 126 857 118 900.5 c 128,-1,67
 110 944 110 944 110 1006 c 2,68,-1
 110 1032 l 2,69,70
 110 1124 110 1124 133.5 1187.5 c 128,-1,71
 157 1251 157 1251 194.5 1293 c 128,-1,72
 232 1335 232 1335 278.5 1358 c 128,-1,73
 325 1381 325 1381 370 1392 c 128,-1,74
 415 1403 415 1403 454 1405.5 c 128,-1,75
 493 1408 493 1408 516 1408 c 256,24,25
390 952 m 1,76,77
 392 921 392 921 406 897 c 0,78,79
 418 876 418 876 443 859 c 128,-1,80
 468 842 468 842 516 842 c 0,81,82
 561 842 561 842 585.5 859 c 128,-1,83
 610 876 610 876 621 897 c 0,84,85
 634 921 634 921 636 952 c 1,86,-1
 636 1034 l 1,87,88
 634 1068 634 1068 621 1094 c 0,89,90
 610 1117 610 1117 585.5 1135.5 c 128,-1,91
 561 1154 561 1154 516 1154 c 0,92,93
 492 1154 492 1154 474.5 1149 c 128,-1,94
 457 1144 457 1144 443.5 1135.5 c 128,-1,95
 430 1127 430 1127 421 1116 c 128,-1,96
 412 1105 412 1105 406 1094 c 0,97,98
 392 1068 392 1068 390 1034 c 1,99,-1
 390 952 l 1,76,77
EndSplineSet
EndChar

StartChar: nine
Encoding: 57 57 28
Width: 992
Flags: W
LayerCount: 2
Fore
SplineSet
870 908 m 2,0,1
 870 861 870 861 869.5 800 c 128,-1,2
 869 739 869 739 869 680 c 128,-1,3
 869 621 869 621 868.5 571.5 c 128,-1,4
 868 522 868 522 868 498 c 0,5,6
 868 410 868 410 841.5 321.5 c 128,-1,7
 815 233 815 233 768.5 161.5 c 128,-1,8
 722 90 722 90 658 45 c 128,-1,9
 594 0 594 0 518 0 c 1,10,11
 482 2 482 2 455 13.5 c 128,-1,12
 428 25 428 25 410 42.5 c 128,-1,13
 392 60 392 60 383 82 c 128,-1,14
 374 104 374 104 374 128 c 0,15,16
 374 161 374 161 392 194 c 128,-1,17
 410 227 410 227 448 256 c 0,18,19
 479 279 479 279 501 298.5 c 128,-1,20
 523 318 523 318 538 337 c 128,-1,21
 553 356 553 356 561.5 377.5 c 128,-1,22
 570 399 570 399 574.5 427 c 128,-1,23
 579 455 579 455 580.5 492 c 128,-1,24
 582 529 582 529 582 580 c 1,25,26
 571 559 571 559 552.5 545 c 128,-1,27
 534 531 534 531 511.5 523 c 128,-1,28
 489 515 489 515 463.5 511.5 c 128,-1,29
 438 508 438 508 414 508 c 0,30,31
 386 508 386 508 347.5 513 c 128,-1,32
 309 518 309 518 268 532.5 c 128,-1,33
 227 547 227 547 187 573.5 c 128,-1,34
 147 600 147 600 116 643.5 c 128,-1,35
 85 687 85 687 65.5 748.5 c 128,-1,36
 46 810 46 810 46 896 c 2,37,-1
 46 988 l 2,38,39
 46 1088 46 1088 70.5 1158.5 c 128,-1,40
 95 1229 95 1229 133 1275.5 c 128,-1,41
 171 1322 171 1322 218 1348.5 c 128,-1,42
 265 1375 265 1375 310 1388.5 c 128,-1,43
 355 1402 355 1402 393 1405 c 128,-1,44
 431 1408 431 1408 452 1408 c 0,45,46
 479 1408 479 1408 521 1405 c 128,-1,47
 563 1402 563 1402 609.5 1388.5 c 128,-1,48
 656 1375 656 1375 702.5 1348.5 c 128,-1,49
 749 1322 749 1322 786 1275.5 c 128,-1,50
 823 1229 823 1229 846.5 1158.5 c 128,-1,51
 870 1088 870 1088 870 988 c 2,52,-1
 870 908 l 2,0,1
582 1026 m 1,53,54
 580 1059 580 1059 567 1085 c 0,55,56
 556 1107 556 1107 532 1125.5 c 128,-1,57
 508 1144 508 1144 464 1144 c 256,58,59
 420 1144 420 1144 396 1125.5 c 128,-1,60
 372 1107 372 1107 361 1085 c 0,61,62
 348 1059 348 1059 346 1026 c 1,63,-1
 346 880 l 1,64,65
 348 847 348 847 361 821 c 0,66,67
 372 798 372 798 396 780 c 128,-1,68
 420 762 420 762 464 762 c 256,69,70
 508 762 508 762 532 780 c 128,-1,71
 556 798 556 798 567 821 c 0,72,73
 580 847 580 847 582 880 c 1,74,-1
 582 1026 l 1,53,54
EndSplineSet
EndChar

StartChar: colon
Encoding: 58 58 29
Width: 572
Flags: W
LayerCount: 2
Fore
SplineSet
454 166 m 0,0,1
 454 81 454 81 411 40.5 c 128,-1,2
 368 0 368 0 290 0 c 0,3,4
 210 0 210 0 167 40.5 c 128,-1,5
 124 81 124 81 124 166 c 0,6,7
 124 252 124 252 167 291 c 128,-1,8
 210 330 210 330 290 330 c 0,9,10
 373 330 373 330 413.5 291 c 128,-1,11
 454 252 454 252 454 166 c 0,0,1
452 690 m 0,12,13
 452 605 452 605 409 564.5 c 128,-1,14
 366 524 366 524 288 524 c 0,15,16
 208 524 208 524 165 564.5 c 128,-1,17
 122 605 122 605 122 690 c 0,18,19
 122 776 122 776 165 815 c 128,-1,20
 208 854 208 854 288 854 c 0,21,22
 371 854 371 854 411.5 815 c 128,-1,23
 452 776 452 776 452 690 c 0,12,13
EndSplineSet
EndChar

StartChar: semicolon
Encoding: 59 59 30
Width: 596
Flags: W
LayerCount: 2
Fore
SplineSet
450 688 m 0,0,1
 450 603 450 603 407 562.5 c 128,-1,2
 364 522 364 522 286 522 c 0,3,4
 206 522 206 522 163 562.5 c 128,-1,5
 120 603 120 603 120 688 c 0,6,7
 120 774 120 774 163 813 c 128,-1,8
 206 852 206 852 286 852 c 0,9,10
 369 852 369 852 409.5 813 c 128,-1,11
 450 774 450 774 450 688 c 0,0,1
452 164 m 0,12,13
 452 115 452 115 441 57.5 c 128,-1,14
 430 0 430 0 407.5 -49.5 c 128,-1,15
 385 -99 385 -99 350.5 -132.5 c 128,-1,16
 316 -166 316 -166 270 -166 c 0,17,18
 253 -166 253 -166 237.5 -154 c 128,-1,19
 222 -142 222 -142 222 -116 c 2,20,-1
 222 -108 l 1,21,22
 223 -98 223 -98 228 -87.5 c 128,-1,23
 233 -77 233 -77 239 -67 c 128,-1,24
 245 -57 245 -57 249.5 -47 c 128,-1,25
 254 -37 254 -37 254 -26 c 256,26,27
 254 -15 254 -15 244 -8 c 128,-1,28
 234 -1 234 -1 219.5 7 c 128,-1,29
 205 15 205 15 188 25.5 c 128,-1,30
 171 36 171 36 156.5 53.5 c 128,-1,31
 142 71 142 71 132 97.5 c 128,-1,32
 122 124 122 124 122 164 c 0,33,34
 122 250 122 250 165 289 c 128,-1,35
 208 328 208 328 288 328 c 0,36,37
 371 328 371 328 411.5 289 c 128,-1,38
 452 250 452 250 452 164 c 0,12,13
EndSplineSet
EndChar

StartChar: less
Encoding: 60 60 31
Width: 930
Flags: W
LayerCount: 2
Fore
SplineSet
222 498 m 2,0,1
 212 508 212 508 201.5 519 c 128,-1,2
 191 530 191 530 182 543 c 128,-1,3
 173 556 173 556 167.5 570 c 128,-1,4
 162 584 162 584 162 600 c 0,5,6
 162 629 162 629 180 652.5 c 128,-1,7
 198 676 198 676 224 702 c 2,8,-1
 538 1014 l 2,9,10
 561 1037 561 1037 585.5 1055.5 c 128,-1,11
 610 1074 610 1074 640 1074 c 0,12,13
 660 1074 660 1074 681 1063 c 128,-1,14
 702 1052 702 1052 726 1028 c 0,15,16
 749 1005 749 1005 758.5 985.5 c 128,-1,17
 768 966 768 966 768 946 c 0,18,19
 768 916 768 916 750.5 890.5 c 128,-1,20
 733 865 733 865 710 842 c 2,21,-1
 464 598 l 1,22,-1
 708 358 l 2,23,24
 732 334 732 334 750 309.5 c 128,-1,25
 768 285 768 285 768 256 c 0,26,27
 768 236 768 236 758 215 c 128,-1,28
 748 194 748 194 722 168 c 0,29,30
 699 145 699 145 679.5 135.5 c 128,-1,31
 660 126 660 126 640 126 c 0,32,33
 611 126 611 126 585.5 144 c 128,-1,34
 560 162 560 162 536 186 c 2,35,-1
 222 498 l 2,0,1
EndSplineSet
EndChar

StartChar: equal
Encoding: 61 61 32
Width: 1102
Flags: W
LayerCount: 2
Fore
SplineSet
328 682 m 2,0,1
 300 682 300 682 274 685.5 c 128,-1,2
 248 689 248 689 228 701.5 c 128,-1,3
 208 714 208 714 196 737.5 c 128,-1,4
 184 761 184 761 184 802 c 0,5,6
 184 846 184 846 196 871 c 128,-1,7
 208 896 208 896 228 908 c 128,-1,8
 248 920 248 920 274 923 c 128,-1,9
 300 926 300 926 328 926 c 2,10,-1
 770 926 l 2,11,12
 795 926 795 926 821 923 c 128,-1,13
 847 920 847 920 867.5 908 c 128,-1,14
 888 896 888 896 901 871 c 128,-1,15
 914 846 914 846 914 802 c 0,16,17
 914 761 914 761 901 737.5 c 128,-1,18
 888 714 888 714 867.5 701.5 c 128,-1,19
 847 689 847 689 821 685.5 c 128,-1,20
 795 682 795 682 770 682 c 2,21,-1
 384 682 l 1,22,-1
 328 682 l 2,0,1
324 290 m 2,23,24
 296 290 296 290 270 293.5 c 128,-1,25
 244 297 244 297 224 309.5 c 128,-1,26
 204 322 204 322 192 345.5 c 128,-1,27
 180 369 180 369 180 410 c 0,28,29
 180 454 180 454 192 479 c 128,-1,30
 204 504 204 504 224 516 c 128,-1,31
 244 528 244 528 270 531 c 128,-1,32
 296 534 296 534 324 534 c 2,33,-1
 766 534 l 2,34,35
 791 534 791 534 817 531 c 128,-1,36
 843 528 843 528 863.5 516 c 128,-1,37
 884 504 884 504 897 479 c 128,-1,38
 910 454 910 454 910 410 c 0,39,40
 910 369 910 369 897 345.5 c 128,-1,41
 884 322 884 322 863.5 309.5 c 128,-1,42
 843 297 843 297 817 293.5 c 128,-1,43
 791 290 791 290 766 290 c 2,44,-1
 380 290 l 1,45,-1
 324 290 l 2,23,24
EndSplineSet
EndChar

StartChar: greater
Encoding: 62 62 33
Width: 930
Flags: W
LayerCount: 2
Fore
SplineSet
394 186 m 2,0,1
 370 162 370 162 344.5 144 c 128,-1,2
 319 126 319 126 290 126 c 0,3,4
 270 126 270 126 250.5 135.5 c 128,-1,5
 231 145 231 145 208 168 c 0,6,7
 182 194 182 194 172 215 c 128,-1,8
 162 236 162 236 162 256 c 0,9,10
 162 285 162 285 180 309.5 c 128,-1,11
 198 334 198 334 222 358 c 2,12,-1
 466 598 l 1,13,-1
 220 842 l 2,14,15
 197 865 197 865 179.5 890.5 c 128,-1,16
 162 916 162 916 162 946 c 0,17,18
 162 966 162 966 171.5 985.5 c 128,-1,19
 181 1005 181 1005 204 1028 c 0,20,21
 228 1052 228 1052 249 1063 c 128,-1,22
 270 1074 270 1074 290 1074 c 0,23,24
 320 1074 320 1074 344.5 1055.5 c 128,-1,25
 369 1037 369 1037 392 1014 c 2,26,-1
 706 702 l 2,27,28
 732 676 732 676 750 652.5 c 128,-1,29
 768 629 768 629 768 600 c 0,30,31
 768 584 768 584 762.5 570 c 128,-1,32
 757 556 757 556 748 543 c 128,-1,33
 739 530 739 530 728.5 519 c 128,-1,34
 718 508 718 508 708 498 c 2,35,-1
 394 186 l 2,0,1
EndSplineSet
EndChar

StartChar: question
Encoding: 63 63 34
Width: 1122
Flags: W
LayerCount: 2
Fore
SplineSet
1012 1008 m 0,0,1
 1012 956 1012 956 993.5 913 c 128,-1,2
 975 870 975 870 946 834 c 128,-1,3
 917 798 917 798 881.5 768 c 128,-1,4
 846 738 846 738 812.5 713 c 128,-1,5
 779 688 779 688 750.5 666.5 c 128,-1,6
 722 645 722 645 708 626 c 0,7,8
 702 618 702 618 694 601.5 c 128,-1,9
 686 585 686 585 686 564 c 0,10,11
 686 510 686 510 652.5 475 c 128,-1,12
 619 440 619 440 548 440 c 0,13,14
 505 440 505 440 477.5 453.5 c 128,-1,15
 450 467 450 467 433.5 487 c 128,-1,16
 417 507 417 507 410.5 530 c 128,-1,17
 404 553 404 553 404 572 c 0,18,19
 404 640 404 640 427 686 c 128,-1,20
 450 732 450 732 485 765.5 c 128,-1,21
 520 799 520 799 560 824 c 128,-1,22
 600 849 600 849 635 876 c 128,-1,23
 670 903 670 903 693 936.5 c 128,-1,24
 716 970 716 970 716 1020 c 0,25,26
 716 1072 716 1072 698.5 1102 c 128,-1,27
 681 1132 681 1132 655.5 1146.5 c 128,-1,28
 630 1161 630 1161 602.5 1164.5 c 128,-1,29
 575 1168 575 1168 556 1168 c 0,30,31
 506 1168 506 1168 476 1153.5 c 128,-1,32
 446 1139 446 1139 430.5 1117 c 128,-1,33
 415 1095 415 1095 410.5 1068.5 c 128,-1,34
 406 1042 406 1042 406 1018 c 0,35,36
 406 979 406 979 391 951.5 c 128,-1,37
 376 924 376 924 353.5 907 c 128,-1,38
 331 890 331 890 304.5 882 c 128,-1,39
 278 874 278 874 256 874 c 0,40,41
 188 874 188 874 146 911.5 c 128,-1,42
 104 949 104 949 104 1008 c 0,43,44
 104 1034 104 1034 110 1075 c 128,-1,45
 116 1116 116 1116 133 1162 c 128,-1,46
 150 1208 150 1208 181 1254 c 128,-1,47
 212 1300 212 1300 262 1337 c 128,-1,48
 312 1374 312 1374 384 1397 c 128,-1,49
 456 1420 456 1420 556 1420 c 0,50,51
 669 1420 669 1420 754.5 1389.5 c 128,-1,52
 840 1359 840 1359 897 1304.5 c 128,-1,53
 954 1250 954 1250 983 1174.5 c 128,-1,54
 1012 1099 1012 1099 1012 1008 c 0,0,1
720 166 m 0,55,56
 720 81 720 81 677 40.5 c 128,-1,57
 634 0 634 0 556 0 c 0,58,59
 476 0 476 0 433 40.5 c 128,-1,60
 390 81 390 81 390 166 c 0,61,62
 390 252 390 252 433 291 c 128,-1,63
 476 330 476 330 556 330 c 0,64,65
 639 330 639 330 679.5 291 c 128,-1,66
 720 252 720 252 720 166 c 0,55,56
EndSplineSet
EndChar

StartChar: at
Encoding: 64 64 35
Width: 1494
Flags: W
LayerCount: 2
Fore
SplineSet
1050 256 m 2,0,1
 1050 245 1050 245 1051 233 c 128,-1,2
 1052 221 1052 221 1056 211.5 c 128,-1,3
 1060 202 1060 202 1068.5 196 c 128,-1,4
 1077 190 1077 190 1092 190 c 0,5,6
 1120 190 1120 190 1143.5 212 c 128,-1,7
 1167 234 1167 234 1184.5 274.5 c 128,-1,8
 1202 315 1202 315 1212 370.5 c 128,-1,9
 1222 426 1222 426 1222 494 c 0,10,11
 1222 614 1222 614 1194.5 706.5 c 128,-1,12
 1167 799 1167 799 1107 862 c 128,-1,13
 1047 925 1047 925 952 957.5 c 128,-1,14
 857 990 857 990 722 990 c 0,15,16
 614 990 614 990 522.5 964 c 128,-1,17
 431 938 431 938 364 879.5 c 128,-1,18
 297 821 297 821 259.5 726 c 128,-1,19
 222 631 222 631 222 494 c 0,20,21
 222 369 222 369 251.5 283 c 128,-1,22
 281 197 281 197 328 141 c 128,-1,23
 375 85 375 85 432.5 54.5 c 128,-1,24
 490 24 490 24 545.5 9.5 c 128,-1,25
 601 -5 601 -5 648 -7.5 c 128,-1,26
 695 -10 695 -10 722 -10 c 0,27,28
 735 -10 735 -10 760.5 -10 c 128,-1,29
 786 -10 786 -10 818.5 -10 c 128,-1,30
 851 -10 851 -10 887 -9.5 c 128,-1,31
 923 -9 923 -9 954.5 -8.5 c 128,-1,32
 986 -8 986 -8 1010.5 -7 c 128,-1,33
 1035 -6 1035 -6 1046 -4 c 0,34,35
 1069 -1 1069 -1 1088.5 6.5 c 128,-1,36
 1108 14 1108 14 1125.5 23 c 128,-1,37
 1143 32 1143 32 1159 41 c 128,-1,38
 1175 50 1175 50 1192 56 c 0,39,40
 1197 58 1197 58 1201 59 c 128,-1,41
 1205 60 1205 60 1210 60 c 0,42,43
 1227 60 1227 60 1236.5 50.5 c 128,-1,44
 1246 41 1246 41 1246 26 c 0,45,46
 1246 3 1246 3 1230.5 -14.5 c 128,-1,47
 1215 -32 1215 -32 1192.5 -44.5 c 128,-1,48
 1170 -57 1170 -57 1143 -66 c 128,-1,49
 1116 -75 1116 -75 1094 -82 c 0,50,51
 1082 -86 1082 -86 1052 -88 c 128,-1,52
 1022 -90 1022 -90 983.5 -91.5 c 128,-1,53
 945 -93 945 -93 902.5 -94 c 128,-1,54
 860 -95 860 -95 823 -95.5 c 128,-1,55
 786 -96 786 -96 758 -96 c 128,-1,56
 730 -96 730 -96 722 -96 c 0,57,58
 652 -96 652 -96 580.5 -86.5 c 128,-1,59
 509 -77 509 -77 443.5 -52 c 128,-1,60
 378 -27 378 -27 321 15.5 c 128,-1,61
 264 58 264 58 222 123.5 c 128,-1,62
 180 189 180 189 156 280 c 128,-1,63
 132 371 132 371 132 494 c 0,64,65
 132 566 132 566 142.5 637.5 c 128,-1,66
 153 709 153 709 178.5 774 c 128,-1,67
 204 839 204 839 247 894.5 c 128,-1,68
 290 950 290 950 355.5 991 c 128,-1,69
 421 1032 421 1032 511.5 1055 c 128,-1,70
 602 1078 602 1078 722 1078 c 0,71,72
 891 1078 891 1078 1003 1035.5 c 128,-1,73
 1115 993 1115 993 1182.5 916 c 128,-1,74
 1250 839 1250 839 1278 731.5 c 128,-1,75
 1306 624 1306 624 1306 494 c 0,76,77
 1306 406 1306 406 1289.5 329.5 c 128,-1,78
 1273 253 1273 253 1232.5 196 c 128,-1,79
 1192 139 1192 139 1125 106.5 c 128,-1,80
 1058 74 1058 74 958 74 c 0,81,82
 904 74 904 74 864.5 98.5 c 128,-1,83
 825 123 825 123 816 176 c 0,84,85
 814 188 814 188 813 198.5 c 128,-1,86
 812 209 812 209 812 218 c 1,87,88
 804 195 804 195 791 171.5 c 128,-1,89
 778 148 778 148 757.5 129 c 128,-1,90
 737 110 737 110 708.5 98 c 128,-1,91
 680 86 680 86 642 86 c 0,92,93
 599 86 599 86 556 100 c 128,-1,94
 513 114 513 114 478.5 147 c 128,-1,95
 444 180 444 180 422 233 c 128,-1,96
 400 286 400 286 400 364 c 2,97,-1
 400 592 l 2,98,99
 400 670 400 670 422 723 c 128,-1,100
 444 776 444 776 478.5 809 c 128,-1,101
 513 842 513 842 556 856 c 128,-1,102
 599 870 599 870 642 870 c 0,103,104
 680 870 680 870 708.5 858 c 128,-1,105
 737 846 737 846 757.5 827 c 128,-1,106
 778 808 778 808 791 784.5 c 128,-1,107
 804 761 804 761 812 738 c 1,108,109
 812 777 812 777 823 803 c 128,-1,110
 834 829 834 829 851 844 c 128,-1,111
 868 859 868 859 889.5 865.5 c 128,-1,112
 911 872 911 872 932 872 c 0,113,114
 972 872 972 872 995.5 857 c 128,-1,115
 1019 842 1019 842 1031 816.5 c 128,-1,116
 1043 791 1043 791 1046.5 758.5 c 128,-1,117
 1050 726 1050 726 1050 692 c 2,118,-1
 1050 256 l 2,0,1
642 384 m 2,119,120
 642 363 642 363 643.5 342.5 c 128,-1,121
 645 322 645 322 652 306 c 128,-1,122
 659 290 659 290 672.5 280 c 128,-1,123
 686 270 686 270 710 270 c 0,124,125
 741 270 741 270 760.5 283.5 c 128,-1,126
 780 297 780 297 791 325.5 c 128,-1,127
 802 354 802 354 806.5 398 c 128,-1,128
 811 442 811 442 812 502 c 0,129,130
 812 527 812 527 807.5 558.5 c 128,-1,131
 803 590 803 590 791.5 618.5 c 128,-1,132
 780 647 780 647 760.5 666.5 c 128,-1,133
 741 686 741 686 710 686 c 0,134,135
 686 686 686 686 672.5 676.5 c 128,-1,136
 659 667 659 667 652 651 c 128,-1,137
 645 635 645 635 643.5 615 c 128,-1,138
 642 595 642 595 642 574 c 2,139,-1
 642 384 l 2,119,120
EndSplineSet
EndChar

StartChar: A
Encoding: 65 65 36
Width: 1104
Flags: W
LayerCount: 2
Fore
SplineSet
394 604 m 1,0,-1
 712 604 l 1,1,-1
 564 1140 l 1,2,-1
 542 1140 l 1,3,-1
 394 604 l 1,0,-1
1022 506 m 1,4,5
 1024 438 1024 438 1027 367 c 128,-1,6
 1030 296 1030 296 1030 230 c 2,7,-1
 1030 200 l 2,8,9
 1030 162 1030 162 1027.5 126.5 c 128,-1,10
 1025 91 1025 91 1012 62.5 c 128,-1,11
 999 34 999 34 971 17 c 128,-1,12
 943 0 943 0 892 0 c 0,13,14
 840 0 840 0 812 17 c 128,-1,15
 784 34 784 34 770.5 62 c 128,-1,16
 757 90 757 90 754.5 126 c 128,-1,17
 752 162 752 162 752 200 c 2,18,-1
 752 340 l 1,19,-1
 352 340 l 1,20,-1
 352 200 l 2,21,22
 352 162 352 162 349.5 126 c 128,-1,23
 347 90 347 90 333.5 62 c 128,-1,24
 320 34 320 34 292 17 c 128,-1,25
 264 0 264 0 212 0 c 256,26,27
 160 0 160 0 132 17 c 128,-1,28
 104 34 104 34 91 62.5 c 128,-1,29
 78 91 78 91 76 126.5 c 128,-1,30
 74 162 74 162 74 200 c 2,31,-1
 74 230 l 2,32,33
 74 261 74 261 74.5 296 c 128,-1,34
 75 331 75 331 76 367 c 128,-1,35
 77 403 77 403 78 438.5 c 128,-1,36
 79 474 79 474 80 506 c 1,37,38
 130 680 130 680 185 858.5 c 128,-1,39
 240 1037 240 1037 290 1212 c 0,40,41
 300 1249 300 1249 314 1283.5 c 128,-1,42
 328 1318 328 1318 351 1343.5 c 128,-1,43
 374 1369 374 1369 410 1384.5 c 128,-1,44
 446 1400 446 1400 502 1400 c 2,45,-1
 602 1400 l 2,46,47
 657 1400 657 1400 693.5 1384.5 c 128,-1,48
 730 1369 730 1369 753 1343.5 c 128,-1,49
 776 1318 776 1318 789.5 1283.5 c 128,-1,50
 803 1249 803 1249 814 1212 c 2,51,-1
 1022 506 l 1,4,5
EndSplineSet
EndChar

StartChar: B
Encoding: 66 66 37
Width: 1104
Flags: W
LayerCount: 2
Fore
SplineSet
562 1400 m 2,0,1
 651 1400 651 1400 729.5 1377 c 128,-1,2
 808 1354 808 1354 866.5 1308 c 128,-1,3
 925 1262 925 1262 958.5 1193.5 c 128,-1,4
 992 1125 992 1125 992 1034 c 0,5,6
 992 987 992 987 979.5 948.5 c 128,-1,7
 967 910 967 910 947.5 879 c 128,-1,8
 928 848 928 848 904.5 825 c 128,-1,9
 881 802 881 802 859 785.5 c 128,-1,10
 837 769 837 769 820 759.5 c 128,-1,11
 803 750 803 750 796 748 c 1,12,13
 856 731 856 731 897 704.5 c 128,-1,14
 938 678 938 678 965.5 646.5 c 128,-1,15
 993 615 993 615 1008.5 581.5 c 128,-1,16
 1024 548 1024 548 1031.5 516.5 c 128,-1,17
 1039 485 1039 485 1040.5 458.5 c 128,-1,18
 1042 432 1042 432 1042 416 c 0,19,20
 1042 338 1042 338 1023 278.5 c 128,-1,21
 1004 219 1004 219 973 175.5 c 128,-1,22
 942 132 942 132 902 101.5 c 128,-1,23
 862 71 862 71 821 52 c 0,24,25
 723 6 723 6 600 0 c 1,26,-1
 272 0 l 2,27,28
 215 0 215 0 184 19.5 c 128,-1,29
 153 39 153 39 139 71.5 c 128,-1,30
 125 104 125 104 122.5 145 c 128,-1,31
 120 186 120 186 120 230 c 2,32,-1
 120 1172 l 2,33,34
 120 1215 120 1215 122.5 1256 c 128,-1,35
 125 1297 125 1297 139 1329 c 128,-1,36
 153 1361 153 1361 184 1380.5 c 128,-1,37
 215 1400 215 1400 272 1400 c 2,38,-1
 562 1400 l 2,0,1
424 612 m 1,39,-1
 424 236 l 1,40,-1
 570 236 l 1,41,42
 617 238 617 238 654 258 c 0,43,44
 670 266 670 266 685 279 c 128,-1,45
 700 292 700 292 712 311.5 c 128,-1,46
 724 331 724 331 731 356.5 c 128,-1,47
 738 382 738 382 738 416 c 0,48,49
 738 453 738 453 730.5 480.5 c 128,-1,50
 723 508 723 508 710.5 528.5 c 128,-1,51
 698 549 698 549 682 563.5 c 128,-1,52
 666 578 666 578 650 587 c 0,53,54
 611 608 611 608 562 612 c 1,55,-1
 424 612 l 1,39,-1
424 1164 m 1,56,-1
 424 824 l 1,57,-1
 552 824 l 1,58,59
 595 826 595 826 629 844 c 0,60,61
 643 851 643 851 657 863 c 128,-1,62
 671 875 671 875 682 891.5 c 128,-1,63
 693 908 693 908 699.5 931 c 128,-1,64
 706 954 706 954 706 984 c 0,65,66
 706 1018 706 1018 699 1043.5 c 128,-1,67
 692 1069 692 1069 680.5 1087.5 c 128,-1,68
 669 1106 669 1106 654.5 1119 c 128,-1,69
 640 1132 640 1132 625 1141 c 0,70,71
 589 1160 589 1160 544 1164 c 1,72,-1
 424 1164 l 1,56,-1
EndSplineSet
EndChar

StartChar: C
Encoding: 67 67 38
Width: 1110
Flags: W
LayerCount: 2
Fore
SplineSet
556 1408 m 1,0,1
 666 1408 666 1408 745.5 1383 c 128,-1,2
 825 1358 825 1358 879.5 1318 c 128,-1,3
 934 1278 934 1278 967 1227.5 c 128,-1,4
 1000 1177 1000 1177 1017.5 1125 c 128,-1,5
 1035 1073 1035 1073 1040.5 1025 c 128,-1,6
 1046 977 1046 977 1046 942 c 0,7,8
 1046 927 1046 927 1043.5 905.5 c 128,-1,9
 1041 884 1041 884 1026 864 c 128,-1,10
 1011 844 1011 844 978.5 830 c 128,-1,11
 946 816 946 816 886 816 c 0,12,13
 866 816 866 816 836 818.5 c 128,-1,14
 806 821 806 821 778 831.5 c 128,-1,15
 750 842 750 842 730 861.5 c 128,-1,16
 710 881 710 881 710 916 c 0,17,18
 710 970 710 970 703.5 1013 c 128,-1,19
 697 1056 697 1056 680 1086 c 128,-1,20
 663 1116 663 1116 633 1132 c 128,-1,21
 603 1148 603 1148 556 1148 c 0,22,23
 507 1148 507 1148 480.5 1127.5 c 128,-1,24
 454 1107 454 1107 442 1083 c 0,25,26
 428 1054 428 1054 426 1018 c 1,27,-1
 426 384 l 1,28,29
 428 340 428 340 442 307 c 0,30,31
 454 278 454 278 480.5 254 c 128,-1,32
 507 230 507 230 556 230 c 0,33,34
 603 230 603 230 633 249.5 c 128,-1,35
 663 269 663 269 680 302 c 128,-1,36
 697 335 697 335 703.5 378 c 128,-1,37
 710 421 710 421 710 468 c 0,38,39
 710 483 710 483 715 499 c 128,-1,40
 720 515 720 515 738 528.5 c 128,-1,41
 756 542 756 542 791 551 c 128,-1,42
 826 560 826 560 886 560 c 256,43,44
 946 560 946 560 978.5 546.5 c 128,-1,45
 1011 533 1011 533 1026 515.5 c 128,-1,46
 1041 498 1041 498 1043.5 481.5 c 128,-1,47
 1046 465 1046 465 1046 460 c 0,48,49
 1046 350 1046 350 1009 263.5 c 128,-1,50
 972 177 972 177 904.5 117 c 128,-1,51
 837 57 837 57 743.5 25.5 c 128,-1,52
 650 -6 650 -6 538 -6 c 0,53,54
 520 -6 520 -6 479.5 -3 c 128,-1,55
 439 0 439 0 389 13 c 128,-1,56
 339 26 339 26 286 52 c 128,-1,57
 233 78 233 78 189.5 124.5 c 128,-1,58
 146 171 146 171 118 240.5 c 128,-1,59
 90 310 90 310 90 410 c 2,60,-1
 90 968 l 2,61,62
 90 1050 90 1050 110 1113 c 128,-1,63
 130 1176 130 1176 162.5 1222.5 c 128,-1,64
 195 1269 195 1269 237 1300.5 c 128,-1,65
 279 1332 279 1332 323 1353 c 0,66,67
 425 1401 425 1401 556 1408 c 1,0,1
EndSplineSet
EndChar

StartChar: D
Encoding: 68 68 39
Width: 1094
Flags: W
LayerCount: 2
Fore
SplineSet
576 1400 m 2,0,1
 667 1400 667 1400 745.5 1377 c 128,-1,2
 824 1354 824 1354 882.5 1308.5 c 128,-1,3
 941 1263 941 1263 974.5 1195 c 128,-1,4
 1008 1127 1008 1127 1008 1036 c 2,5,-1
 1008 416 l 2,6,7
 1008 338 1008 338 991 278.5 c 128,-1,8
 974 219 974 219 946.5 175.5 c 128,-1,9
 919 132 919 132 884 101.5 c 128,-1,10
 849 71 849 71 813 52 c 0,11,12
 727 6 727 6 618 0 c 1,13,-1
 286 0 l 2,14,15
 229 0 229 0 198 19.5 c 128,-1,16
 167 39 167 39 153 71.5 c 128,-1,17
 139 104 139 104 136.5 145 c 128,-1,18
 134 186 134 186 134 230 c 2,19,-1
 134 1172 l 2,20,21
 134 1215 134 1215 136.5 1256 c 128,-1,22
 139 1297 139 1297 153 1329 c 128,-1,23
 167 1361 167 1361 198 1380.5 c 128,-1,24
 229 1400 229 1400 286 1400 c 2,25,-1
 576 1400 l 2,0,1
438 1166 m 1,26,-1
 438 238 l 1,27,-1
 568 238 l 1,28,29
 611 240 611 240 645 258 c 0,30,31
 659 265 659 265 673 277 c 128,-1,32
 687 289 687 289 698 305.5 c 128,-1,33
 709 322 709 322 715.5 345 c 128,-1,34
 722 368 722 368 722 398 c 2,35,-1
 722 988 l 2,36,37
 722 1021 722 1021 715.5 1046.5 c 128,-1,38
 709 1072 709 1072 698 1091 c 128,-1,39
 687 1110 687 1110 673 1123 c 128,-1,40
 659 1136 659 1136 645 1144 c 0,41,42
 611 1163 611 1163 568 1166 c 1,43,-1
 438 1166 l 1,26,-1
EndSplineSet
EndChar

StartChar: E
Encoding: 69 69 40
Width: 986
Flags: W
LayerCount: 2
Fore
SplineSet
682 1400 m 2,0,1
 722 1400 722 1400 763 1397 c 128,-1,2
 804 1394 804 1394 837 1380 c 128,-1,3
 870 1366 870 1366 891 1337.5 c 128,-1,4
 912 1309 912 1309 912 1258 c 256,5,6
 912 1207 912 1207 891 1178.5 c 128,-1,7
 870 1150 870 1150 837 1136 c 128,-1,8
 804 1122 804 1122 763 1119 c 128,-1,9
 722 1116 722 1116 682 1116 c 2,10,-1
 444 1116 l 1,11,-1
 444 844 l 1,12,-1
 570 844 l 2,13,14
 610 844 610 844 650.5 841.5 c 128,-1,15
 691 839 691 839 722.5 825.5 c 128,-1,16
 754 812 754 812 774 784.5 c 128,-1,17
 794 757 794 757 794 708 c 0,18,19
 794 658 794 658 774 631 c 128,-1,20
 754 604 754 604 722.5 590.5 c 128,-1,21
 691 577 691 577 650.5 574.5 c 128,-1,22
 610 572 610 572 570 572 c 2,23,-1
 444 572 l 1,24,-1
 444 284 l 1,25,-1
 682 284 l 2,26,27
 722 284 722 284 763 281 c 128,-1,28
 804 278 804 278 837 264.5 c 128,-1,29
 870 251 870 251 891 222.5 c 128,-1,30
 912 194 912 194 912 144 c 0,31,32
 912 92 912 92 890.5 63 c 128,-1,33
 869 34 869 34 836 20 c 128,-1,34
 803 6 803 6 762 3 c 128,-1,35
 721 0 721 0 682 0 c 2,36,-1
 290 0 l 2,37,38
 234 0 234 0 203.5 20 c 128,-1,39
 173 40 173 40 159 72.5 c 128,-1,40
 145 105 145 105 142.5 146 c 128,-1,41
 140 187 140 187 140 230 c 2,42,-1
 140 1170 l 2,43,44
 140 1213 140 1213 142.5 1254 c 128,-1,45
 145 1295 145 1295 159 1327.5 c 128,-1,46
 173 1360 173 1360 203.5 1380 c 128,-1,47
 234 1400 234 1400 290 1400 c 2,48,-1
 682 1400 l 2,0,1
EndSplineSet
EndChar

StartChar: F
Encoding: 70 70 41
Width: 938
Flags: W
LayerCount: 2
Fore
SplineSet
682 1400 m 2,0,1
 722 1400 722 1400 763 1396 c 128,-1,2
 804 1392 804 1392 837 1377 c 128,-1,3
 870 1362 870 1362 891 1332.5 c 128,-1,4
 912 1303 912 1303 912 1252 c 256,5,6
 912 1201 912 1201 891 1171.5 c 128,-1,7
 870 1142 870 1142 837 1127 c 128,-1,8
 804 1112 804 1112 763 1108 c 128,-1,9
 722 1104 722 1104 682 1104 c 2,10,-1
 444 1104 l 1,11,-1
 444 844 l 1,12,-1
 570 844 l 2,13,14
 609 844 609 844 650 841 c 128,-1,15
 691 838 691 838 724 824 c 128,-1,16
 757 810 757 810 778.5 780 c 128,-1,17
 800 750 800 750 800 696 c 256,18,19
 800 642 800 642 779 612 c 128,-1,20
 758 582 758 582 725 568 c 128,-1,21
 692 554 692 554 651 551 c 128,-1,22
 610 548 610 548 570 548 c 2,23,-1
 444 548 l 1,24,-1
 444 230 l 2,25,26
 444 186 444 186 441.5 145 c 128,-1,27
 439 104 439 104 424.5 71.5 c 128,-1,28
 410 39 410 39 379 19.5 c 128,-1,29
 348 0 348 0 292 0 c 0,30,31
 235 0 235 0 204 19.5 c 128,-1,32
 173 39 173 39 159 71.5 c 128,-1,33
 145 104 145 104 142.5 145 c 128,-1,34
 140 186 140 186 140 230 c 2,35,-1
 140 1170 l 2,36,37
 140 1213 140 1213 142.5 1254 c 128,-1,38
 145 1295 145 1295 159 1327.5 c 128,-1,39
 173 1360 173 1360 204 1380 c 128,-1,40
 235 1400 235 1400 292 1400 c 2,41,-1
 682 1400 l 2,0,1
EndSplineSet
EndChar

StartChar: G
Encoding: 71 71 42
Width: 1156
Flags: W
LayerCount: 2
Fore
SplineSet
1072 92 m 2,0,1
 1072 79 1072 79 1069.5 62 c 128,-1,2
 1067 45 1067 45 1056.5 29.5 c 128,-1,3
 1046 14 1046 14 1026 3 c 128,-1,4
 1006 -8 1006 -8 972 -8 c 0,5,6
 934 -8 934 -8 912 2.5 c 128,-1,7
 890 13 890 13 878.5 28.5 c 128,-1,8
 867 44 867 44 863.5 61 c 128,-1,9
 860 78 860 78 860 92 c 2,10,-1
 860 152 l 1,11,12
 812 81 812 81 737.5 36.5 c 128,-1,13
 663 -8 663 -8 554 -8 c 0,14,15
 535 -8 535 -8 495 -5 c 128,-1,16
 455 -2 455 -2 405 11 c 128,-1,17
 355 24 355 24 302 50 c 128,-1,18
 249 76 249 76 205.5 122.5 c 128,-1,19
 162 169 162 169 134 238.5 c 128,-1,20
 106 308 106 308 106 408 c 2,21,-1
 106 968 l 2,22,23
 106 1050 106 1050 126 1113 c 128,-1,24
 146 1176 146 1176 178.5 1222.5 c 128,-1,25
 211 1269 211 1269 253 1300.5 c 128,-1,26
 295 1332 295 1332 339 1353 c 0,27,28
 441 1401 441 1401 572 1408 c 1,29,30
 683 1408 683 1408 762 1383 c 128,-1,31
 841 1358 841 1358 896 1318 c 128,-1,32
 951 1278 951 1278 984 1227.5 c 128,-1,33
 1017 1177 1017 1177 1035 1125 c 128,-1,34
 1053 1073 1053 1073 1058.5 1025 c 128,-1,35
 1064 977 1064 977 1064 942 c 0,36,37
 1064 927 1064 927 1061.5 905.5 c 128,-1,38
 1059 884 1059 884 1044 864.5 c 128,-1,39
 1029 845 1029 845 996.5 831.5 c 128,-1,40
 964 818 964 818 904 818 c 0,41,42
 883 818 883 818 852.5 820.5 c 128,-1,43
 822 823 822 823 794 833 c 128,-1,44
 766 843 766 843 746 862.5 c 128,-1,45
 726 882 726 882 726 916 c 0,46,47
 726 970 726 970 719.5 1012.5 c 128,-1,48
 713 1055 713 1055 696 1085 c 128,-1,49
 679 1115 679 1115 649 1130.5 c 128,-1,50
 619 1146 619 1146 572 1146 c 0,51,52
 523 1146 523 1146 496.5 1126 c 128,-1,53
 470 1106 470 1106 458 1082 c 0,54,55
 444 1054 444 1054 442 1018 c 1,56,-1
 442 378 l 2,57,58
 442 346 442 346 453.5 318 c 128,-1,59
 465 290 465 290 486 269 c 128,-1,60
 507 248 507 248 535.5 236 c 128,-1,61
 564 224 564 224 598 224 c 0,62,63
 638 224 638 224 670.5 241.5 c 128,-1,64
 703 259 703 259 729 288.5 c 128,-1,65
 755 318 755 318 775.5 355.5 c 128,-1,66
 796 393 796 393 812 434 c 1,67,-1
 716 434 l 1,68,69
 687 437 687 437 665 449 c 0,70,71
 645 459 645 459 629.5 479 c 128,-1,72
 614 499 614 499 614 534 c 0,73,74
 614 572 614 572 629.5 592.5 c 128,-1,75
 645 613 645 613 665 623 c 0,76,77
 687 634 687 634 716 636 c 1,78,-1
 976 636 l 2,79,80
 983 636 983 636 998.5 633.5 c 128,-1,81
 1014 631 1014 631 1030.5 619 c 128,-1,82
 1047 607 1047 607 1059.5 583.5 c 128,-1,83
 1072 560 1072 560 1072 518 c 2,84,-1
 1072 92 l 2,0,1
EndSplineSet
EndChar

StartChar: H
Encoding: 72 72 43
Width: 1166
Flags: W
LayerCount: 2
Fore
SplineSet
146 1170 m 2,0,1
 146 1213 146 1213 150 1254 c 128,-1,2
 154 1295 154 1295 169.5 1327.5 c 128,-1,3
 185 1360 185 1360 215 1380 c 128,-1,4
 245 1400 245 1400 298 1400 c 0,5,6
 350 1400 350 1400 380.5 1380 c 128,-1,7
 411 1360 411 1360 426.5 1327.5 c 128,-1,8
 442 1295 442 1295 446 1254 c 128,-1,9
 450 1213 450 1213 450 1170 c 2,10,-1
 450 856 l 1,11,-1
 724 856 l 1,12,-1
 724 1170 l 2,13,14
 724 1213 724 1213 728 1254 c 128,-1,15
 732 1295 732 1295 747.5 1327.5 c 128,-1,16
 763 1360 763 1360 793 1380 c 128,-1,17
 823 1400 823 1400 876 1400 c 0,18,19
 928 1400 928 1400 958.5 1380 c 128,-1,20
 989 1360 989 1360 1004.5 1327.5 c 128,-1,21
 1020 1295 1020 1295 1024 1254 c 128,-1,22
 1028 1213 1028 1213 1028 1170 c 2,23,-1
 1028 230 l 2,24,25
 1028 186 1028 186 1024 145 c 128,-1,26
 1020 104 1020 104 1004.5 71.5 c 128,-1,27
 989 39 989 39 958.5 19.5 c 128,-1,28
 928 0 928 0 876 0 c 0,29,30
 823 0 823 0 793 19.5 c 128,-1,31
 763 39 763 39 747.5 71.5 c 128,-1,32
 732 104 732 104 728 145 c 128,-1,33
 724 186 724 186 724 230 c 2,34,-1
 724 562 l 1,35,-1
 450 562 l 1,36,-1
 450 230 l 2,37,38
 450 186 450 186 446 145 c 128,-1,39
 442 104 442 104 426.5 71.5 c 128,-1,40
 411 39 411 39 380.5 19.5 c 128,-1,41
 350 0 350 0 298 0 c 0,42,43
 245 0 245 0 215 19.5 c 128,-1,44
 185 39 185 39 169.5 71.5 c 128,-1,45
 154 104 154 104 150 145 c 128,-1,46
 146 186 146 186 146 230 c 2,47,-1
 146 1170 l 2,0,1
EndSplineSet
EndChar

StartChar: I
Encoding: 73 73 44
Width: 666
Flags: W
LayerCount: 2
Fore
SplineSet
168 1170 m 2,0,1
 168 1213 168 1213 172.5 1254 c 128,-1,2
 177 1295 177 1295 193.5 1327.5 c 128,-1,3
 210 1360 210 1360 243 1380 c 128,-1,4
 276 1400 276 1400 334 1400 c 256,5,6
 392 1400 392 1400 425 1380 c 128,-1,7
 458 1360 458 1360 474.5 1327.5 c 128,-1,8
 491 1295 491 1295 495.5 1254 c 128,-1,9
 500 1213 500 1213 500 1170 c 2,10,-1
 500 230 l 2,11,12
 500 186 500 186 496 145 c 128,-1,13
 492 104 492 104 475.5 71.5 c 128,-1,14
 459 39 459 39 425.5 19.5 c 128,-1,15
 392 0 392 0 334 0 c 256,16,17
 276 0 276 0 243 19.5 c 128,-1,18
 210 39 210 39 193.5 71.5 c 128,-1,19
 177 104 177 104 172.5 145 c 128,-1,20
 168 186 168 186 168 230 c 2,21,-1
 168 1170 l 2,0,1
EndSplineSet
EndChar

StartChar: J
Encoding: 74 74 45
Width: 1126
Flags: W
LayerCount: 2
Fore
SplineSet
536 -8 m 0,0,1
 426 -8 426 -8 346.5 17 c 128,-1,2
 267 42 267 42 212.5 82 c 128,-1,3
 158 122 158 122 125 172.5 c 128,-1,4
 92 223 92 223 74.5 275 c 128,-1,5
 57 327 57 327 51.5 375 c 128,-1,6
 46 423 46 423 46 458 c 0,7,8
 46 473 46 473 48.5 494.5 c 128,-1,9
 51 516 51 516 66 536 c 128,-1,10
 81 556 81 556 113.5 570 c 128,-1,11
 146 584 146 584 206 584 c 0,12,13
 226 584 226 584 256 581.5 c 128,-1,14
 286 579 286 579 314 568.5 c 128,-1,15
 342 558 342 558 362 538 c 128,-1,16
 382 518 382 518 382 484 c 0,17,18
 382 430 382 430 388.5 387 c 128,-1,19
 395 344 395 344 412 314 c 128,-1,20
 429 284 429 284 459 268 c 128,-1,21
 489 252 489 252 536 252 c 0,22,23
 585 252 585 252 611.5 272 c 128,-1,24
 638 292 638 292 650 317 c 0,25,26
 664 345 664 345 666 382 c 1,27,-1
 666 1116 l 1,28,-1
 404 1116 l 2,29,30
 364 1116 364 1116 324 1120 c 128,-1,31
 284 1124 284 1124 251.5 1138 c 128,-1,32
 219 1152 219 1152 198.5 1180 c 128,-1,33
 178 1208 178 1208 178 1256 c 0,34,35
 178 1305 178 1305 198.5 1334 c 128,-1,36
 219 1363 219 1363 251.5 1377.5 c 128,-1,37
 284 1392 284 1392 324 1396 c 128,-1,38
 364 1400 364 1400 404 1400 c 2,39,-1
 812 1400 l 2,40,41
 869 1400 869 1400 902.5 1380 c 128,-1,42
 936 1360 936 1360 953 1327.5 c 128,-1,43
 970 1295 970 1295 975 1254 c 128,-1,44
 980 1213 980 1213 980 1170 c 2,45,-1
 980 410 l 2,46,47
 980 306 980 306 950 234 c 128,-1,48
 920 162 920 162 874.5 115.5 c 128,-1,49
 829 69 829 69 774.5 44 c 128,-1,50
 720 19 720 19 670.5 7.5 c 128,-1,51
 621 -4 621 -4 584 -6 c 128,-1,52
 547 -8 547 -8 536 -8 c 0,0,1
EndSplineSet
EndChar

StartChar: K
Encoding: 75 75 46
Width: 1142
Flags: W
LayerCount: 2
Fore
SplineSet
140 1172 m 2,0,1
 140 1215 140 1215 144 1256 c 128,-1,2
 148 1297 148 1297 163 1329 c 128,-1,3
 178 1361 178 1361 208 1380.5 c 128,-1,4
 238 1400 238 1400 290 1400 c 0,5,6
 343 1400 343 1400 374 1380.5 c 128,-1,7
 405 1361 405 1361 420.5 1329 c 128,-1,8
 436 1297 436 1297 440 1256 c 128,-1,9
 444 1215 444 1215 444 1172 c 2,10,-1
 444 812 l 1,11,-1
 558 812 l 1,12,13
 591 898 591 898 624 981 c 0,14,15
 638 1016 638 1016 653 1053.5 c 128,-1,16
 668 1091 668 1091 682.5 1127 c 128,-1,17
 697 1163 697 1163 710.5 1196.5 c 128,-1,18
 724 1230 724 1230 736 1256 c 0,19,20
 748 1284 748 1284 761.5 1310 c 128,-1,21
 775 1336 775 1336 793 1356 c 128,-1,22
 811 1376 811 1376 833.5 1388 c 128,-1,23
 856 1400 856 1400 886 1400 c 0,24,25
 915 1400 915 1400 943 1391 c 128,-1,26
 971 1382 971 1382 993 1364 c 128,-1,27
 1015 1346 1015 1346 1028.5 1320 c 128,-1,28
 1042 1294 1042 1294 1042 1260 c 0,29,30
 1042 1234 1042 1234 1033.5 1198.5 c 128,-1,31
 1025 1163 1025 1163 1010 1128 c 2,32,-1
 830 702 l 1,33,34
 882 683 882 683 922 640 c 0,35,36
 939 622 939 622 955.5 596.5 c 128,-1,37
 972 571 972 571 985 537 c 128,-1,38
 998 503 998 503 1006 459.5 c 128,-1,39
 1014 416 1014 416 1014 362 c 2,40,-1
 1014 220 l 2,41,42
 1014 209 1014 209 1022 202 c 128,-1,43
 1030 195 1030 195 1038 186 c 0,44,45
 1058 163 1058 163 1061 146 c 128,-1,46
 1064 129 1064 129 1064 118 c 0,47,48
 1064 82 1064 82 1050.5 58 c 128,-1,49
 1037 34 1037 34 1014.5 19 c 128,-1,50
 992 4 992 4 962.5 -2 c 128,-1,51
 933 -8 933 -8 902 -8 c 0,52,53
 869 -8 869 -8 835 2 c 128,-1,54
 801 12 801 12 773 32.5 c 128,-1,55
 745 53 745 53 727.5 84 c 128,-1,56
 710 115 710 115 710 156 c 2,57,-1
 710 362 l 2,58,59
 710 405 710 405 704 442.5 c 128,-1,60
 698 480 698 480 681 507.5 c 128,-1,61
 664 535 664 535 634 550.5 c 128,-1,62
 604 566 604 566 556 566 c 2,63,-1
 444 566 l 1,64,-1
 444 230 l 2,65,66
 444 186 444 186 440 145 c 128,-1,67
 436 104 436 104 420.5 71.5 c 128,-1,68
 405 39 405 39 374 19.5 c 128,-1,69
 343 0 343 0 290 0 c 0,70,71
 238 0 238 0 208 19.5 c 128,-1,72
 178 39 178 39 163 71.5 c 128,-1,73
 148 104 148 104 144 145 c 128,-1,74
 140 186 140 186 140 230 c 2,75,-1
 140 1172 l 2,0,1
EndSplineSet
EndChar

StartChar: L
Encoding: 76 76 47
Width: 968
Flags: W
LayerCount: 2
Fore
SplineSet
178 1170 m 2,0,1
 178 1213 178 1213 182 1254 c 128,-1,2
 186 1295 186 1295 201.5 1327.5 c 128,-1,3
 217 1360 217 1360 247 1380 c 128,-1,4
 277 1400 277 1400 330 1400 c 0,5,6
 387 1400 387 1400 419 1380 c 128,-1,7
 451 1360 451 1360 466 1327.5 c 128,-1,8
 481 1295 481 1295 484.5 1254 c 128,-1,9
 488 1213 488 1213 488 1170 c 2,10,-1
 488 294 l 1,11,-1
 684 294 l 2,12,13
 725 294 725 294 765 290 c 128,-1,14
 805 286 805 286 836.5 271 c 128,-1,15
 868 256 868 256 887 227 c 128,-1,16
 906 198 906 198 906 148 c 0,17,18
 906 97 906 97 887 67.5 c 128,-1,19
 868 38 868 38 836.5 23 c 128,-1,20
 805 8 805 8 765 4 c 128,-1,21
 725 0 725 0 684 0 c 2,22,-1
 400 0 l 2,23,24
 347 0 347 0 306 4 c 128,-1,25
 265 8 265 8 236.5 23 c 128,-1,26
 208 38 208 38 193 67.5 c 128,-1,27
 178 97 178 97 178 148 c 2,28,-1
 178 1170 l 2,0,1
EndSplineSet
EndChar

StartChar: M
Encoding: 77 77 48
Width: 1594
Flags: W
LayerCount: 2
Fore
SplineSet
784 324 m 2,0,1
 755 324 755 324 734.5 335 c 128,-1,2
 714 346 714 346 699 363 c 128,-1,3
 684 380 684 380 673.5 401 c 128,-1,4
 663 422 663 422 656 442 c 2,5,-1
 466 990 l 1,6,-1
 440 990 l 1,7,-1
 440 156 l 2,8,9
 440 124 440 124 436 96 c 128,-1,10
 432 68 432 68 418.5 46.5 c 128,-1,11
 405 25 405 25 378.5 12.5 c 128,-1,12
 352 0 352 0 306 0 c 0,13,14
 254 0 254 0 224 12.5 c 128,-1,15
 194 25 194 25 179 46.5 c 128,-1,16
 164 68 164 68 160 96 c 128,-1,17
 156 124 156 124 156 156 c 2,18,-1
 156 1172 l 2,19,20
 156 1215 156 1215 158.5 1256 c 128,-1,21
 161 1297 161 1297 175 1329 c 128,-1,22
 189 1361 189 1361 219.5 1380.5 c 128,-1,23
 250 1400 250 1400 306 1400 c 2,24,-1
 442 1400 l 2,25,26
 476 1400 476 1400 499.5 1397.5 c 128,-1,27
 523 1395 523 1395 543 1380.5 c 128,-1,28
 563 1366 563 1366 582.5 1334 c 128,-1,29
 602 1302 602 1302 625.5 1243.5 c 128,-1,30
 649 1185 649 1185 680 1094.5 c 128,-1,31
 711 1004 711 1004 756 872 c 1,32,-1
 782 792 l 1,33,-1
 806 792 l 1,34,-1
 838 892 l 2,35,36
 879 1018 879 1018 908 1105 c 128,-1,37
 937 1192 937 1192 959 1248.5 c 128,-1,38
 981 1305 981 1305 998.5 1335.5 c 128,-1,39
 1016 1366 1016 1366 1035.5 1380.5 c 128,-1,40
 1055 1395 1055 1395 1078 1397.5 c 128,-1,41
 1101 1400 1101 1400 1134 1400 c 2,42,-1
 1280 1400 l 2,43,44
 1336 1400 1336 1400 1366.5 1380.5 c 128,-1,45
 1397 1361 1397 1361 1411 1329 c 128,-1,46
 1425 1297 1425 1297 1427.5 1256 c 128,-1,47
 1430 1215 1430 1215 1430 1172 c 2,48,-1
 1430 156 l 2,49,50
 1430 124 1430 124 1426 96 c 128,-1,51
 1422 68 1422 68 1407 46.5 c 128,-1,52
 1392 25 1392 25 1362 12.5 c 128,-1,53
 1332 0 1332 0 1280 0 c 0,54,55
 1234 0 1234 0 1207.5 12.5 c 128,-1,56
 1181 25 1181 25 1167.5 46.5 c 128,-1,57
 1154 68 1154 68 1150 96 c 128,-1,58
 1146 124 1146 124 1146 156 c 2,59,-1
 1146 990 l 1,60,-1
 1118 990 l 1,61,-1
 930 442 l 1,62,63
 922 422 922 422 912 401 c 128,-1,64
 902 380 902 380 887 363 c 128,-1,65
 872 346 872 346 852 335 c 128,-1,66
 832 324 832 324 804 324 c 2,67,-1
 784 324 l 2,0,1
EndSplineSet
EndChar

StartChar: N
Encoding: 78 78 49
Width: 1360
Flags: W
LayerCount: 2
Fore
SplineSet
916 414 m 1,0,-1
 940 414 l 1,1,-1
 940 1244 l 2,2,3
 940 1276 940 1276 944 1304.5 c 128,-1,4
 948 1333 948 1333 961.5 1354 c 128,-1,5
 975 1375 975 1375 1001.5 1387.5 c 128,-1,6
 1028 1400 1028 1400 1074 1400 c 0,7,8
 1125 1400 1125 1400 1154.5 1387.5 c 128,-1,9
 1184 1375 1184 1375 1199 1354 c 128,-1,10
 1214 1333 1214 1333 1218 1304.5 c 128,-1,11
 1222 1276 1222 1276 1222 1244 c 2,12,-1
 1222 230 l 2,13,14
 1222 186 1222 186 1219.5 145 c 128,-1,15
 1217 104 1217 104 1203.5 71.5 c 128,-1,16
 1190 39 1190 39 1159.5 19.5 c 128,-1,17
 1129 0 1129 0 1074 0 c 2,18,-1
 942 0 l 2,19,20
 895 0 895 0 863.5 18.5 c 128,-1,21
 832 37 832 37 811 63.5 c 128,-1,22
 790 90 790 90 777.5 119 c 128,-1,23
 765 148 765 148 758 168 c 2,24,-1
 456 986 l 1,25,-1
 432 986 l 1,26,-1
 432 156 l 2,27,28
 432 124 432 124 428 95.5 c 128,-1,29
 424 67 424 67 410.5 46 c 128,-1,30
 397 25 397 25 370.5 12.5 c 128,-1,31
 344 0 344 0 298 0 c 0,32,33
 246 0 246 0 216 12.5 c 128,-1,34
 186 25 186 25 171 46 c 128,-1,35
 156 67 156 67 152 95.5 c 128,-1,36
 148 124 148 124 148 156 c 2,37,-1
 148 1170 l 2,38,39
 148 1213 148 1213 150.5 1254.5 c 128,-1,40
 153 1296 153 1296 167 1328.5 c 128,-1,41
 181 1361 181 1361 211.5 1380.5 c 128,-1,42
 242 1400 242 1400 298 1400 c 2,43,-1
 430 1400 l 2,44,45
 480 1400 480 1400 511.5 1380.5 c 128,-1,46
 543 1361 543 1361 563 1338 c 0,47,48
 585 1311 585 1311 598 1276 c 2,49,-1
 916 414 l 1,0,-1
EndSplineSet
EndChar

StartChar: O
Encoding: 79 79 50
Width: 1128
Flags: W
LayerCount: 2
Fore
SplineSet
104 1004 m 2,0,1
 104 1100 104 1100 132 1167.5 c 128,-1,2
 160 1235 160 1235 203.5 1280 c 128,-1,3
 247 1325 247 1325 299.5 1350.5 c 128,-1,4
 352 1376 352 1376 401.5 1389 c 128,-1,5
 451 1402 451 1402 491 1405 c 128,-1,6
 531 1408 531 1408 550 1408 c 2,7,-1
 584 1408 l 2,8,9
 603 1408 603 1408 643 1405 c 128,-1,10
 683 1402 683 1402 732 1389 c 128,-1,11
 781 1376 781 1376 833.5 1350.5 c 128,-1,12
 886 1325 886 1325 928.5 1280 c 128,-1,13
 971 1235 971 1235 998.5 1167.5 c 128,-1,14
 1026 1100 1026 1100 1026 1004 c 2,15,-1
 1026 406 l 2,16,17
 1026 307 1026 307 998.5 238 c 128,-1,18
 971 169 971 169 928.5 123 c 128,-1,19
 886 77 886 77 833.5 50.5 c 128,-1,20
 781 24 781 24 732 11 c 128,-1,21
 683 -2 683 -2 643 -5 c 128,-1,22
 603 -8 603 -8 584 -8 c 2,23,-1
 550 -8 l 2,24,25
 531 -8 531 -8 491 -5 c 128,-1,26
 451 -2 451 -2 401.5 11 c 128,-1,27
 352 24 352 24 299.5 50.5 c 128,-1,28
 247 77 247 77 203.5 123 c 128,-1,29
 160 169 160 169 132 238 c 128,-1,30
 104 307 104 307 104 406 c 2,31,-1
 104 1004 l 2,0,1
436 368 m 1,32,33
 438 331 438 331 453 303 c 0,34,35
 466 278 466 278 492.5 258 c 128,-1,36
 519 238 519 238 568 238 c 0,37,38
 616 238 616 238 642 258 c 128,-1,39
 668 278 668 278 681 303 c 0,40,41
 695 331 695 331 698 368 c 1,42,-1
 698 1020 l 1,43,44
 695 1056 695 1056 681 1085 c 1,45,46
 668 1109 668 1109 642 1129.5 c 128,-1,47
 616 1150 616 1150 568 1150 c 0,48,49
 519 1150 519 1150 492.5 1129.5 c 128,-1,50
 466 1109 466 1109 453 1085 c 0,51,52
 438 1056 438 1056 436 1020 c 1,53,-1
 436 368 l 1,32,33
EndSplineSet
EndChar

StartChar: P
Encoding: 80 80 51
Width: 1082
Flags: W
LayerCount: 2
Fore
SplineSet
446 552 m 1,0,-1
 446 228 l 2,1,2
 446 185 446 185 443.5 144 c 128,-1,3
 441 103 441 103 426.5 71 c 128,-1,4
 412 39 412 39 381 19.5 c 128,-1,5
 350 0 350 0 292 0 c 0,6,7
 236 0 236 0 205.5 19.5 c 128,-1,8
 175 39 175 39 161 71 c 128,-1,9
 147 103 147 103 144.5 144 c 128,-1,10
 142 185 142 185 142 228 c 2,11,-1
 142 1172 l 2,12,13
 142 1215 142 1215 144.5 1256 c 128,-1,14
 147 1297 147 1297 161 1329 c 128,-1,15
 175 1361 175 1361 205.5 1380.5 c 128,-1,16
 236 1400 236 1400 292 1400 c 2,17,-1
 622 1400 l 1,18,19
 746 1394 746 1394 844 1348 c 0,20,21
 886 1328 886 1328 925.5 1298 c 128,-1,22
 965 1268 965 1268 996.5 1224.5 c 128,-1,23
 1028 1181 1028 1181 1047 1121.5 c 128,-1,24
 1066 1062 1066 1062 1066 984 c 0,25,26
 1066 877 1066 877 1032.5 796.5 c 128,-1,27
 999 716 999 716 935.5 661.5 c 128,-1,28
 872 607 872 607 780.5 579.5 c 128,-1,29
 689 552 689 552 574 552 c 2,30,-1
 446 552 l 1,0,-1
582 790 m 1,31,32
 632 793 632 793 672 814 c 0,33,34
 689 823 689 823 705 837 c 128,-1,35
 721 851 721 851 734 871.5 c 128,-1,36
 747 892 747 892 754.5 920 c 128,-1,37
 762 948 762 948 762 984 c 0,38,39
 762 1018 762 1018 754.5 1043.5 c 128,-1,40
 747 1069 747 1069 735 1087.5 c 128,-1,41
 723 1106 723 1106 708 1119 c 128,-1,42
 693 1132 693 1132 677 1141 c 0,43,44
 639 1160 639 1160 592 1164 c 1,45,-1
 446 1164 l 1,46,-1
 446 790 l 1,47,-1
 582 790 l 1,31,32
EndSplineSet
EndChar

StartChar: Q
Encoding: 81 81 52
Width: 1156
Flags: W
LayerCount: 2
Fore
SplineSet
122 1002 m 2,0,1
 122 1099 122 1099 150 1167 c 128,-1,2
 178 1235 178 1235 221.5 1280.5 c 128,-1,3
 265 1326 265 1326 317.5 1351.5 c 128,-1,4
 370 1377 370 1377 419.5 1389.5 c 128,-1,5
 469 1402 469 1402 509 1405 c 128,-1,6
 549 1408 549 1408 568 1408 c 2,7,-1
 602 1408 l 2,8,9
 621 1408 621 1408 660.5 1405 c 128,-1,10
 700 1402 700 1402 749.5 1389.5 c 128,-1,11
 799 1377 799 1377 851 1351.5 c 128,-1,12
 903 1326 903 1326 946 1280.5 c 128,-1,13
 989 1235 989 1235 1016.5 1167 c 128,-1,14
 1044 1099 1044 1099 1044 1002 c 2,15,-1
 1044 406 l 2,16,17
 1044 331 1044 331 1026.5 272 c 128,-1,18
 1009 213 1009 213 980 166 c 1,19,-1
 1080 76 l 1,20,21
 1094 62 1094 62 1104 46.5 c 128,-1,22
 1114 31 1114 31 1114 -4 c 0,23,24
 1114 -19 1114 -19 1107 -39.5 c 128,-1,25
 1100 -60 1100 -60 1080 -80 c 1,26,27
 1060 -98 1060 -98 1040.5 -104 c 128,-1,28
 1021 -110 1021 -110 1004 -110 c 0,29,30
 969 -110 969 -110 951 -100.5 c 128,-1,31
 933 -91 933 -91 922 -80 c 2,32,-1
 810 26 l 1,33,34
 772 13 772 13 739.5 6 c 128,-1,35
 707 -1 707 -1 680.5 -4 c 128,-1,36
 654 -7 654 -7 634 -7.5 c 128,-1,37
 614 -8 614 -8 602 -8 c 2,38,-1
 568 -8 l 2,39,40
 549 -8 549 -8 509 -5 c 128,-1,41
 469 -2 469 -2 419.5 11 c 128,-1,42
 370 24 370 24 317.5 50.5 c 128,-1,43
 265 77 265 77 221.5 123 c 128,-1,44
 178 169 178 169 150 238 c 128,-1,45
 122 307 122 307 122 406 c 2,46,-1
 122 1002 l 2,0,1
454 368 m 1,47,48
 456 331 456 331 471 303 c 0,49,50
 484 278 484 278 510.5 258 c 128,-1,51
 537 238 537 238 586 238 c 0,52,53
 634 238 634 238 660 258 c 128,-1,54
 686 278 686 278 699 303 c 0,55,56
 713 331 713 331 716 368 c 1,57,-1
 716 1020 l 1,58,59
 713 1056 713 1056 699 1084 c 0,60,61
 686 1108 686 1108 660 1128 c 128,-1,62
 634 1148 634 1148 586 1148 c 0,63,64
 537 1148 537 1148 510.5 1128 c 128,-1,65
 484 1108 484 1108 471 1084 c 0,66,67
 456 1056 456 1056 454 1020 c 1,68,-1
 454 368 l 1,47,48
EndSplineSet
EndChar

StartChar: R
Encoding: 82 82 53
Width: 1142
Flags: W
LayerCount: 2
Fore
SplineSet
142 1172 m 2,0,1
 142 1215 142 1215 144.5 1256 c 128,-1,2
 147 1297 147 1297 161 1329 c 128,-1,3
 175 1361 175 1361 205.5 1380.5 c 128,-1,4
 236 1400 236 1400 292 1400 c 2,5,-1
 622 1400 l 1,6,7
 745 1394 745 1394 842 1348 c 0,8,9
 883 1328 883 1328 922.5 1298.5 c 128,-1,10
 962 1269 962 1269 993 1225.5 c 128,-1,11
 1024 1182 1024 1182 1043 1123 c 128,-1,12
 1062 1064 1062 1064 1062 986 c 0,13,14
 1062 970 1062 970 1059 943.5 c 128,-1,15
 1056 917 1056 917 1046 885.5 c 128,-1,16
 1036 854 1036 854 1019 820 c 128,-1,17
 1002 786 1002 786 974 755 c 128,-1,18
 946 724 946 724 905.5 698 c 128,-1,19
 865 672 865 672 810 656 c 1,20,21
 845 642 845 642 881 619.5 c 128,-1,22
 917 597 917 597 946 562 c 128,-1,23
 975 527 975 527 993.5 478 c 128,-1,24
 1012 429 1012 429 1012 364 c 2,25,-1
 1012 222 l 2,26,27
 1012 210 1012 210 1018 202 c 128,-1,28
 1024 194 1024 194 1030 188 c 0,29,30
 1054 164 1054 164 1058 146.5 c 128,-1,31
 1062 129 1062 129 1062 118 c 0,32,33
 1062 83 1062 83 1048 59 c 128,-1,34
 1034 35 1034 35 1011.5 20 c 128,-1,35
 989 5 989 5 960.5 -1.5 c 128,-1,36
 932 -8 932 -8 902 -8 c 0,37,38
 869 -8 869 -8 835 2.5 c 128,-1,39
 801 13 801 13 773 33 c 128,-1,40
 745 53 745 53 727.5 83 c 128,-1,41
 710 113 710 113 710 152 c 2,42,-1
 710 364 l 2,43,44
 710 408 710 408 704 445 c 128,-1,45
 698 482 698 482 681 509 c 128,-1,46
 664 536 664 536 634 551 c 128,-1,47
 604 566 604 566 556 566 c 2,48,-1
 444 566 l 1,49,-1
 444 232 l 2,50,51
 444 188 444 188 441.5 146 c 128,-1,52
 439 104 439 104 425 71.5 c 128,-1,53
 411 39 411 39 380 19.5 c 128,-1,54
 349 0 349 0 292 0 c 0,55,56
 236 0 236 0 205.5 19.5 c 128,-1,57
 175 39 175 39 161 71.5 c 128,-1,58
 147 104 147 104 144.5 146 c 128,-1,59
 142 188 142 188 142 232 c 2,60,-1
 142 1172 l 2,0,1
580 790 m 1,61,62
 630 792 630 792 670 814 c 0,63,64
 687 823 687 823 703 837 c 128,-1,65
 719 851 719 851 732 872 c 128,-1,66
 745 893 745 893 752.5 921 c 128,-1,67
 760 949 760 949 760 986 c 0,68,69
 760 1019 760 1019 752.5 1044.5 c 128,-1,70
 745 1070 745 1070 733 1089 c 128,-1,71
 721 1108 721 1108 705.5 1121 c 128,-1,72
 690 1134 690 1134 674 1142 c 0,73,74
 636 1161 636 1161 588 1164 c 1,75,-1
 444 1164 l 1,76,-1
 444 790 l 1,77,-1
 580 790 l 1,61,62
EndSplineSet
EndChar

StartChar: S
Encoding: 83 83 54
Width: 1014
Flags: W
LayerCount: 2
Fore
SplineSet
398 1048 m 1,0,1
 399 1006 399 1006 422.5 972.5 c 128,-1,2
 446 939 446 939 484.5 909 c 128,-1,3
 523 879 523 879 572 850.5 c 128,-1,4
 621 822 621 822 672.5 790.5 c 128,-1,5
 724 759 724 759 773 722 c 128,-1,6
 822 685 822 685 861 638 c 128,-1,7
 900 591 900 591 924 532 c 128,-1,8
 948 473 948 473 950 398 c 1,9,-1
 950 390 l 2,10,11
 950 308 950 308 930 247 c 128,-1,12
 910 186 910 186 877 142 c 128,-1,13
 844 98 844 98 800 69.5 c 128,-1,14
 756 41 756 41 707.5 24 c 128,-1,15
 659 7 659 7 609.5 0 c 128,-1,16
 560 -7 560 -7 516 -8 c 1,17,-1
 506 -8 l 2,18,19
 421 -8 421 -8 357 9 c 128,-1,20
 293 26 293 26 247 54.5 c 128,-1,21
 201 83 201 83 170.5 120 c 128,-1,22
 140 157 140 157 122 196.5 c 128,-1,23
 104 236 104 236 96 275 c 128,-1,24
 88 314 88 314 88 348 c 0,25,26
 88 383 88 383 100 409 c 128,-1,27
 112 435 112 435 131.5 451.5 c 128,-1,28
 151 468 151 468 176.5 476 c 128,-1,29
 202 484 202 484 230 484 c 0,30,31
 256 484 256 484 283.5 476 c 128,-1,32
 311 468 311 468 333.5 451.5 c 128,-1,33
 356 435 356 435 370.5 409.5 c 128,-1,34
 385 384 385 384 386 350 c 0,35,36
 388 275 388 275 420 247.5 c 128,-1,37
 452 220 452 220 512 220 c 1,38,39
 542 221 542 221 567.5 227.5 c 128,-1,40
 593 234 593 234 611 250.5 c 128,-1,41
 629 267 629 267 639.5 294.5 c 128,-1,42
 650 322 650 322 650 364 c 0,43,44
 650 416 650 416 626.5 458 c 128,-1,45
 603 500 603 500 565 536 c 128,-1,46
 527 572 527 572 478 604.5 c 128,-1,47
 429 637 429 637 378 669.5 c 128,-1,48
 327 702 327 702 278.5 737.5 c 128,-1,49
 230 773 230 773 191 815 c 128,-1,50
 152 857 152 857 128.5 908 c 128,-1,51
 105 959 105 959 104 1024 c 1,52,-1
 104 1040 l 1,53,54
 105 1147 105 1147 132.5 1218 c 128,-1,55
 160 1289 160 1289 213.5 1331 c 128,-1,56
 267 1373 267 1373 345 1390.5 c 128,-1,57
 423 1408 423 1408 524 1408 c 2,58,-1
 550 1408 l 2,59,60
 642 1408 642 1408 706 1388 c 128,-1,61
 770 1368 770 1368 812.5 1337 c 128,-1,62
 855 1306 855 1306 879.5 1267 c 128,-1,63
 904 1228 904 1228 916 1190 c 128,-1,64
 928 1152 928 1152 931 1119 c 128,-1,65
 934 1086 934 1086 934 1066 c 0,66,67
 934 1036 934 1036 922.5 1011.5 c 128,-1,68
 911 987 911 987 891.5 970 c 128,-1,69
 872 953 872 953 845.5 943.5 c 128,-1,70
 819 934 819 934 788 934 c 0,71,72
 764 934 764 934 740 943.5 c 128,-1,73
 716 953 716 953 697 968 c 128,-1,74
 678 983 678 983 666 1002.5 c 128,-1,75
 654 1022 654 1022 654 1042 c 0,76,77
 654 1124 654 1124 624.5 1156 c 128,-1,78
 595 1188 595 1188 538 1188 c 0,79,80
 511 1188 511 1188 485.5 1185 c 128,-1,81
 460 1182 460 1182 440.5 1168.5 c 128,-1,82
 421 1155 421 1155 409.5 1127 c 128,-1,83
 398 1099 398 1099 398 1048 c 1,0,1
EndSplineSet
EndChar

StartChar: T
Encoding: 84 84 55
Width: 982
Flags: W
LayerCount: 2
Fore
SplineSet
746 1400 m 2,0,1
 786 1400 786 1400 826.5 1397 c 128,-1,2
 867 1394 867 1394 900 1380 c 128,-1,3
 933 1366 933 1366 953.5 1337.5 c 128,-1,4
 974 1309 974 1309 974 1258 c 0,5,6
 974 1208 974 1208 953.5 1179.5 c 128,-1,7
 933 1151 933 1151 900 1137 c 128,-1,8
 867 1123 867 1123 826.5 1119.5 c 128,-1,9
 786 1116 786 1116 746 1116 c 2,10,-1
 644 1116 l 1,11,-1
 644 228 l 2,12,13
 644 185 644 185 641.5 144 c 128,-1,14
 639 103 639 103 625 71 c 128,-1,15
 611 39 611 39 580 19.5 c 128,-1,16
 549 0 549 0 492 0 c 256,17,18
 435 0 435 0 404 19.5 c 128,-1,19
 373 39 373 39 359 71 c 128,-1,20
 345 103 345 103 342.5 144 c 128,-1,21
 340 185 340 185 340 228 c 2,22,-1
 340 1116 l 1,23,-1
 238 1116 l 2,24,25
 198 1116 198 1116 157.5 1119.5 c 128,-1,26
 117 1123 117 1123 84 1137 c 128,-1,27
 51 1151 51 1151 30.5 1179.5 c 128,-1,28
 10 1208 10 1208 10 1258 c 0,29,30
 10 1309 10 1309 30.5 1337.5 c 128,-1,31
 51 1366 51 1366 84 1380 c 128,-1,32
 117 1394 117 1394 157.5 1397 c 128,-1,33
 198 1400 198 1400 238 1400 c 2,34,-1
 746 1400 l 2,0,1
EndSplineSet
EndChar

StartChar: U
Encoding: 85 85 56
Width: 1208
Flags: W
LayerCount: 2
Fore
SplineSet
142 1172 m 2,0,1
 142 1215 142 1215 146.5 1256 c 128,-1,2
 151 1297 151 1297 167.5 1329 c 128,-1,3
 184 1361 184 1361 217 1380.5 c 128,-1,4
 250 1400 250 1400 308 1400 c 256,5,6
 366 1400 366 1400 399.5 1380.5 c 128,-1,7
 433 1361 433 1361 449.5 1329 c 128,-1,8
 466 1297 466 1297 470 1256 c 128,-1,9
 474 1215 474 1215 474 1172 c 2,10,-1
 474 384 l 1,11,12
 477 340 477 340 492 306 c 0,13,14
 498 291 498 291 508 277 c 128,-1,15
 518 263 518 263 531.5 252 c 128,-1,16
 545 241 545 241 563.5 234.5 c 128,-1,17
 582 228 582 228 606 228 c 256,18,19
 630 228 630 228 649 234.5 c 128,-1,20
 668 241 668 241 681.5 252 c 128,-1,21
 695 263 695 263 705 277 c 128,-1,22
 715 291 715 291 721 306 c 0,23,24
 736 340 736 340 738 384 c 1,25,-1
 738 1172 l 2,26,27
 738 1215 738 1215 742 1256 c 128,-1,28
 746 1297 746 1297 762.5 1329 c 128,-1,29
 779 1361 779 1361 812 1380.5 c 128,-1,30
 845 1400 845 1400 904 1400 c 0,31,32
 962 1400 962 1400 995 1380.5 c 128,-1,33
 1028 1361 1028 1361 1044.5 1329 c 128,-1,34
 1061 1297 1061 1297 1065.5 1256 c 128,-1,35
 1070 1215 1070 1215 1070 1172 c 2,36,-1
 1070 410 l 2,37,38
 1070 306 1070 306 1036.5 228 c 128,-1,39
 1003 150 1003 150 941.5 97.5 c 128,-1,40
 880 45 880 45 794.5 18.5 c 128,-1,41
 709 -8 709 -8 606 -8 c 0,42,43
 502 -8 502 -8 417 19.5 c 128,-1,44
 332 47 332 47 270.5 100 c 128,-1,45
 209 153 209 153 175.5 231 c 128,-1,46
 142 309 142 309 142 410 c 2,47,-1
 142 1172 l 2,0,1
EndSplineSet
EndChar

StartChar: V
Encoding: 86 86 57
Width: 1000
Flags: W
LayerCount: 2
Fore
SplineSet
844 1400 m 0,0,1
 873 1400 873 1400 900 1390 c 128,-1,2
 927 1380 927 1380 947.5 1363 c 128,-1,3
 968 1346 968 1346 980 1322.5 c 128,-1,4
 992 1299 992 1299 992 1272 c 0,5,6
 992 1259 992 1259 990.5 1247.5 c 128,-1,7
 989 1236 989 1236 987 1227 c 0,8,9
 984 1216 984 1216 982 1208 c 0,10,11
 914 941 914 941 840 663.5 c 128,-1,12
 766 386 766 386 698 120 c 1,13,14
 683 86 683 86 658 60 c 0,15,16
 637 37 637 37 603.5 18.5 c 128,-1,17
 570 0 570 0 520 0 c 2,18,-1
 488 0 l 2,19,20
 438 0 438 0 404 18.5 c 128,-1,21
 370 37 370 37 349 60 c 0,22,23
 324 86 324 86 310 120 c 1,24,-1
 26 1208 l 2,25,26
 23 1216 23 1216 21 1227 c 0,27,28
 16 1247 16 1247 16 1272 c 0,29,30
 16 1299 16 1299 27.5 1322.5 c 128,-1,31
 39 1346 39 1346 59 1363 c 128,-1,32
 79 1380 79 1380 106 1390 c 128,-1,33
 133 1400 133 1400 164 1400 c 0,34,35
 212 1400 212 1400 241.5 1379 c 128,-1,36
 271 1358 271 1358 288 1332 c 0,37,38
 307 1302 307 1302 316 1264 c 0,39,40
 328 1216 328 1216 342 1155.5 c 128,-1,41
 356 1095 356 1095 370 1030 c 128,-1,42
 384 965 384 965 398.5 897.5 c 128,-1,43
 413 830 413 830 426 767 c 0,44,45
 457 619 457 619 488 464 c 1,46,-1
 520 464 l 1,47,48
 554 619 554 619 586 767 c 0,49,50
 599 830 599 830 613.5 897.5 c 128,-1,51
 628 965 628 965 642 1030 c 128,-1,52
 656 1095 656 1095 669 1155.5 c 128,-1,53
 682 1216 682 1216 692 1264 c 1,54,55
 702 1302 702 1302 721 1332 c 0,56,57
 738 1358 738 1358 767 1379 c 128,-1,58
 796 1400 796 1400 844 1400 c 0,0,1
EndSplineSet
EndChar

StartChar: W
Encoding: 87 87 58
Width: 1666
Flags: W
LayerCount: 2
Fore
SplineSet
842 1394 m 0,0,1
 870 1394 870 1394 894.5 1384 c 128,-1,2
 919 1374 919 1374 938.5 1356.5 c 128,-1,3
 958 1339 958 1339 972 1314.5 c 128,-1,4
 986 1290 986 1290 992 1262 c 2,5,-1
 1164 464 l 1,6,-1
 1198 464 l 1,7,8
 1240 659 1240 659 1284 862.5 c 128,-1,9
 1328 1066 1328 1066 1372 1262 c 0,10,11
 1381 1300 1381 1300 1399 1331 c 0,12,13
 1415 1357 1415 1357 1443.5 1378.5 c 128,-1,14
 1472 1400 1472 1400 1518 1400 c 0,15,16
 1553 1400 1553 1400 1579.5 1387.5 c 128,-1,17
 1606 1375 1606 1375 1623.5 1355.5 c 128,-1,18
 1641 1336 1641 1336 1649.5 1313 c 128,-1,19
 1658 1290 1658 1290 1658 1268 c 0,20,21
 1658 1256 1658 1256 1657 1245 c 128,-1,22
 1656 1234 1656 1234 1654 1226 c 0,23,24
 1652 1216 1652 1216 1650 1208 c 2,25,-1
 1376 120 l 1,26,27
 1361 86 1361 86 1336 60 c 0,28,29
 1315 37 1315 37 1281.5 18.5 c 128,-1,30
 1248 0 1248 0 1198 0 c 2,31,-1
 1164 0 l 2,32,33
 1114 0 1114 0 1082 18.5 c 128,-1,34
 1050 37 1050 37 1031 60 c 0,35,36
 1009 86 1009 86 998 120 c 1,37,-1
 858 706 l 1,38,-1
 824 706 l 1,39,40
 792 564 792 564 755.5 413 c 128,-1,41
 719 262 719 262 686 120 c 1,42,43
 673 86 673 86 651 60 c 0,44,45
 631 37 631 37 599.5 18.5 c 128,-1,46
 568 0 568 0 518 0 c 2,47,-1
 484 0 l 2,48,49
 434 0 434 0 399.5 18.5 c 128,-1,50
 365 37 365 37 343 60 c 0,51,52
 317 86 317 86 302 120 c 1,53,-1
 32 1208 l 2,54,55
 30 1216 30 1216 28 1226 c 0,56,57
 26 1234 26 1234 25 1245 c 128,-1,58
 24 1256 24 1256 24 1268 c 0,59,60
 24 1290 24 1290 32.5 1313 c 128,-1,61
 41 1336 41 1336 58.5 1355.5 c 128,-1,62
 76 1375 76 1375 102.5 1387.5 c 128,-1,63
 129 1400 129 1400 164 1400 c 0,64,65
 210 1400 210 1400 238.5 1378.5 c 128,-1,66
 267 1357 267 1357 283 1331 c 0,67,68
 301 1300 301 1300 310 1262 c 2,69,-1
 484 464 l 1,70,-1
 518 464 l 1,71,72
 537 556 537 556 559 657.5 c 128,-1,73
 581 759 581 759 603.5 862.5 c 128,-1,74
 626 966 626 966 648.5 1067.5 c 128,-1,75
 671 1169 671 1169 692 1262 c 1,76,77
 706 1319 706 1319 746 1356.5 c 128,-1,78
 786 1394 786 1394 842 1394 c 0,0,1
EndSplineSet
EndChar

StartChar: X
Encoding: 88 88 59
Width: 1146
Flags: W
LayerCount: 2
Fore
SplineSet
388 714 m 1,0,-1
 136 1096 l 2,1,2
 114 1129 114 1129 96 1162 c 0,3,4
 81 1189 81 1189 68.5 1219 c 128,-1,5
 56 1249 56 1249 56 1270 c 0,6,7
 56 1297 56 1297 71.5 1325 c 128,-1,8
 87 1353 87 1353 126 1376 c 1,9,10
 171 1400 171 1400 208 1400 c 0,11,12
 236 1400 236 1400 259.5 1387.5 c 128,-1,13
 283 1375 283 1375 302.5 1354.5 c 128,-1,14
 322 1334 322 1334 339 1308 c 128,-1,15
 356 1282 356 1282 372 1256 c 2,16,-1
 558 950 l 1,17,-1
 588 950 l 1,18,-1
 774 1256 l 2,19,20
 790 1282 790 1282 807 1308 c 128,-1,21
 824 1334 824 1334 843.5 1354.5 c 128,-1,22
 863 1375 863 1375 886 1387.5 c 128,-1,23
 909 1400 909 1400 938 1400 c 0,24,25
 956 1400 956 1400 976.5 1393 c 128,-1,26
 997 1386 997 1386 1020 1374 c 0,27,28
 1062 1351 1062 1351 1078 1324.5 c 128,-1,29
 1094 1298 1094 1298 1094 1272 c 0,30,31
 1094 1250 1094 1250 1081 1220 c 128,-1,32
 1068 1190 1068 1190 1052 1162 c 0,33,34
 1034 1129 1034 1129 1010 1096 c 1,35,-1
 760 714 l 1,36,-1
 760 696 l 1,37,-1
 1038 258 l 2,38,39
 1059 225 1059 225 1074.5 192.5 c 128,-1,40
 1090 160 1090 160 1090 128 c 0,41,42
 1090 101 1090 101 1075.5 74.5 c 128,-1,43
 1061 48 1061 48 1022 24 c 1,44,45
 977 0 977 0 940 0 c 0,46,47
 914 0 914 0 893 10.5 c 128,-1,48
 872 21 872 21 854 38 c 128,-1,49
 836 55 836 55 820.5 77 c 128,-1,50
 805 99 805 99 790 122 c 2,51,-1
 588 450 l 1,52,-1
 558 450 l 1,53,-1
 356 122 l 2,54,55
 341 99 341 99 325.5 77 c 128,-1,56
 310 55 310 55 292.5 38 c 128,-1,57
 275 21 275 21 254 10.5 c 128,-1,58
 233 0 233 0 208 0 c 0,59,60
 170 0 170 0 128 24 c 0,61,62
 87 48 87 48 71.5 74.5 c 128,-1,63
 56 101 56 101 56 128 c 0,64,65
 56 160 56 160 71.5 192.5 c 128,-1,66
 87 225 87 225 108 258 c 2,67,-1
 388 696 l 1,68,-1
 388 714 l 1,0,-1
EndSplineSet
EndChar

StartChar: Y
Encoding: 89 89 60
Width: 1000
Flags: W
LayerCount: 2
Fore
SplineSet
654 226 m 2,0,1
 654 184 654 184 650 143.5 c 128,-1,2
 646 103 646 103 631 71 c 128,-1,3
 616 39 616 39 586 19.5 c 128,-1,4
 556 0 556 0 504 0 c 0,5,6
 451 0 451 0 421 19.5 c 128,-1,7
 391 39 391 39 375.5 71 c 128,-1,8
 360 103 360 103 356 143.5 c 128,-1,9
 352 184 352 184 352 226 c 2,10,-1
 352 574 l 1,11,-1
 54 1106 l 2,12,13
 30 1148 30 1148 8 1188.5 c 128,-1,14
 -14 1229 -14 1229 -14 1270 c 0,15,16
 -14 1297 -14 1297 1.5 1324.5 c 128,-1,17
 17 1352 17 1352 58 1376 c 1,18,19
 103 1400 103 1400 142 1400 c 0,20,21
 172 1400 172 1400 196.5 1386.5 c 128,-1,22
 221 1373 221 1373 241 1351 c 128,-1,23
 261 1329 261 1329 277 1301.5 c 128,-1,24
 293 1274 293 1274 306 1246 c 2,25,-1
 488 864 l 1,26,-1
 520 864 l 1,27,-1
 702 1246 l 2,28,29
 715 1274 715 1274 731 1301.5 c 128,-1,30
 747 1329 747 1329 767 1351 c 128,-1,31
 787 1373 787 1373 811.5 1386.5 c 128,-1,32
 836 1400 836 1400 866 1400 c 0,33,34
 887 1400 887 1400 907 1394 c 128,-1,35
 927 1388 927 1388 950 1376 c 1,36,37
 989 1352 989 1352 1005.5 1324.5 c 128,-1,38
 1022 1297 1022 1297 1022 1270 c 0,39,40
 1022 1252 1022 1252 1006 1211.5 c 128,-1,41
 990 1171 990 1171 954 1106 c 2,42,-1
 654 574 l 1,43,-1
 654 226 l 2,0,1
EndSplineSet
EndChar

StartChar: Z
Encoding: 90 90 61
Width: 1042
Flags: W
LayerCount: 2
Fore
SplineSet
600 1098 m 1,0,-1
 584 1114 l 1,1,-1
 296 1114 l 2,2,3
 256 1114 256 1114 216 1118 c 128,-1,4
 176 1122 176 1122 143.5 1135.5 c 128,-1,5
 111 1149 111 1149 90.5 1175.5 c 128,-1,6
 70 1202 70 1202 70 1248 c 0,7,8
 70 1300 70 1300 90.5 1330.5 c 128,-1,9
 111 1361 111 1361 143.5 1376.5 c 128,-1,10
 176 1392 176 1392 216 1396 c 128,-1,11
 256 1400 256 1400 296 1400 c 2,12,-1
 822 1400 l 2,13,14
 860 1400 860 1400 889.5 1386.5 c 128,-1,15
 919 1373 919 1373 939 1351 c 128,-1,16
 959 1329 959 1329 969.5 1302 c 128,-1,17
 980 1275 980 1275 980 1248 c 0,18,19
 980 1233 980 1233 977 1219 c 128,-1,20
 974 1205 974 1205 968 1194 c 2,21,-1
 454 300 l 1,22,-1
 468 286 l 1,23,-1
 756 286 l 2,24,25
 795 286 795 286 835 282 c 128,-1,26
 875 278 875 278 908 263.5 c 128,-1,27
 941 249 941 249 961.5 221 c 128,-1,28
 982 193 982 193 982 144 c 0,29,30
 982 94 982 94 961.5 65.5 c 128,-1,31
 941 37 941 37 908 22.5 c 128,-1,32
 875 8 875 8 835 4 c 128,-1,33
 795 0 795 0 756 0 c 2,34,-1
 230 0 l 2,35,36
 192 0 192 0 162.5 12.5 c 128,-1,37
 133 25 133 25 112.5 45 c 128,-1,38
 92 65 92 65 81 91 c 128,-1,39
 70 117 70 117 70 144 c 0,40,41
 70 162 70 162 72.5 175.5 c 128,-1,42
 75 189 75 189 84 204 c 2,43,-1
 600 1098 l 1,0,-1
EndSplineSet
EndChar

StartChar: bracketleft
Encoding: 91 91 62
Width: 836
Flags: W
LayerCount: 2
Fore
SplineSet
590 246 m 2,0,1
 618 246 618 246 644 242.5 c 128,-1,2
 670 239 670 239 690 226.5 c 128,-1,3
 710 214 710 214 722 190 c 128,-1,4
 734 166 734 166 734 126 c 0,5,6
 734 82 734 82 722 57 c 128,-1,7
 710 32 710 32 690 20 c 128,-1,8
 670 8 670 8 644 5 c 128,-1,9
 618 2 618 2 590 2 c 2,10,-1
 384 2 l 2,11,12
 353 2 353 2 327 8.5 c 128,-1,13
 301 15 301 15 281.5 31.5 c 128,-1,14
 262 48 262 48 251 75.5 c 128,-1,15
 240 103 240 103 240 146 c 2,16,-1
 240 1256 l 2,17,18
 240 1327 240 1327 272.5 1365.5 c 128,-1,19
 305 1404 305 1404 386 1404 c 2,20,-1
 592 1404 l 2,21,22
 620 1404 620 1404 646 1400.5 c 128,-1,23
 672 1397 672 1397 692 1384.5 c 128,-1,24
 712 1372 712 1372 724 1348 c 128,-1,25
 736 1324 736 1324 736 1284 c 0,26,27
 736 1240 736 1240 724 1215 c 128,-1,28
 712 1190 712 1190 692 1178 c 128,-1,29
 672 1166 672 1166 646 1163 c 128,-1,30
 620 1160 620 1160 592 1160 c 2,31,-1
 484 1160 l 1,32,-1
 484 246 l 1,33,-1
 590 246 l 2,0,1
EndSplineSet
EndChar

StartChar: backslash
Encoding: 92 92 63
Width: 906
Flags: W
LayerCount: 2
Fore
SplineSet
222 1408 m 1,0,1
 241 1406 241 1406 256 1396.5 c 128,-1,2
 271 1387 271 1387 282 1373.5 c 128,-1,3
 293 1360 293 1360 301 1343 c 128,-1,4
 309 1326 309 1326 316 1310 c 2,5,-1
 804 168 l 2,6,7
 813 145 813 145 819.5 124 c 128,-1,8
 826 103 826 103 826 74 c 1,9,10
 823 50 823 50 805 28 c 128,-1,11
 787 6 787 6 746 -12 c 0,12,13
 715 -26 715 -26 690 -26 c 0,14,15
 667 -26 667 -26 649.5 -16.5 c 128,-1,16
 632 -7 632 -7 618.5 7.5 c 128,-1,17
 605 22 605 22 595 39.5 c 128,-1,18
 585 57 585 57 578 74 c 2,19,-1
 92 1214 l 2,20,21
 83 1234 83 1234 76.5 1257 c 128,-1,22
 70 1280 70 1280 70 1310 c 1,23,24
 73 1334 73 1334 90 1355.5 c 128,-1,25
 107 1377 107 1377 146 1394 c 0,26,27
 166 1402 166 1402 183.5 1405 c 128,-1,28
 201 1408 201 1408 222 1408 c 1,0,1
EndSplineSet
EndChar

StartChar: bracketright
Encoding: 93 93 64
Width: 836
Flags: W
LayerCount: 2
Fore
SplineSet
392 246 m 1,0,-1
 392 1160 l 1,1,-1
 284 1160 l 2,2,3
 256 1160 256 1160 230 1163 c 128,-1,4
 204 1166 204 1166 184 1178 c 128,-1,5
 164 1190 164 1190 152 1215 c 128,-1,6
 140 1240 140 1240 140 1284 c 0,7,8
 140 1324 140 1324 152 1348 c 128,-1,9
 164 1372 164 1372 184 1384.5 c 128,-1,10
 204 1397 204 1397 230 1400.5 c 128,-1,11
 256 1404 256 1404 284 1404 c 2,12,-1
 490 1404 l 2,13,14
 571 1404 571 1404 603.5 1365.5 c 128,-1,15
 636 1327 636 1327 636 1256 c 2,16,-1
 636 146 l 2,17,18
 636 103 636 103 625 75.5 c 128,-1,19
 614 48 614 48 594.5 31.5 c 128,-1,20
 575 15 575 15 549 8.5 c 128,-1,21
 523 2 523 2 492 2 c 2,22,-1
 286 2 l 2,23,24
 258 2 258 2 232 5 c 128,-1,25
 206 8 206 8 186 20 c 128,-1,26
 166 32 166 32 154 57 c 128,-1,27
 142 82 142 82 142 126 c 0,28,29
 142 166 142 166 154 190 c 128,-1,30
 166 214 166 214 186 226.5 c 128,-1,31
 206 239 206 239 232 242.5 c 128,-1,32
 258 246 258 246 286 246 c 2,33,-1
 392 246 l 1,0,-1
EndSplineSet
EndChar

StartChar: asciicircum
Encoding: 94 94 65
Width: 976
Flags: W
LayerCount: 2
Fore
SplineSet
754 942 m 2,0,1
 765 931 765 931 773.5 912.5 c 128,-1,2
 782 894 782 894 782 870 c 0,3,4
 782 844 782 844 770.5 825 c 128,-1,5
 759 806 759 806 744 792 c 0,6,7
 726 775 726 775 709 768.5 c 128,-1,8
 692 762 692 762 674 762 c 0,9,10
 650 762 650 762 626 769.5 c 128,-1,11
 602 777 602 777 588 794 c 1,12,-1
 478 898 l 1,13,-1
 368 794 l 1,14,15
 354 777 354 777 330 769.5 c 128,-1,16
 306 762 306 762 282 762 c 0,17,18
 264 762 264 762 247 768.5 c 128,-1,19
 230 775 230 775 212 792 c 0,20,21
 197 806 197 806 185.5 825 c 128,-1,22
 174 844 174 844 174 870 c 0,23,24
 174 894 174 894 182.5 912.5 c 128,-1,25
 191 931 191 931 202 942 c 2,26,-1
 392 1122 l 2,27,28
 407 1137 407 1137 425.5 1145.5 c 128,-1,29
 444 1154 444 1154 468 1156 c 1,30,-1
 488 1156 l 1,31,32
 533 1153 533 1153 564 1122 c 1,33,-1
 754 942 l 2,0,1
EndSplineSet
EndChar

StartChar: underscore
Encoding: 95 95 66
Width: 1408
Flags: W
LayerCount: 2
Fore
SplineSet
290 2 m 2,0,1
 262 2 262 2 236 5.5 c 128,-1,2
 210 9 210 9 190 21.5 c 128,-1,3
 170 34 170 34 158 57.5 c 128,-1,4
 146 81 146 81 146 122 c 0,5,6
 146 166 146 166 158 191 c 128,-1,7
 170 216 170 216 190 228 c 128,-1,8
 210 240 210 240 236 243 c 128,-1,9
 262 246 262 246 290 246 c 2,10,-1
 1110 246 l 2,11,12
 1135 246 1135 246 1161 243 c 128,-1,13
 1187 240 1187 240 1207.5 228 c 128,-1,14
 1228 216 1228 216 1241 191 c 128,-1,15
 1254 166 1254 166 1254 122 c 0,16,17
 1254 81 1254 81 1241 57.5 c 128,-1,18
 1228 34 1228 34 1207.5 21.5 c 128,-1,19
 1187 9 1187 9 1161 5.5 c 128,-1,20
 1135 2 1135 2 1110 2 c 2,21,-1
 346 2 l 1,22,-1
 290 2 l 2,0,1
EndSplineSet
EndChar

StartChar: grave
Encoding: 96 96 67
Width: 698
Flags: W
LayerCount: 2
Fore
SplineSet
534 1298 m 2,0,1
 548 1289 548 1289 563 1265.5 c 128,-1,2
 578 1242 578 1242 578 1212 c 0,3,4
 578 1198 578 1198 573 1181.5 c 128,-1,5
 568 1165 568 1165 556 1148 c 0,6,7
 536 1119 536 1119 512.5 1110.5 c 128,-1,8
 489 1102 489 1102 462 1102 c 0,9,10
 447 1102 447 1102 431.5 1105.5 c 128,-1,11
 416 1109 416 1109 402 1118 c 2,12,-1
 182 1252 l 1,13,14
 162 1266 162 1266 147 1288.5 c 128,-1,15
 132 1311 132 1311 132 1338 c 0,16,17
 132 1352 132 1352 137 1370 c 128,-1,18
 142 1388 142 1388 154 1406 c 0,19,20
 174 1435 174 1435 201 1443.5 c 128,-1,21
 228 1452 228 1452 254 1452 c 0,22,23
 283 1452 283 1452 310 1434 c 1,24,-1
 534 1298 l 2,0,1
EndSplineSet
EndChar

StartChar: a
Encoding: 97 97 68
Width: 1020
Flags: W
LayerCount: 2
Fore
SplineSet
912 226 m 2,0,1
 912 184 912 184 909 143.5 c 128,-1,2
 906 103 906 103 891 71 c 128,-1,3
 876 39 876 39 846 19.5 c 128,-1,4
 816 0 816 0 762 0 c 0,5,6
 707 0 707 0 676 18.5 c 128,-1,7
 645 37 645 37 630 63.5 c 128,-1,8
 615 90 615 90 611.5 119 c 128,-1,9
 608 148 608 148 608 168 c 1,10,11
 599 139 599 139 582.5 109 c 128,-1,12
 566 79 566 79 540 55 c 128,-1,13
 514 31 514 31 477.5 15.5 c 128,-1,14
 441 0 441 0 392 0 c 0,15,16
 337 0 337 0 282 18 c 128,-1,17
 227 36 227 36 183 78 c 128,-1,18
 139 120 139 120 111.5 187.5 c 128,-1,19
 84 255 84 255 84 354 c 2,20,-1
 84 644 l 2,21,22
 84 744 84 744 111.5 811.5 c 128,-1,23
 139 879 139 879 183 920.5 c 128,-1,24
 227 962 227 962 282 980 c 128,-1,25
 337 998 337 998 392 998 c 0,26,27
 441 998 441 998 477.5 983 c 128,-1,28
 514 968 514 968 540 944 c 128,-1,29
 566 920 566 920 582.5 890 c 128,-1,30
 599 860 599 860 608 830 c 1,31,32
 608 880 608 880 622 913 c 128,-1,33
 636 946 636 946 658 965.5 c 128,-1,34
 680 985 680 985 707.5 992.5 c 128,-1,35
 735 1000 735 1000 762 1000 c 0,36,37
 812 1000 812 1000 842 980.5 c 128,-1,38
 872 961 872 961 887.5 929.5 c 128,-1,39
 903 898 903 898 907.5 856.5 c 128,-1,40
 912 815 912 815 912 772 c 2,41,-1
 912 226 l 2,0,1
392 380 m 2,42,43
 392 353 392 353 394 327 c 128,-1,44
 396 301 396 301 405 280 c 128,-1,45
 414 259 414 259 431.5 246.5 c 128,-1,46
 449 234 449 234 480 234 c 0,47,48
 519 234 519 234 543.5 251.5 c 128,-1,49
 568 269 568 269 582 305.5 c 128,-1,50
 596 342 596 342 601.5 397.5 c 128,-1,51
 607 453 607 453 608 530 c 0,52,53
 608 561 608 561 602.5 601.5 c 128,-1,54
 597 642 597 642 583 678 c 128,-1,55
 569 714 569 714 544 739 c 128,-1,56
 519 764 519 764 480 764 c 0,57,58
 449 764 449 764 431.5 751.5 c 128,-1,59
 414 739 414 739 405 719 c 128,-1,60
 396 699 396 699 394 673.5 c 128,-1,61
 392 648 392 648 392 622 c 2,62,-1
 392 380 l 2,42,43
EndSplineSet
EndChar

StartChar: b
Encoding: 98 98 69
Width: 1042
Flags: W
LayerCount: 2
Fore
SplineSet
120 1172 m 2,0,1
 120 1215 120 1215 124.5 1256.5 c 128,-1,2
 129 1298 129 1298 144.5 1329.5 c 128,-1,3
 160 1361 160 1361 190 1380.5 c 128,-1,4
 220 1400 220 1400 270 1400 c 0,5,6
 322 1400 322 1400 353 1380.5 c 128,-1,7
 384 1361 384 1361 399.5 1329.5 c 128,-1,8
 415 1298 415 1298 419.5 1256.5 c 128,-1,9
 424 1215 424 1215 424 1172 c 2,10,-1
 424 830 l 1,11,12
 433 860 433 860 449.5 890 c 128,-1,13
 466 920 466 920 492 944 c 128,-1,14
 518 968 518 968 554.5 983 c 128,-1,15
 591 998 591 998 640 998 c 0,16,17
 695 998 695 998 750 980 c 128,-1,18
 805 962 805 962 849 920.5 c 128,-1,19
 893 879 893 879 920.5 811.5 c 128,-1,20
 948 744 948 744 948 644 c 2,21,-1
 948 354 l 2,22,23
 948 255 948 255 920.5 187.5 c 128,-1,24
 893 120 893 120 849 78 c 128,-1,25
 805 36 805 36 750 18 c 128,-1,26
 695 0 695 0 640 0 c 0,27,28
 591 0 591 0 554.5 15.5 c 128,-1,29
 518 31 518 31 492 55 c 128,-1,30
 466 79 466 79 449.5 109 c 128,-1,31
 433 139 433 139 424 168 c 1,32,33
 424 148 424 148 420.5 119 c 128,-1,34
 417 90 417 90 402 63.5 c 128,-1,35
 387 37 387 37 356 18.5 c 128,-1,36
 325 0 325 0 270 0 c 0,37,38
 216 0 216 0 186 19.5 c 128,-1,39
 156 39 156 39 141 71 c 128,-1,40
 126 103 126 103 123 143.5 c 128,-1,41
 120 184 120 184 120 226 c 2,42,-1
 120 1172 l 2,0,1
640 622 m 2,43,44
 640 648 640 648 638 673.5 c 128,-1,45
 636 699 636 699 627 719 c 128,-1,46
 618 739 618 739 600.5 751.5 c 128,-1,47
 583 764 583 764 552 764 c 0,48,49
 513 764 513 764 488 739 c 128,-1,50
 463 714 463 714 449 678 c 128,-1,51
 435 642 435 642 429.5 601.5 c 128,-1,52
 424 561 424 561 424 530 c 0,53,54
 425 453 425 453 430.5 397.5 c 128,-1,55
 436 342 436 342 450 305.5 c 128,-1,56
 464 269 464 269 488.5 251.5 c 128,-1,57
 513 234 513 234 552 234 c 0,58,59
 583 234 583 234 600.5 246.5 c 128,-1,60
 618 259 618 259 627 280 c 128,-1,61
 636 301 636 301 638 327 c 128,-1,62
 640 353 640 353 640 380 c 2,63,-1
 640 622 l 2,43,44
EndSplineSet
EndChar

StartChar: c
Encoding: 99 99 70
Width: 1000
Flags: W
LayerCount: 2
Fore
SplineSet
388 346 m 2,0,1
 388 330 388 330 391 305.5 c 128,-1,2
 394 281 394 281 405 257.5 c 128,-1,3
 416 234 416 234 437.5 217 c 128,-1,4
 459 200 459 200 496 200 c 0,5,6
 540 200 540 200 565 210 c 128,-1,7
 590 220 590 220 602 237.5 c 128,-1,8
 614 255 614 255 617 278.5 c 128,-1,9
 620 302 620 302 620 328 c 0,10,11
 620 341 620 341 624.5 357.5 c 128,-1,12
 629 374 629 374 646 388.5 c 128,-1,13
 663 403 663 403 696.5 412.5 c 128,-1,14
 730 422 730 422 788 422 c 0,15,16
 841 422 841 422 870 410 c 128,-1,17
 899 398 899 398 912.5 381.5 c 128,-1,18
 926 365 926 365 928 347.5 c 128,-1,19
 930 330 930 330 930 320 c 0,20,21
 930 256 930 256 910.5 207.5 c 128,-1,22
 891 159 891 159 858 123.5 c 128,-1,23
 825 88 825 88 782 64 c 128,-1,24
 739 40 739 40 690.5 26 c 128,-1,25
 642 12 642 12 592 6 c 128,-1,26
 542 0 542 0 496 0 c 0,27,28
 417 0 417 0 343 21 c 128,-1,29
 269 42 269 42 211.5 87 c 128,-1,30
 154 132 154 132 119 202.5 c 128,-1,31
 84 273 84 273 84 372 c 2,32,-1
 84 606 l 2,33,34
 84 701 84 701 106.5 767 c 128,-1,35
 129 833 129 833 165 877 c 128,-1,36
 201 921 201 921 246 945.5 c 128,-1,37
 291 970 291 970 337 982 c 128,-1,38
 383 994 383 994 424.5 997 c 128,-1,39
 466 1000 466 1000 496 1000 c 0,40,41
 585 1000 585 1000 651.5 985 c 128,-1,42
 718 970 718 970 766 945 c 128,-1,43
 814 920 814 920 845.5 887.5 c 128,-1,44
 877 855 877 855 895 819 c 128,-1,45
 913 783 913 783 920.5 747 c 128,-1,46
 928 711 928 711 928 680 c 0,47,48
 928 664 928 664 926 642.5 c 128,-1,49
 924 621 924 621 910.5 601.5 c 128,-1,50
 897 582 897 582 868 568 c 128,-1,51
 839 554 839 554 786 554 c 0,52,53
 767 554 767 554 738.5 555.5 c 128,-1,54
 710 557 710 557 683 566 c 128,-1,55
 656 575 656 575 637 594 c 128,-1,56
 618 613 618 613 618 648 c 0,57,58
 618 672 618 672 615.5 694.5 c 128,-1,59
 613 717 613 717 601 734 c 128,-1,60
 589 751 589 751 564.5 761.5 c 128,-1,61
 540 772 540 772 496 772 c 0,62,63
 459 772 459 772 437.5 760 c 128,-1,64
 416 748 416 748 405 730 c 128,-1,65
 394 712 394 712 391 692 c 128,-1,66
 388 672 388 672 388 656 c 2,67,-1
 388 346 l 2,0,1
EndSplineSet
EndChar

StartChar: d
Encoding: 100 100 71
Width: 1020
Flags: W
LayerCount: 2
Fore
SplineSet
910 226 m 2,0,1
 910 184 910 184 907 143.5 c 128,-1,2
 904 103 904 103 889 71 c 128,-1,3
 874 39 874 39 844 19.5 c 128,-1,4
 814 0 814 0 760 0 c 0,5,6
 705 0 705 0 674 18.5 c 128,-1,7
 643 37 643 37 628 63.5 c 128,-1,8
 613 90 613 90 609.5 119 c 128,-1,9
 606 148 606 148 606 168 c 1,10,11
 597 139 597 139 580.5 109 c 128,-1,12
 564 79 564 79 538 55 c 128,-1,13
 512 31 512 31 475.5 15.5 c 128,-1,14
 439 0 439 0 390 0 c 0,15,16
 335 0 335 0 280 18 c 128,-1,17
 225 36 225 36 181 78 c 128,-1,18
 137 120 137 120 109.5 187.5 c 128,-1,19
 82 255 82 255 82 354 c 2,20,-1
 82 644 l 2,21,22
 82 744 82 744 109.5 811.5 c 128,-1,23
 137 879 137 879 181 920.5 c 128,-1,24
 225 962 225 962 280 980 c 128,-1,25
 335 998 335 998 390 998 c 0,26,27
 439 998 439 998 475.5 983 c 128,-1,28
 512 968 512 968 538 944 c 128,-1,29
 564 920 564 920 580.5 890 c 128,-1,30
 597 860 597 860 606 830 c 1,31,-1
 606 1172 l 2,32,33
 606 1215 606 1215 610.5 1256.5 c 128,-1,34
 615 1298 615 1298 630.5 1329.5 c 128,-1,35
 646 1361 646 1361 676.5 1380.5 c 128,-1,36
 707 1400 707 1400 760 1400 c 0,37,38
 810 1400 810 1400 840 1380.5 c 128,-1,39
 870 1361 870 1361 885.5 1329.5 c 128,-1,40
 901 1298 901 1298 905.5 1256.5 c 128,-1,41
 910 1215 910 1215 910 1172 c 2,42,-1
 910 226 l 2,0,1
390 380 m 2,43,44
 390 353 390 353 392 327 c 128,-1,45
 394 301 394 301 403 280 c 128,-1,46
 412 259 412 259 429.5 246.5 c 128,-1,47
 447 234 447 234 478 234 c 0,48,49
 517 234 517 234 541.5 251.5 c 128,-1,50
 566 269 566 269 580 305.5 c 128,-1,51
 594 342 594 342 599.5 397.5 c 128,-1,52
 605 453 605 453 606 530 c 0,53,54
 606 561 606 561 600.5 601.5 c 128,-1,55
 595 642 595 642 581 678 c 128,-1,56
 567 714 567 714 542 739 c 128,-1,57
 517 764 517 764 478 764 c 0,58,59
 447 764 447 764 429.5 751.5 c 128,-1,60
 412 739 412 739 403 719 c 128,-1,61
 394 699 394 699 392 673.5 c 128,-1,62
 390 648 390 648 390 622 c 2,63,-1
 390 380 l 2,43,44
EndSplineSet
EndChar

StartChar: e
Encoding: 101 101 72
Width: 1020
Flags: W
LayerCount: 2
Fore
SplineSet
936 570 m 2,0,1
 936 554 936 554 934 532.5 c 128,-1,2
 932 511 932 511 918.5 491.5 c 128,-1,3
 905 472 905 472 876 458 c 128,-1,4
 847 444 847 444 794 444 c 2,5,-1
 396 444 l 1,6,-1
 396 348 l 2,7,8
 396 324 396 324 402 298 c 128,-1,9
 408 272 408 272 422.5 250 c 128,-1,10
 437 228 437 228 461 214 c 128,-1,11
 485 200 485 200 520 200 c 0,12,13
 560 200 560 200 581.5 209.5 c 128,-1,14
 603 219 603 219 615.5 233 c 128,-1,15
 628 247 628 247 638 263 c 128,-1,16
 648 279 648 279 664.5 293 c 128,-1,17
 681 307 681 307 710.5 316.5 c 128,-1,18
 740 326 740 326 792 326 c 0,19,20
 817 326 817 326 840.5 322 c 128,-1,21
 864 318 864 318 882 307 c 128,-1,22
 900 296 900 296 911 276.5 c 128,-1,23
 922 257 922 257 922 226 c 0,24,25
 922 161 922 161 881 117.5 c 128,-1,26
 840 74 840 74 778 48 c 128,-1,27
 716 22 716 22 643.5 11 c 128,-1,28
 571 0 571 0 508 0 c 0,29,30
 425 1 425 1 350 21 c 128,-1,31
 275 41 275 41 217.5 85 c 128,-1,32
 160 129 160 129 126 200 c 128,-1,33
 92 271 92 271 92 374 c 2,34,-1
 92 608 l 2,35,36
 92 703 92 703 114.5 769 c 128,-1,37
 137 835 137 835 173 879 c 128,-1,38
 209 923 209 923 254 947.5 c 128,-1,39
 299 972 299 972 345 984 c 128,-1,40
 391 996 391 996 432.5 999 c 128,-1,41
 474 1002 474 1002 504 1002 c 0,42,43
 605 1002 605 1002 676.5 984 c 128,-1,44
 748 966 748 966 796 937 c 128,-1,45
 844 908 844 908 872 870 c 128,-1,46
 900 832 900 832 914 791.5 c 128,-1,47
 928 751 928 751 932 709.5 c 128,-1,48
 936 668 936 668 936 632 c 2,49,-1
 936 570 l 2,0,1
396 594 m 1,50,-1
 646 594 l 1,51,52
 646 641 646 641 643.5 677.5 c 128,-1,53
 641 714 641 714 628.5 739 c 128,-1,54
 616 764 616 764 589.5 777 c 128,-1,55
 563 790 563 790 514 790 c 0,56,57
 473 790 473 790 449.5 777 c 128,-1,58
 426 764 426 764 414 744.5 c 128,-1,59
 402 725 402 725 399 703 c 128,-1,60
 396 681 396 681 396 664 c 2,61,-1
 396 594 l 1,50,-1
EndSplineSet
EndChar

StartChar: f
Encoding: 102 102 73
Width: 750
Flags: W
LayerCount: 2
Fore
SplineSet
564 1000 m 2,0,1
 589 1000 589 1000 615 997 c 128,-1,2
 641 994 641 994 661.5 982 c 128,-1,3
 682 970 682 970 695 945 c 128,-1,4
 708 920 708 920 708 876 c 0,5,6
 708 835 708 835 695 811.5 c 128,-1,7
 682 788 682 788 661.5 775.5 c 128,-1,8
 641 763 641 763 615 759.5 c 128,-1,9
 589 756 589 756 564 756 c 2,10,-1
 504 756 l 1,11,-1
 504 226 l 2,12,13
 504 182 504 182 499.5 141.5 c 128,-1,14
 495 101 495 101 478.5 69.5 c 128,-1,15
 462 38 462 38 430.5 19 c 128,-1,16
 399 0 399 0 346 0 c 0,17,18
 295 0 295 0 265.5 19 c 128,-1,19
 236 38 236 38 221 69.5 c 128,-1,20
 206 101 206 101 202 141.5 c 128,-1,21
 198 182 198 182 198 226 c 2,22,-1
 198 756 l 1,23,-1
 142 756 l 2,24,25
 114 756 114 756 88.5 759.5 c 128,-1,26
 63 763 63 763 43.5 775.5 c 128,-1,27
 24 788 24 788 12 811.5 c 128,-1,28
 0 835 0 835 0 876 c 0,29,30
 0 920 0 920 12 945 c 128,-1,31
 24 970 24 970 43.5 982 c 128,-1,32
 63 994 63 994 88.5 997 c 128,-1,33
 114 1000 114 1000 142 1000 c 2,34,-1
 198 1000 l 1,35,36
 198 1088 198 1088 206 1162 c 128,-1,37
 214 1236 214 1236 245 1288.5 c 128,-1,38
 276 1341 276 1341 337 1370.5 c 128,-1,39
 398 1400 398 1400 504 1400 c 0,40,41
 549 1400 549 1400 589 1392 c 128,-1,42
 629 1384 629 1384 659 1367 c 128,-1,43
 689 1350 689 1350 706.5 1322.5 c 128,-1,44
 724 1295 724 1295 724 1256 c 0,45,46
 724 1220 724 1220 711.5 1196 c 128,-1,47
 699 1172 699 1172 681 1157 c 128,-1,48
 663 1142 663 1142 641.5 1136 c 128,-1,49
 620 1130 620 1130 602 1130 c 0,50,51
 587 1130 587 1130 574 1137 c 128,-1,52
 561 1144 561 1144 544 1144 c 0,53,54
 530 1144 530 1144 522.5 1135 c 128,-1,55
 515 1126 515 1126 510.5 1111 c 128,-1,56
 506 1096 506 1096 505 1078 c 128,-1,57
 504 1060 504 1060 504 1042 c 2,58,-1
 504 1000 l 1,59,-1
 564 1000 l 2,0,1
EndSplineSet
EndChar

StartChar: g
Encoding: 103 103 74
Width: 1042
Flags: W
LayerCount: 2
Fore
SplineSet
922 -30 m 2,0,1
 922 -120 922 -120 897.5 -182 c 128,-1,2
 873 -244 873 -244 835 -285 c 128,-1,3
 797 -326 797 -326 750.5 -349 c 128,-1,4
 704 -372 704 -372 659.5 -383.5 c 128,-1,5
 615 -395 615 -395 578 -397.5 c 128,-1,6
 541 -400 541 -400 522 -400 c 0,7,8
 451 -400 451 -400 380 -390 c 128,-1,9
 309 -380 309 -380 250.5 -353 c 128,-1,10
 192 -326 192 -326 153.5 -280 c 128,-1,11
 115 -234 115 -234 110 -162 c 0,12,13
 110 -150 110 -150 114 -135 c 128,-1,14
 118 -120 118 -120 132 -106.5 c 128,-1,15
 146 -93 146 -93 174 -83.5 c 128,-1,16
 202 -74 202 -74 250 -74 c 0,17,18
 308 -74 308 -74 339 -83.5 c 128,-1,19
 370 -93 370 -93 385 -106.5 c 128,-1,20
 400 -120 400 -120 404.5 -135.5 c 128,-1,21
 409 -151 409 -151 414 -164 c 0,22,23
 422 -185 422 -185 445.5 -193.5 c 128,-1,24
 469 -202 469 -202 510 -202 c 0,25,26
 547 -202 547 -202 568.5 -185 c 128,-1,27
 590 -168 590 -168 601 -144.5 c 128,-1,28
 612 -121 612 -121 615 -96.5 c 128,-1,29
 618 -72 618 -72 618 -56 c 2,30,-1
 618 168 l 1,31,32
 609 138 609 138 592.5 108 c 128,-1,33
 576 78 576 78 550 54 c 128,-1,34
 524 30 524 30 487.5 15 c 128,-1,35
 451 0 451 0 402 0 c 0,36,37
 347 0 347 0 292 18 c 128,-1,38
 237 36 237 36 192.5 77.5 c 128,-1,39
 148 119 148 119 120 187 c 128,-1,40
 92 255 92 255 92 356 c 2,41,-1
 92 646 l 2,42,43
 92 745 92 745 120 812.5 c 128,-1,44
 148 880 148 880 192.5 922 c 128,-1,45
 237 964 237 964 292 982 c 128,-1,46
 347 1000 347 1000 402 1000 c 0,47,48
 451 1000 451 1000 487.5 984.5 c 128,-1,49
 524 969 524 969 550 945 c 128,-1,50
 576 921 576 921 592.5 891 c 128,-1,51
 609 861 609 861 618 832 c 1,52,53
 618 852 618 852 621.5 881 c 128,-1,54
 625 910 625 910 640 936.5 c 128,-1,55
 655 963 655 963 686 981.5 c 128,-1,56
 717 1000 717 1000 772 1000 c 0,57,58
 826 1000 826 1000 856 980.5 c 128,-1,59
 886 961 886 961 901 929 c 128,-1,60
 916 897 916 897 919 856.5 c 128,-1,61
 922 816 922 816 922 774 c 2,62,-1
 922 -30 l 2,0,1
402 378 m 2,63,64
 402 352 402 352 404 326 c 128,-1,65
 406 300 406 300 415 279.5 c 128,-1,66
 424 259 424 259 441.5 246.5 c 128,-1,67
 459 234 459 234 490 234 c 0,68,69
 529 234 529 234 554 259 c 128,-1,70
 579 284 579 284 593 320.5 c 128,-1,71
 607 357 607 357 612.5 397.5 c 128,-1,72
 618 438 618 438 618 470 c 0,73,74
 617 546 617 546 611.5 602 c 128,-1,75
 606 658 606 658 592 694.5 c 128,-1,76
 578 731 578 731 553.5 748.5 c 128,-1,77
 529 766 529 766 490 766 c 0,78,79
 459 766 459 766 441.5 753.5 c 128,-1,80
 424 741 424 741 415 720 c 128,-1,81
 406 699 406 699 404 673 c 128,-1,82
 402 647 402 647 402 620 c 2,83,-1
 402 378 l 2,63,64
EndSplineSet
EndChar

StartChar: h
Encoding: 104 104 75
Width: 1042
Flags: W
LayerCount: 2
Fore
SplineSet
956 226 m 2,0,1
 956 184 956 184 951.5 143.5 c 128,-1,2
 947 103 947 103 931.5 71 c 128,-1,3
 916 39 916 39 886 19.5 c 128,-1,4
 856 0 856 0 804 0 c 256,5,6
 752 0 752 0 721.5 19.5 c 128,-1,7
 691 39 691 39 674.5 71 c 128,-1,8
 658 103 658 103 653 143.5 c 128,-1,9
 648 184 648 184 648 226 c 2,10,-1
 648 620 l 2,11,12
 648 646 648 646 646 671.5 c 128,-1,13
 644 697 644 697 635 717 c 128,-1,14
 626 737 626 737 608.5 749.5 c 128,-1,15
 591 762 591 762 560 762 c 0,16,17
 520 762 520 762 495 735.5 c 128,-1,18
 470 709 470 709 455.5 662.5 c 128,-1,19
 441 616 441 616 435.5 552.5 c 128,-1,20
 430 489 430 489 430 416 c 2,21,-1
 430 226 l 2,22,23
 430 184 430 184 425.5 143.5 c 128,-1,24
 421 103 421 103 405 71 c 128,-1,25
 389 39 389 39 358 19.5 c 128,-1,26
 327 0 327 0 274 0 c 0,27,28
 222 0 222 0 192 19.5 c 128,-1,29
 162 39 162 39 146.5 71 c 128,-1,30
 131 103 131 103 126.5 143.5 c 128,-1,31
 122 184 122 184 122 226 c 2,32,-1
 122 1174 l 2,33,34
 122 1216 122 1216 126.5 1256.5 c 128,-1,35
 131 1297 131 1297 146.5 1329 c 128,-1,36
 162 1361 162 1361 192 1380.5 c 128,-1,37
 222 1400 222 1400 274 1400 c 0,38,39
 327 1400 327 1400 358 1380.5 c 128,-1,40
 389 1361 389 1361 405 1329 c 128,-1,41
 421 1297 421 1297 425.5 1256.5 c 128,-1,42
 430 1216 430 1216 430 1174 c 2,43,-1
 430 832 l 1,44,45
 439 861 439 861 456 891 c 128,-1,46
 473 921 473 921 500 945 c 128,-1,47
 527 969 527 969 563.5 984.5 c 128,-1,48
 600 1000 600 1000 648 1000 c 0,49,50
 703 1000 703 1000 758.5 981.5 c 128,-1,51
 814 963 814 963 857.5 921 c 128,-1,52
 901 879 901 879 928.5 810.5 c 128,-1,53
 956 742 956 742 956 642 c 2,54,-1
 956 226 l 2,0,1
EndSplineSet
EndChar

StartChar: i
Encoding: 105 105 76
Width: 626
Flags: W
LayerCount: 2
Fore
SplineSet
154 776 m 2,0,1
 154 818 154 818 158.5 858 c 128,-1,2
 163 898 163 898 179 929.5 c 128,-1,3
 195 961 195 961 225 980.5 c 128,-1,4
 255 1000 255 1000 306 1000 c 256,5,6
 357 1000 357 1000 387 980.5 c 128,-1,7
 417 961 417 961 433 929.5 c 128,-1,8
 449 898 449 898 453.5 858 c 128,-1,9
 458 818 458 818 458 776 c 2,10,-1
 458 224 l 2,11,12
 458 182 458 182 453.5 141.5 c 128,-1,13
 449 101 449 101 433 69.5 c 128,-1,14
 417 38 417 38 387 19 c 128,-1,15
 357 0 357 0 306 0 c 256,16,17
 255 0 255 0 225 19 c 128,-1,18
 195 38 195 38 179 69.5 c 128,-1,19
 163 101 163 101 158.5 141.5 c 128,-1,20
 154 182 154 182 154 224 c 2,21,-1
 154 776 l 2,0,1
460 1248 m 0,22,23
 460 1171 460 1171 420 1133.5 c 128,-1,24
 380 1096 380 1096 308 1096 c 256,25,26
 236 1096 236 1096 196 1133.5 c 128,-1,27
 156 1171 156 1171 156 1248 c 0,28,29
 156 1328 156 1328 196 1364 c 128,-1,30
 236 1400 236 1400 308 1400 c 0,31,32
 385 1400 385 1400 422.5 1364 c 128,-1,33
 460 1328 460 1328 460 1248 c 0,22,23
EndSplineSet
EndChar

StartChar: j
Encoding: 106 106 77
Width: 626
Flags: W
LayerCount: 2
Fore
SplineSet
176 776 m 2,0,1
 176 819 176 819 180.5 859.5 c 128,-1,2
 185 900 185 900 201 931.5 c 128,-1,3
 217 963 217 963 247.5 981.5 c 128,-1,4
 278 1000 278 1000 330 1000 c 0,5,6
 380 1000 380 1000 410 981.5 c 128,-1,7
 440 963 440 963 455.5 931.5 c 128,-1,8
 471 900 471 900 475.5 859.5 c 128,-1,9
 480 819 480 819 480 776 c 2,10,-1
 480 30 l 2,11,12
 480 -63 480 -63 473 -142 c 128,-1,13
 466 -221 466 -221 436 -278 c 128,-1,14
 406 -335 406 -335 345 -367.5 c 128,-1,15
 284 -400 284 -400 176 -400 c 0,16,17
 132 -400 132 -400 92 -391 c 128,-1,18
 52 -382 52 -382 22 -363 c 128,-1,19
 -8 -344 -8 -344 -26 -315 c 128,-1,20
 -44 -286 -44 -286 -44 -246 c 0,21,22
 -44 -209 -44 -209 -36.5 -185 c 128,-1,23
 -29 -161 -29 -161 -12.5 -146.5 c 128,-1,24
 4 -132 4 -132 29.5 -126 c 128,-1,25
 55 -120 55 -120 92 -120 c 0,26,27
 123 -120 123 -120 140 -107.5 c 128,-1,28
 157 -95 157 -95 165 -74 c 128,-1,29
 173 -53 173 -53 174.5 -26 c 128,-1,30
 176 1 176 1 176 30 c 2,31,-1
 176 776 l 2,0,1
480 1250 m 0,32,33
 480 1175 480 1175 440.5 1137.5 c 128,-1,34
 401 1100 401 1100 330 1100 c 0,35,36
 258 1100 258 1100 217 1137.5 c 128,-1,37
 176 1175 176 1175 176 1250 c 0,38,39
 176 1328 176 1328 217 1365 c 128,-1,40
 258 1402 258 1402 330 1402 c 0,41,42
 407 1402 407 1402 443.5 1365 c 128,-1,43
 480 1328 480 1328 480 1250 c 0,32,33
EndSplineSet
EndChar

StartChar: k
Encoding: 107 107 78
Width: 1014
Flags: W
LayerCount: 2
Fore
SplineSet
150 1178 m 2,0,1
 150 1220 150 1220 153 1260 c 128,-1,2
 156 1300 156 1300 170 1331 c 128,-1,3
 184 1362 184 1362 212.5 1381 c 128,-1,4
 241 1400 241 1400 292 1400 c 0,5,6
 344 1400 344 1400 372.5 1381 c 128,-1,7
 401 1362 401 1362 414.5 1331 c 128,-1,8
 428 1300 428 1300 431 1260 c 128,-1,9
 434 1220 434 1220 434 1178 c 2,10,-1
 434 784 l 1,11,-1
 450 784 l 1,12,-1
 656 1026 l 2,13,14
 674 1047 674 1047 698 1056.5 c 128,-1,15
 722 1066 722 1066 748 1066 c 0,16,17
 773 1066 773 1066 798.5 1056.5 c 128,-1,18
 824 1047 824 1047 843.5 1029.5 c 128,-1,19
 863 1012 863 1012 875.5 987.5 c 128,-1,20
 888 963 888 963 888 932 c 0,21,22
 888 892 888 892 860 858 c 2,23,-1
 680 646 l 1,24,-1
 876 272 l 2,25,26
 894 236 894 236 907 199.5 c 128,-1,27
 920 163 920 163 920 130 c 0,28,29
 920 98 920 98 906 73 c 128,-1,30
 892 48 892 48 869.5 31.5 c 128,-1,31
 847 15 847 15 819.5 6.5 c 128,-1,32
 792 -2 792 -2 766 -2 c 0,33,34
 733 -2 733 -2 707 14 c 128,-1,35
 681 30 681 30 661.5 53.5 c 128,-1,36
 642 77 642 77 627 104 c 128,-1,37
 612 131 612 131 602 154 c 2,38,-1
 490 392 l 1,39,-1
 434 392 l 1,40,-1
 434 224 l 2,41,42
 434 182 434 182 431 141.5 c 128,-1,43
 428 101 428 101 414.5 69.5 c 128,-1,44
 401 38 401 38 372.5 19 c 128,-1,45
 344 0 344 0 292 0 c 0,46,47
 241 0 241 0 212.5 19 c 128,-1,48
 184 38 184 38 170 69.5 c 128,-1,49
 156 101 156 101 153 141.5 c 128,-1,50
 150 182 150 182 150 224 c 2,51,-1
 150 1178 l 2,0,1
EndSplineSet
EndChar

StartChar: l
Encoding: 108 108 79
Width: 586
Flags: W
LayerCount: 2
Fore
SplineSet
140 1178 m 2,0,1
 140 1220 140 1220 144.5 1260 c 128,-1,2
 149 1300 149 1300 165 1331 c 128,-1,3
 181 1362 181 1362 211 1381 c 128,-1,4
 241 1400 241 1400 292 1400 c 0,5,6
 344 1400 344 1400 374 1381 c 128,-1,7
 404 1362 404 1362 419.5 1331 c 128,-1,8
 435 1300 435 1300 439.5 1260 c 128,-1,9
 444 1220 444 1220 444 1178 c 2,10,-1
 444 224 l 2,11,12
 444 182 444 182 439.5 141.5 c 128,-1,13
 435 101 435 101 419.5 69.5 c 128,-1,14
 404 38 404 38 374 19 c 128,-1,15
 344 0 344 0 292 0 c 0,16,17
 241 0 241 0 211 19 c 128,-1,18
 181 38 181 38 165 69.5 c 128,-1,19
 149 101 149 101 144.5 141.5 c 128,-1,20
 140 182 140 182 140 224 c 2,21,-1
 140 1178 l 2,0,1
EndSplineSet
EndChar

StartChar: m
Encoding: 109 109 80
Width: 1604
Flags: W
LayerCount: 2
Fore
SplineSet
808 0 m 0,0,1
 757 0 757 0 727 19.5 c 128,-1,2
 697 39 697 39 681 71 c 128,-1,3
 665 103 665 103 660.5 143.5 c 128,-1,4
 656 184 656 184 656 226 c 2,5,-1
 656 622 l 2,6,7
 656 649 656 649 653.5 675 c 128,-1,8
 651 701 651 701 642 721 c 128,-1,9
 633 741 633 741 615.5 753.5 c 128,-1,10
 598 766 598 766 568 766 c 0,11,12
 528 766 528 766 503 739 c 128,-1,13
 478 712 478 712 463.5 665.5 c 128,-1,14
 449 619 449 619 443.5 556 c 128,-1,15
 438 493 438 493 438 420 c 2,16,-1
 438 226 l 2,17,18
 438 184 438 184 433.5 143.5 c 128,-1,19
 429 103 429 103 413.5 71 c 128,-1,20
 398 39 398 39 368 19.5 c 128,-1,21
 338 0 338 0 286 0 c 256,22,23
 234 0 234 0 204 19.5 c 128,-1,24
 174 39 174 39 158.5 71 c 128,-1,25
 143 103 143 103 138.5 143.5 c 128,-1,26
 134 184 134 184 134 226 c 2,27,-1
 134 774 l 2,28,29
 134 816 134 816 137.5 856.5 c 128,-1,30
 141 897 141 897 156 929 c 128,-1,31
 171 961 171 961 201.5 980.5 c 128,-1,32
 232 1000 232 1000 286 1000 c 0,33,34
 341 1000 341 1000 371.5 981.5 c 128,-1,35
 402 963 402 963 417 936.5 c 128,-1,36
 432 910 432 910 435 881 c 128,-1,37
 438 852 438 852 438 832 c 1,38,39
 447 861 447 861 466.5 891 c 128,-1,40
 486 921 486 921 516 945 c 128,-1,41
 546 969 546 969 585 984.5 c 128,-1,42
 624 1000 624 1000 672 1000 c 0,43,44
 738 1000 738 1000 800 968 c 128,-1,45
 862 936 862 936 906 864 c 1,46,47
 921 898 921 898 950 923.5 c 128,-1,48
 979 949 979 949 1016 966 c 128,-1,49
 1053 983 1053 983 1095 991.5 c 128,-1,50
 1137 1000 1137 1000 1178 1000 c 0,51,52
 1233 1000 1233 1000 1288 982 c 128,-1,53
 1343 964 1343 964 1387 922 c 128,-1,54
 1431 880 1431 880 1458.5 812.5 c 128,-1,55
 1486 745 1486 745 1486 646 c 2,56,-1
 1486 226 l 2,57,58
 1486 184 1486 184 1481 143.5 c 128,-1,59
 1476 103 1476 103 1460 71 c 128,-1,60
 1444 39 1444 39 1413.5 19.5 c 128,-1,61
 1383 0 1383 0 1332 0 c 0,62,63
 1280 0 1280 0 1249.5 19.5 c 128,-1,64
 1219 39 1219 39 1203 71 c 128,-1,65
 1187 103 1187 103 1182.5 143.5 c 128,-1,66
 1178 184 1178 184 1178 226 c 2,67,-1
 1178 622 l 2,68,69
 1178 649 1178 649 1175 675 c 128,-1,70
 1172 701 1172 701 1163 721 c 128,-1,71
 1154 741 1154 741 1136 753.5 c 128,-1,72
 1118 766 1118 766 1088 766 c 0,73,74
 1056 766 1056 766 1033.5 746 c 128,-1,75
 1011 726 1011 726 996 691 c 128,-1,76
 981 656 981 656 973 607.5 c 128,-1,77
 965 559 965 559 962 502 c 1,78,-1
 962 226 l 2,79,80
 962 184 962 184 957.5 143.5 c 128,-1,81
 953 103 953 103 937 71 c 128,-1,82
 921 39 921 39 890.5 19.5 c 128,-1,83
 860 0 860 0 808 0 c 0,0,1
EndSplineSet
EndChar

StartChar: n
Encoding: 110 110 81
Width: 1082
Flags: W
LayerCount: 2
Fore
SplineSet
966 228 m 2,0,1
 966 185 966 185 961 144 c 128,-1,2
 956 103 956 103 939.5 71 c 128,-1,3
 923 39 923 39 892.5 19.5 c 128,-1,4
 862 0 862 0 810 0 c 0,5,6
 759 0 759 0 729 19.5 c 128,-1,7
 699 39 699 39 683 71 c 128,-1,8
 667 103 667 103 662.5 144 c 128,-1,9
 658 185 658 185 658 228 c 2,10,-1
 658 618 l 2,11,12
 658 646 658 646 655.5 673 c 128,-1,13
 653 700 653 700 644 720.5 c 128,-1,14
 635 741 635 741 617.5 753.5 c 128,-1,15
 600 766 600 766 570 766 c 0,16,17
 529 766 529 766 504 739 c 128,-1,18
 479 712 479 712 464.5 665 c 128,-1,19
 450 618 450 618 445 554.5 c 128,-1,20
 440 491 440 491 440 418 c 2,21,-1
 440 228 l 2,22,23
 440 185 440 185 435 144 c 128,-1,24
 430 103 430 103 413.5 71 c 128,-1,25
 397 39 397 39 366.5 19.5 c 128,-1,26
 336 0 336 0 284 0 c 0,27,28
 233 0 233 0 203 19.5 c 128,-1,29
 173 39 173 39 157 71 c 128,-1,30
 141 103 141 103 136.5 144 c 128,-1,31
 132 185 132 185 132 228 c 2,32,-1
 132 774 l 2,33,34
 132 817 132 817 135 857.5 c 128,-1,35
 138 898 138 898 153 929.5 c 128,-1,36
 168 961 168 961 198.5 980.5 c 128,-1,37
 229 1000 229 1000 284 1000 c 256,38,39
 339 1000 339 1000 370 981.5 c 128,-1,40
 401 963 401 963 416.5 937 c 128,-1,41
 432 911 432 911 436 882 c 128,-1,42
 440 853 440 853 440 832 c 1,43,44
 448 861 448 861 465 891 c 128,-1,45
 482 921 482 921 508.5 945 c 128,-1,46
 535 969 535 969 572 984.5 c 128,-1,47
 609 1000 609 1000 658 1000 c 0,48,49
 713 1000 713 1000 768 982 c 128,-1,50
 823 964 823 964 867 922 c 128,-1,51
 911 880 911 880 938.5 812 c 128,-1,52
 966 744 966 744 966 644 c 2,53,-1
 966 228 l 2,0,1
EndSplineSet
EndChar

StartChar: o
Encoding: 111 111 82
Width: 990
Flags: W
LayerCount: 2
Fore
SplineSet
78 624 m 2,0,1
 78 716 78 716 103 780 c 128,-1,2
 128 844 128 844 167.5 887 c 128,-1,3
 207 930 207 930 255.5 954 c 128,-1,4
 304 978 304 978 351 990 c 128,-1,5
 398 1002 398 1002 438.5 1005 c 128,-1,6
 479 1008 479 1008 502 1008 c 256,7,8
 525 1008 525 1008 565 1005 c 128,-1,9
 605 1002 605 1002 650.5 990 c 128,-1,10
 696 978 696 978 742.5 954 c 128,-1,11
 789 930 789 930 826.5 887 c 128,-1,12
 864 844 864 844 888 780 c 128,-1,13
 912 716 912 716 912 624 c 2,14,-1
 912 376 l 2,15,16
 912 284 912 284 888 220 c 128,-1,17
 864 156 864 156 826.5 113 c 128,-1,18
 789 70 789 70 742.5 46 c 128,-1,19
 696 22 696 22 650.5 10 c 128,-1,20
 605 -2 605 -2 565 -5 c 128,-1,21
 525 -8 525 -8 502 -8 c 256,22,23
 479 -8 479 -8 438.5 -5 c 128,-1,24
 398 -2 398 -2 351 10 c 128,-1,25
 304 22 304 22 255.5 46 c 128,-1,26
 207 70 207 70 167.5 113 c 128,-1,27
 128 156 128 156 103 220 c 128,-1,28
 78 284 78 284 78 376 c 2,29,-1
 78 624 l 2,0,1
386 306 m 1,30,31
 387 277 387 277 400 255 c 0,32,33
 411 235 411 235 434.5 219.5 c 128,-1,34
 458 204 458 204 502 204 c 0,35,36
 544 204 544 204 566.5 219.5 c 128,-1,37
 589 235 589 235 600 255 c 0,38,39
 612 277 612 277 614 306 c 1,40,-1
 614 668 l 1,41,42
 612 698 612 698 600 723 c 1,43,44
 589 743 589 743 566.5 760.5 c 128,-1,45
 544 778 544 778 502 778 c 0,46,47
 458 778 458 778 434.5 760.5 c 128,-1,48
 411 743 411 743 400 723 c 0,49,50
 387 698 387 698 386 668 c 1,51,-1
 386 306 l 1,30,31
EndSplineSet
EndChar

StartChar: p
Encoding: 112 112 83
Width: 1062
Flags: W
LayerCount: 2
Fore
SplineSet
132 774 m 2,0,1
 132 816 132 816 135 856.5 c 128,-1,2
 138 897 138 897 153 929 c 128,-1,3
 168 961 168 961 198 980.5 c 128,-1,4
 228 1000 228 1000 282 1000 c 0,5,6
 337 1000 337 1000 368 981.5 c 128,-1,7
 399 963 399 963 414 936.5 c 128,-1,8
 429 910 429 910 432.5 881 c 128,-1,9
 436 852 436 852 436 832 c 1,10,11
 445 861 445 861 461.5 891 c 128,-1,12
 478 921 478 921 504 945 c 128,-1,13
 530 969 530 969 566.5 984.5 c 128,-1,14
 603 1000 603 1000 652 1000 c 0,15,16
 707 1000 707 1000 762 982 c 128,-1,17
 817 964 817 964 861 922 c 128,-1,18
 905 880 905 880 932.5 812.5 c 128,-1,19
 960 745 960 745 960 646 c 2,20,-1
 960 356 l 2,21,22
 960 256 960 256 932.5 188.5 c 128,-1,23
 905 121 905 121 861 79.5 c 128,-1,24
 817 38 817 38 762 20 c 128,-1,25
 707 2 707 2 652 2 c 0,26,27
 603 2 603 2 566.5 17 c 128,-1,28
 530 32 530 32 504 56 c 128,-1,29
 478 80 478 80 461.5 110 c 128,-1,30
 445 140 445 140 436 170 c 1,31,-1
 436 -172 l 2,32,33
 436 -216 436 -216 431.5 -257 c 128,-1,34
 427 -298 427 -298 411.5 -329.5 c 128,-1,35
 396 -361 396 -361 365 -380.5 c 128,-1,36
 334 -400 334 -400 282 -400 c 0,37,38
 232 -400 232 -400 202 -380.5 c 128,-1,39
 172 -361 172 -361 156.5 -329.5 c 128,-1,40
 141 -298 141 -298 136.5 -257 c 128,-1,41
 132 -216 132 -216 132 -172 c 2,42,-1
 132 774 l 2,0,1
652 620 m 2,43,44
 652 647 652 647 650 673 c 128,-1,45
 648 699 648 699 639 720 c 128,-1,46
 630 741 630 741 612.5 753.5 c 128,-1,47
 595 766 595 766 564 766 c 0,48,49
 525 766 525 766 500.5 748.5 c 128,-1,50
 476 731 476 731 462 694.5 c 128,-1,51
 448 658 448 658 442.5 602 c 128,-1,52
 437 546 437 546 436 470 c 0,53,54
 436 438 436 438 441.5 397.5 c 128,-1,55
 447 357 447 357 461 321 c 128,-1,56
 475 285 475 285 500 260.5 c 128,-1,57
 525 236 525 236 564 236 c 0,58,59
 595 236 595 236 612.5 248.5 c 128,-1,60
 630 261 630 261 639 281 c 128,-1,61
 648 301 648 301 650 326.5 c 128,-1,62
 652 352 652 352 652 378 c 2,63,-1
 652 620 l 2,43,44
EndSplineSet
EndChar

StartChar: q
Encoding: 113 113 84
Width: 1062
Flags: W
LayerCount: 2
Fore
SplineSet
932 -172 m 2,0,1
 932 -216 932 -216 927.5 -257 c 128,-1,2
 923 -298 923 -298 907.5 -329.5 c 128,-1,3
 892 -361 892 -361 862 -380.5 c 128,-1,4
 832 -400 832 -400 782 -400 c 0,5,6
 729 -400 729 -400 698.5 -380.5 c 128,-1,7
 668 -361 668 -361 652.5 -329.5 c 128,-1,8
 637 -298 637 -298 632.5 -257 c 128,-1,9
 628 -216 628 -216 628 -172 c 2,10,-1
 628 170 l 1,11,12
 619 140 619 140 602.5 110 c 128,-1,13
 586 80 586 80 560 56 c 128,-1,14
 534 32 534 32 497.5 17 c 128,-1,15
 461 2 461 2 412 2 c 0,16,17
 357 2 357 2 302 20 c 128,-1,18
 247 38 247 38 203 79.5 c 128,-1,19
 159 121 159 121 131.5 188.5 c 128,-1,20
 104 256 104 256 104 356 c 2,21,-1
 104 646 l 2,22,23
 104 745 104 745 131.5 812.5 c 128,-1,24
 159 880 159 880 203 922 c 128,-1,25
 247 964 247 964 302 982 c 128,-1,26
 357 1000 357 1000 412 1000 c 0,27,28
 461 1000 461 1000 497.5 984.5 c 128,-1,29
 534 969 534 969 560 945 c 128,-1,30
 586 921 586 921 602.5 891 c 128,-1,31
 619 861 619 861 628 832 c 1,32,33
 628 852 628 852 631.5 881 c 128,-1,34
 635 910 635 910 650 936.5 c 128,-1,35
 665 963 665 963 696 981.5 c 128,-1,36
 727 1000 727 1000 782 1000 c 0,37,38
 836 1000 836 1000 866 980.5 c 128,-1,39
 896 961 896 961 911 929 c 128,-1,40
 926 897 926 897 929 856.5 c 128,-1,41
 932 816 932 816 932 774 c 2,42,-1
 932 -172 l 2,0,1
412 378 m 2,43,44
 412 352 412 352 414 326.5 c 128,-1,45
 416 301 416 301 425 281 c 128,-1,46
 434 261 434 261 451.5 248.5 c 128,-1,47
 469 236 469 236 500 236 c 0,48,49
 539 236 539 236 564 260.5 c 128,-1,50
 589 285 589 285 603 321 c 128,-1,51
 617 357 617 357 622.5 397.5 c 128,-1,52
 628 438 628 438 628 470 c 0,53,54
 627 546 627 546 621.5 602 c 128,-1,55
 616 658 616 658 602 694.5 c 128,-1,56
 588 731 588 731 563.5 748.5 c 128,-1,57
 539 766 539 766 500 766 c 0,58,59
 469 766 469 766 451.5 753.5 c 128,-1,60
 434 741 434 741 425 720 c 128,-1,61
 416 699 416 699 414 673 c 128,-1,62
 412 647 412 647 412 620 c 2,63,-1
 412 378 l 2,43,44
EndSplineSet
EndChar

StartChar: r
Encoding: 114 114 85
Width: 792
Flags: W
LayerCount: 2
Fore
SplineSet
770 850 m 0,0,1
 770 772 770 772 731.5 736 c 128,-1,2
 693 700 693 700 622 700 c 0,3,4
 612 700 612 700 593.5 698.5 c 128,-1,5
 575 697 575 697 554 690.5 c 128,-1,6
 533 684 533 684 511.5 671.5 c 128,-1,7
 490 659 490 659 472 637.5 c 128,-1,8
 454 616 454 616 443 583 c 128,-1,9
 432 550 432 550 432 504 c 2,10,-1
 432 218 l 2,11,12
 432 177 432 177 427.5 138 c 128,-1,13
 423 99 423 99 407 68.5 c 128,-1,14
 391 38 391 38 361 19 c 128,-1,15
 331 0 331 0 280 0 c 0,16,17
 230 0 230 0 201 19 c 128,-1,18
 172 38 172 38 156.5 68.5 c 128,-1,19
 141 99 141 99 136.5 138 c 128,-1,20
 132 177 132 177 132 218 c 2,21,-1
 132 778 l 2,22,23
 132 820 132 820 136.5 859.5 c 128,-1,24
 141 899 141 899 156.5 930 c 128,-1,25
 172 961 172 961 201 979.5 c 128,-1,26
 230 998 230 998 280 998 c 0,27,28
 331 998 331 998 358.5 975.5 c 128,-1,29
 386 953 386 953 399 917.5 c 128,-1,30
 412 882 412 882 414 838.5 c 128,-1,31
 416 795 416 795 416 754 c 1,32,-1
 432 754 l 1,33,34
 446 810 446 810 469 855.5 c 128,-1,35
 492 901 492 901 520 932.5 c 128,-1,36
 548 964 548 964 580 981 c 128,-1,37
 612 998 612 998 644 998 c 0,38,39
 683 998 683 998 707.5 989.5 c 128,-1,40
 732 981 732 981 746 963 c 128,-1,41
 760 945 760 945 765 917 c 128,-1,42
 770 889 770 889 770 850 c 0,0,1
EndSplineSet
EndChar

StartChar: s
Encoding: 115 115 86
Width: 910
Flags: W
LayerCount: 2
Fore
SplineSet
386 738 m 0,0,1
 386 718 386 718 399 701 c 128,-1,2
 412 684 412 684 434.5 668.5 c 128,-1,3
 457 653 457 653 486.5 638 c 128,-1,4
 516 623 516 623 548 608 c 0,5,6
 597 584 597 584 648 556.5 c 128,-1,7
 699 529 699 529 741 492 c 128,-1,8
 783 455 783 455 809.5 406.5 c 128,-1,9
 836 358 836 358 836 292 c 0,10,11
 836 232 836 232 818.5 186 c 128,-1,12
 801 140 801 140 772 106.5 c 128,-1,13
 743 73 743 73 704.5 51 c 128,-1,14
 666 29 666 29 623.5 16 c 128,-1,15
 581 3 581 3 537 -2.5 c 128,-1,16
 493 -8 493 -8 454 -8 c 0,17,18
 377 -8 377 -8 320 5 c 128,-1,19
 263 18 263 18 222 39.5 c 128,-1,20
 181 61 181 61 154.5 88.5 c 128,-1,21
 128 116 128 116 113 146 c 128,-1,22
 98 176 98 176 92 205.5 c 128,-1,23
 86 235 86 235 86 260 c 0,24,25
 86 320 86 320 119.5 348 c 128,-1,26
 153 376 153 376 222 376 c 0,27,28
 272 376 272 376 304 349 c 128,-1,29
 336 322 336 322 338 262 c 0,30,31
 339 242 339 242 349.5 230 c 128,-1,32
 360 218 360 218 376.5 210.5 c 128,-1,33
 393 203 393 203 413 200.5 c 128,-1,34
 433 198 433 198 452 198 c 0,35,36
 491 198 491 198 515.5 218.5 c 128,-1,37
 540 239 540 239 540 272 c 0,38,39
 540 300 540 300 523.5 324.5 c 128,-1,40
 507 349 507 349 480 370 c 128,-1,41
 453 391 453 391 418.5 410.5 c 128,-1,42
 384 430 384 430 348 450 c 0,43,44
 303 474 303 474 257.5 501 c 128,-1,45
 212 528 212 528 175 561 c 128,-1,46
 138 594 138 594 115 635.5 c 128,-1,47
 92 677 92 677 92 730 c 0,48,49
 92 808 92 808 117.5 860.5 c 128,-1,50
 143 913 143 913 192 945.5 c 128,-1,51
 241 978 241 978 311.5 992 c 128,-1,52
 382 1006 382 1006 472 1008 c 1,53,-1
 488 1008 l 2,54,55
 569 1008 569 1008 625.5 994 c 128,-1,56
 682 980 682 980 719.5 957.5 c 128,-1,57
 757 935 757 935 778.5 907 c 128,-1,58
 800 879 800 879 810.5 850.5 c 128,-1,59
 821 822 821 822 823.5 796 c 128,-1,60
 826 770 826 770 826 752 c 0,61,62
 826 722 826 722 813.5 702.5 c 128,-1,63
 801 683 801 683 780.5 671.5 c 128,-1,64
 760 660 760 660 734 655.5 c 128,-1,65
 708 651 708 651 680 650 c 0,66,67
 656 650 656 650 636.5 658 c 128,-1,68
 617 666 617 666 603 678 c 128,-1,69
 589 690 589 690 581.5 705 c 128,-1,70
 574 720 574 720 574 734 c 0,71,72
 572 772 572 772 543.5 792 c 128,-1,73
 515 812 515 812 474 812 c 0,74,75
 457 812 457 812 441.5 808.5 c 128,-1,76
 426 805 426 805 413.5 796.5 c 128,-1,77
 401 788 401 788 393.5 774 c 128,-1,78
 386 760 386 760 386 738 c 0,0,1
EndSplineSet
EndChar

StartChar: t
Encoding: 116 116 87
Width: 870
Flags: W
LayerCount: 2
Fore
SplineSet
258 1000 m 1,0,-1
 258 1176 l 2,1,2
 258 1218 258 1218 262.5 1258 c 128,-1,3
 267 1298 267 1298 283 1329.5 c 128,-1,4
 299 1361 299 1361 329 1380.5 c 128,-1,5
 359 1400 359 1400 410 1400 c 0,6,7
 460 1400 460 1400 490 1380.5 c 128,-1,8
 520 1361 520 1361 535.5 1329.5 c 128,-1,9
 551 1298 551 1298 555.5 1258 c 128,-1,10
 560 1218 560 1218 560 1176 c 2,11,-1
 560 1000 l 1,12,-1
 642 1000 l 2,13,14
 668 1000 668 1000 694 997.5 c 128,-1,15
 720 995 720 995 740.5 983 c 128,-1,16
 761 971 761 971 773.5 947 c 128,-1,17
 786 923 786 923 786 880 c 0,18,19
 786 839 786 839 773.5 815 c 128,-1,20
 761 791 761 791 740.5 779 c 128,-1,21
 720 767 720 767 694 763.5 c 128,-1,22
 668 760 668 760 642 760 c 2,23,-1
 560 760 l 1,24,-1
 560 410 l 2,25,26
 560 390 560 390 561.5 367.5 c 128,-1,27
 563 345 563 345 572 326 c 128,-1,28
 581 307 581 307 599 294.5 c 128,-1,29
 617 282 617 282 650 282 c 0,30,31
 686 282 686 282 711.5 276.5 c 128,-1,32
 737 271 737 271 753.5 257 c 128,-1,33
 770 243 770 243 778 218 c 128,-1,34
 786 193 786 193 786 154 c 0,35,36
 786 114 786 114 767.5 85 c 128,-1,37
 749 56 749 56 718 37 c 128,-1,38
 687 18 687 18 646 9 c 128,-1,39
 605 0 605 0 560 0 c 0,40,41
 489 0 489 0 438.5 15 c 128,-1,42
 388 30 388 30 354.5 57.5 c 128,-1,43
 321 85 321 85 301.5 123.5 c 128,-1,44
 282 162 282 162 272.5 210 c 128,-1,45
 263 258 263 258 260.5 313.5 c 128,-1,46
 258 369 258 369 258 430 c 2,47,-1
 258 760 l 1,48,-1
 202 760 l 2,49,50
 176 760 176 760 150.5 763.5 c 128,-1,51
 125 767 125 767 105 779 c 128,-1,52
 85 791 85 791 72.5 815 c 128,-1,53
 60 839 60 839 60 880 c 0,54,55
 60 923 60 923 72.5 947 c 128,-1,56
 85 971 85 971 105 983 c 128,-1,57
 125 995 125 995 150.5 997.5 c 128,-1,58
 176 1000 176 1000 202 1000 c 2,59,-1
 258 1000 l 1,0,-1
EndSplineSet
EndChar

StartChar: u
Encoding: 117 117 88
Width: 1076
Flags: W
LayerCount: 2
Fore
SplineSet
118 772 m 2,0,1
 118 815 118 815 123 856 c 128,-1,2
 128 897 128 897 144.5 929 c 128,-1,3
 161 961 161 961 191.5 980.5 c 128,-1,4
 222 1000 222 1000 274 1000 c 0,5,6
 325 1000 325 1000 355 980.5 c 128,-1,7
 385 961 385 961 401 929 c 128,-1,8
 417 897 417 897 421.5 856 c 128,-1,9
 426 815 426 815 426 772 c 2,10,-1
 426 382 l 2,11,12
 426 353 426 353 428.5 326.5 c 128,-1,13
 431 300 431 300 440 279.5 c 128,-1,14
 449 259 449 259 466.5 246.5 c 128,-1,15
 484 234 484 234 514 234 c 0,16,17
 554 234 554 234 579.5 261 c 128,-1,18
 605 288 605 288 619.5 335 c 128,-1,19
 634 382 634 382 639 445.5 c 128,-1,20
 644 509 644 509 644 582 c 2,21,-1
 644 772 l 2,22,23
 644 815 644 815 649 856 c 128,-1,24
 654 897 654 897 670.5 929 c 128,-1,25
 687 961 687 961 717.5 980.5 c 128,-1,26
 748 1000 748 1000 800 1000 c 0,27,28
 851 1000 851 1000 881 980.5 c 128,-1,29
 911 961 911 961 927 929 c 128,-1,30
 943 897 943 897 947.5 856 c 128,-1,31
 952 815 952 815 952 772 c 2,32,-1
 952 226 l 2,33,34
 952 183 952 183 949 142.5 c 128,-1,35
 946 102 946 102 931 70.5 c 128,-1,36
 916 39 916 39 885.5 19.5 c 128,-1,37
 855 0 855 0 800 0 c 256,38,39
 745 0 745 0 714 18.5 c 128,-1,40
 683 37 683 37 667.5 63 c 128,-1,41
 652 89 652 89 648 118 c 128,-1,42
 644 147 644 147 644 168 c 1,43,44
 636 139 636 139 619 109 c 128,-1,45
 602 79 602 79 575.5 55 c 128,-1,46
 549 31 549 31 512 15.5 c 128,-1,47
 475 0 475 0 426 0 c 0,48,49
 371 0 371 0 316 18 c 128,-1,50
 261 36 261 36 217 78 c 128,-1,51
 173 120 173 120 145.5 188 c 128,-1,52
 118 256 118 256 118 356 c 2,53,-1
 118 772 l 2,0,1
EndSplineSet
EndChar

StartChar: v
Encoding: 118 118 89
Width: 876
Flags: W
LayerCount: 2
Fore
SplineSet
598 156 m 2,0,1
 576 98 576 98 557 66.5 c 128,-1,2
 538 35 538 35 520 20 c 128,-1,3
 502 5 502 5 484 2.5 c 128,-1,4
 466 0 466 0 446 0 c 0,5,6
 424 0 424 0 405 2.5 c 128,-1,7
 386 5 386 5 367 19.5 c 128,-1,8
 348 34 348 34 328 65.5 c 128,-1,9
 308 97 308 97 286 156 c 2,10,-1
 60 748 l 2,11,12
 51 772 51 772 43.5 799.5 c 128,-1,13
 36 827 36 827 36 854 c 0,14,15
 36 883 36 883 43.5 909.5 c 128,-1,16
 51 936 51 936 68 956 c 128,-1,17
 85 976 85 976 112 988 c 128,-1,18
 139 1000 139 1000 178 1000 c 0,19,20
 206 1000 206 1000 229.5 988 c 128,-1,21
 253 976 253 976 271.5 956 c 128,-1,22
 290 936 290 936 304 910 c 128,-1,23
 318 884 318 884 326 856 c 2,24,-1
 438 492 l 1,25,-1
 454 492 l 1,26,-1
 558 856 l 2,27,28
 565 881 565 881 578 907 c 128,-1,29
 591 933 591 933 609.5 953.5 c 128,-1,30
 628 974 628 974 653.5 987 c 128,-1,31
 679 1000 679 1000 712 1000 c 0,32,33
 748 1000 748 1000 773 987.5 c 128,-1,34
 798 975 798 975 814 954.5 c 128,-1,35
 830 934 830 934 837 907 c 128,-1,36
 844 880 844 880 844 852 c 0,37,38
 844 826 844 826 837.5 800 c 128,-1,39
 831 774 831 774 820 748 c 1,40,-1
 598 156 l 2,0,1
EndSplineSet
EndChar

StartChar: w
Encoding: 119 119 90
Width: 1396
Flags: W
LayerCount: 2
Fore
SplineSet
700 884 m 256,0,1
 748 884 748 884 785.5 853.5 c 128,-1,2
 823 823 823 823 852 744 c 2,3,-1
 958 462 l 1,4,-1
 974 462 l 1,5,-1
 1086 854 l 2,6,7
 1094 882 1094 882 1106.5 908 c 128,-1,8
 1119 934 1119 934 1137 954.5 c 128,-1,9
 1155 975 1155 975 1180 987.5 c 128,-1,10
 1205 1000 1205 1000 1240 1000 c 0,11,12
 1276 1000 1276 1000 1301 987 c 128,-1,13
 1326 974 1326 974 1342 953 c 128,-1,14
 1358 932 1358 932 1365 905 c 128,-1,15
 1372 878 1372 878 1372 850 c 0,16,17
 1372 823 1372 823 1364.5 797.5 c 128,-1,18
 1357 772 1357 772 1348 746 c 2,19,-1
 1126 156 l 2,20,21
 1103 97 1103 97 1084.5 65.5 c 128,-1,22
 1066 34 1066 34 1048 19.5 c 128,-1,23
 1030 5 1030 5 1012 2.5 c 128,-1,24
 994 0 994 0 974 0 c 0,25,26
 952 0 952 0 932.5 2.5 c 128,-1,27
 913 5 913 5 893.5 19.5 c 128,-1,28
 874 34 874 34 854 65.5 c 128,-1,29
 834 97 834 97 812 156 c 1,30,-1
 708 516 l 1,31,-1
 692 516 l 1,32,-1
 584 156 l 1,33,34
 562 97 562 97 543.5 65.5 c 128,-1,35
 525 34 525 34 507.5 19.5 c 128,-1,36
 490 5 490 5 472 2.5 c 128,-1,37
 454 0 454 0 434 0 c 0,38,39
 412 0 412 0 392.5 2.5 c 128,-1,40
 373 5 373 5 353.5 19.5 c 128,-1,41
 334 34 334 34 314 65.5 c 128,-1,42
 294 97 294 97 272 156 c 2,43,-1
 48 746 l 2,44,45
 39 770 39 770 31.5 797.5 c 128,-1,46
 24 825 24 825 24 852 c 0,47,48
 24 881 24 881 31.5 908 c 128,-1,49
 39 935 39 935 55.5 955.5 c 128,-1,50
 72 976 72 976 99 988 c 128,-1,51
 126 1000 126 1000 166 1000 c 0,52,53
 194 1000 194 1000 216.5 987.5 c 128,-1,54
 239 975 239 975 257 954.5 c 128,-1,55
 275 934 275 934 288 908 c 128,-1,56
 301 882 301 882 310 854 c 2,57,-1
 436 462 l 1,58,-1
 452 462 l 1,59,-1
 544 744 l 2,60,61
 569 823 569 823 610.5 853.5 c 128,-1,62
 652 884 652 884 700 884 c 256,0,1
EndSplineSet
EndChar

StartChar: x
Encoding: 120 120 91
Width: 938
Flags: W
LayerCount: 2
Fore
SplineSet
728 1000 m 0,0,1
 745 1000 745 1000 764 994 c 128,-1,2
 783 988 783 988 804 974 c 0,3,4
 834 954 834 954 847 931 c 128,-1,5
 860 908 860 908 860 882 c 0,6,7
 860 849 860 849 844 813 c 128,-1,8
 828 777 828 777 804 744 c 2,9,-1
 626 500 l 1,10,-1
 804 258 l 1,11,12
 827 223 827 223 843.5 188 c 128,-1,13
 860 153 860 153 860 120 c 0,14,15
 860 94 860 94 847 70 c 128,-1,16
 834 46 834 46 804 26 c 0,17,18
 764 0 764 0 730 0 c 0,19,20
 709 0 709 0 690.5 9 c 128,-1,21
 672 18 672 18 655.5 33 c 128,-1,22
 639 48 639 48 623.5 68 c 128,-1,23
 608 88 608 88 592 110 c 2,24,-1
 472 278 l 1,25,-1
 348 110 l 1,26,27
 334 87 334 87 319 67 c 128,-1,28
 304 47 304 47 287.5 32 c 128,-1,29
 271 17 271 17 253 8.5 c 128,-1,30
 235 0 235 0 214 0 c 0,31,32
 180 0 180 0 140 26 c 1,33,34
 110 47 110 47 97 70.5 c 128,-1,35
 84 94 84 94 84 120 c 0,36,37
 84 153 84 153 100.5 188 c 128,-1,38
 117 223 117 223 140 258 c 1,39,-1
 308 500 l 1,40,-1
 140 744 l 2,41,42
 117 779 117 779 100.5 813 c 128,-1,43
 84 847 84 847 84 880 c 0,44,45
 84 906 84 906 97 929.5 c 128,-1,46
 110 953 110 953 140 974 c 1,47,48
 180 1000 180 1000 214 1000 c 0,49,50
 235 1000 235 1000 253 991.5 c 128,-1,51
 271 983 271 983 287.5 968 c 128,-1,52
 304 953 304 953 319 933.5 c 128,-1,53
 334 914 334 914 348 892 c 1,54,-1
 472 724 l 1,55,-1
 592 892 l 2,56,57
 607 914 607 914 622 933.5 c 128,-1,58
 637 953 637 953 653.5 968 c 128,-1,59
 670 983 670 983 688.5 991.5 c 128,-1,60
 707 1000 707 1000 728 1000 c 0,0,1
EndSplineSet
EndChar

StartChar: y
Encoding: 121 121 92
Width: 916
Flags: W
LayerCount: 2
Fore
SplineSet
230 -400 m 0,0,1
 116 -400 116 -400 68 -367.5 c 128,-1,2
 20 -335 20 -335 20 -272 c 0,3,4
 20 -241 20 -241 28.5 -220 c 128,-1,5
 37 -199 37 -199 52 -186 c 128,-1,6
 67 -173 67 -173 86.5 -167.5 c 128,-1,7
 106 -162 106 -162 128 -162 c 0,8,9
 143 -162 143 -162 156 -163 c 128,-1,10
 169 -164 169 -164 178 -164 c 0,11,12
 197 -164 197 -164 214.5 -141.5 c 128,-1,13
 232 -119 232 -119 248.5 -85 c 128,-1,14
 265 -51 265 -51 282 -12 c 128,-1,15
 299 27 299 27 316 60 c 1,16,-1
 300 100 l 2,17,18
 271 173 271 173 239 253.5 c 128,-1,19
 207 334 207 334 175.5 416.5 c 128,-1,20
 144 499 144 499 113.5 581 c 128,-1,21
 83 663 83 663 58 740 c 0,22,23
 47 772 47 772 39.5 803 c 128,-1,24
 32 834 32 834 32 864 c 0,25,26
 32 893 32 893 44 918 c 128,-1,27
 56 943 56 943 77 961 c 128,-1,28
 98 979 98 979 125.5 989.5 c 128,-1,29
 153 1000 153 1000 184 1000 c 0,30,31
 212 1000 212 1000 235.5 988 c 128,-1,32
 259 976 259 976 277.5 955 c 128,-1,33
 296 934 296 934 310 907 c 128,-1,34
 324 880 324 880 334 850 c 2,35,-1
 468 428 l 1,36,-1
 596 850 l 2,37,38
 605 878 605 878 619 906 c 128,-1,39
 633 934 633 934 652 955.5 c 128,-1,40
 671 977 671 977 695 990.5 c 128,-1,41
 719 1004 719 1004 748 1004 c 256,42,43
 777 1004 777 1004 803.5 993 c 128,-1,44
 830 982 830 982 849.5 962.5 c 128,-1,45
 869 943 869 943 880.5 916 c 128,-1,46
 892 889 892 889 892 858 c 0,47,48
 892 828 892 828 884.5 798.5 c 128,-1,49
 877 769 877 769 866 740 c 2,50,-1
 626 104 l 2,51,52
 605 50 605 50 580.5 -8.5 c 128,-1,53
 556 -67 556 -67 527 -123 c 128,-1,54
 498 -179 498 -179 465 -229 c 128,-1,55
 432 -279 432 -279 395 -317 c 128,-1,56
 358 -355 358 -355 316.5 -377.5 c 128,-1,57
 275 -400 275 -400 230 -400 c 0,0,1
EndSplineSet
EndChar

StartChar: z
Encoding: 122 122 93
Width: 916
Flags: W
LayerCount: 2
Fore
SplineSet
654 1000 m 2,0,1
 682 1000 682 1000 715 995 c 128,-1,2
 748 990 748 990 775.5 976.5 c 128,-1,3
 803 963 803 963 821.5 938.5 c 128,-1,4
 840 914 840 914 840 876 c 0,5,6
 840 859 840 859 834.5 842 c 128,-1,7
 829 825 829 825 821 807.5 c 128,-1,8
 813 790 813 790 803.5 773 c 128,-1,9
 794 756 794 756 786 740 c 1,10,-1
 438 254 l 1,11,-1
 658 254 l 2,12,13
 693 254 693 254 726.5 250.5 c 128,-1,14
 760 247 760 247 786 234 c 128,-1,15
 812 221 812 221 828 196 c 128,-1,16
 844 171 844 171 844 128 c 0,17,18
 844 86 844 86 828 60.5 c 128,-1,19
 812 35 812 35 786 21.5 c 128,-1,20
 760 8 760 8 726.5 4 c 128,-1,21
 693 0 693 0 658 0 c 2,22,-1
 264 0 l 2,23,24
 234 0 234 0 201 4 c 128,-1,25
 168 8 168 8 140 21 c 128,-1,26
 112 34 112 34 94 58 c 128,-1,27
 76 82 76 82 76 122 c 0,28,29
 76 158 76 158 93.5 194 c 128,-1,30
 111 230 111 230 132 260 c 2,31,-1
 478 748 l 1,32,-1
 258 748 l 2,33,34
 223 748 223 748 190 751.5 c 128,-1,35
 157 755 157 755 130.5 768 c 128,-1,36
 104 781 104 781 88 805.5 c 128,-1,37
 72 830 72 830 72 872 c 0,38,39
 72 915 72 915 88 940 c 128,-1,40
 104 965 104 965 130.5 978.5 c 128,-1,41
 157 992 157 992 190 996 c 128,-1,42
 223 1000 223 1000 258 1000 c 2,43,-1
 654 1000 l 2,0,1
EndSplineSet
EndChar

StartChar: braceleft
Encoding: 123 123 94
Width: 1012
Flags: W
LayerCount: 2
Fore
SplineSet
794 1566 m 0,0,1
 831 1566 831 1566 857.5 1557 c 128,-1,2
 884 1548 884 1548 900.5 1532 c 128,-1,3
 917 1516 917 1516 924.5 1495 c 128,-1,4
 932 1474 932 1474 932 1450 c 0,5,6
 932 1402 932 1402 901.5 1368 c 128,-1,7
 871 1334 871 1334 802 1334 c 1,8,9
 757 1332 757 1332 722 1313 c 0,10,11
 707 1305 707 1305 692.5 1292 c 128,-1,12
 678 1279 678 1279 667 1260.5 c 128,-1,13
 656 1242 656 1242 649 1216 c 128,-1,14
 642 1190 642 1190 642 1156 c 2,15,-1
 642 1018 l 2,16,17
 642 948 642 948 627 893.5 c 128,-1,18
 612 839 612 839 591.5 801 c 128,-1,19
 571 763 571 763 550 741.5 c 128,-1,20
 529 720 529 720 518 716 c 1,21,22
 529 712 529 712 550 690.5 c 128,-1,23
 571 669 571 669 591.5 630.5 c 128,-1,24
 612 592 612 592 627 537.5 c 128,-1,25
 642 483 642 483 642 414 c 2,26,-1
 642 238 l 2,27,28
 642 207 642 207 649 183.5 c 128,-1,29
 656 160 656 160 667 142.5 c 128,-1,30
 678 125 678 125 692.5 113 c 128,-1,31
 707 101 707 101 722 93 c 0,32,33
 757 75 757 75 802 72 c 1,34,35
 871 72 871 72 901.5 38 c 128,-1,36
 932 4 932 4 932 -44 c 0,37,38
 932 -68 932 -68 923.5 -89 c 128,-1,39
 915 -110 915 -110 894 -126 c 128,-1,40
 873 -142 873 -142 838 -151 c 128,-1,41
 803 -160 803 -160 750 -160 c 1,42,43
 641 -154 641 -154 556 -108 c 0,44,45
 520 -89 520 -89 485 -58.5 c 128,-1,46
 450 -28 450 -28 422.5 15.5 c 128,-1,47
 395 59 395 59 378.5 118.5 c 128,-1,48
 362 178 362 178 362 256 c 2,49,-1
 362 444 l 2,50,51
 362 490 362 490 352.5 520.5 c 128,-1,52
 343 551 343 551 328 570.5 c 128,-1,53
 313 590 313 590 294 602 c 128,-1,54
 275 614 275 614 256 624 c 0,55,56
 242 632 242 632 229.5 640 c 128,-1,57
 217 648 217 648 208 658.5 c 128,-1,58
 199 669 199 669 193.5 682.5 c 128,-1,59
 188 696 188 696 188 716 c 0,60,61
 188 755 188 755 207.5 773 c 128,-1,62
 227 791 227 791 256 806 c 0,63,64
 275 816 275 816 294 828 c 128,-1,65
 313 840 313 840 328 859.5 c 128,-1,66
 343 879 343 879 352.5 910 c 128,-1,67
 362 941 362 941 362 988 c 2,68,-1
 362 1204 l 2,69,70
 362 1295 362 1295 395.5 1363 c 128,-1,71
 429 1431 429 1431 487.5 1476 c 128,-1,72
 546 1521 546 1521 624.5 1543.5 c 128,-1,73
 703 1566 703 1566 794 1566 c 0,0,1
EndSplineSet
EndChar

StartChar: bar
Encoding: 124 124 95
Width: 604
Flags: W
LayerCount: 2
Fore
SplineSet
424 -16 m 2,0,1
 424 -44 424 -44 420.5 -70 c 128,-1,2
 417 -96 417 -96 404.5 -116 c 128,-1,3
 392 -136 392 -136 368 -148 c 128,-1,4
 344 -160 344 -160 304 -160 c 0,5,6
 260 -160 260 -160 235 -148 c 128,-1,7
 210 -136 210 -136 198 -116 c 128,-1,8
 186 -96 186 -96 183 -70 c 128,-1,9
 180 -44 180 -44 180 -16 c 2,10,-1
 180 1422 l 2,11,12
 180 1447 180 1447 183 1473 c 128,-1,13
 186 1499 186 1499 198 1519.5 c 128,-1,14
 210 1540 210 1540 235 1553 c 128,-1,15
 260 1566 260 1566 304 1566 c 0,16,17
 344 1566 344 1566 368 1553 c 128,-1,18
 392 1540 392 1540 404.5 1519.5 c 128,-1,19
 417 1499 417 1499 420.5 1473 c 128,-1,20
 424 1447 424 1447 424 1422 c 2,21,-1
 424 40 l 1,22,-1
 424 -16 l 2,0,1
EndSplineSet
EndChar

StartChar: braceright
Encoding: 125 125 96
Width: 1012
Flags: W
LayerCount: 2
Fore
SplineSet
824 716 m 0,0,1
 824 696 824 696 818.5 682.5 c 128,-1,2
 813 669 813 669 804 658.5 c 128,-1,3
 795 648 795 648 782.5 640 c 128,-1,4
 770 632 770 632 756 624 c 0,5,6
 738 614 738 614 719 602 c 128,-1,7
 700 590 700 590 685 570.5 c 128,-1,8
 670 551 670 551 660 520.5 c 128,-1,9
 650 490 650 490 650 444 c 2,10,-1
 650 256 l 2,11,12
 650 178 650 178 633.5 118.5 c 128,-1,13
 617 59 617 59 589.5 15.5 c 128,-1,14
 562 -28 562 -28 527 -58.5 c 128,-1,15
 492 -89 492 -89 456 -108 c 0,16,17
 371 -154 371 -154 262 -160 c 1,18,19
 209 -160 209 -160 174 -151 c 128,-1,20
 139 -142 139 -142 118 -126 c 128,-1,21
 97 -110 97 -110 88.5 -89 c 128,-1,22
 80 -68 80 -68 80 -44 c 256,23,24
 80 -20 80 -20 87.5 1 c 128,-1,25
 95 22 95 22 111 38 c 128,-1,26
 127 54 127 54 152 63 c 128,-1,27
 177 72 177 72 212 72 c 1,28,29
 256 75 256 75 291 93 c 0,30,31
 306 101 306 101 320 113 c 128,-1,32
 334 125 334 125 345 142.5 c 128,-1,33
 356 160 356 160 363 183.5 c 128,-1,34
 370 207 370 207 370 238 c 2,35,-1
 370 414 l 2,36,37
 370 483 370 483 385.5 537.5 c 128,-1,38
 401 592 401 592 422 630.5 c 128,-1,39
 443 669 443 669 464 690.5 c 128,-1,40
 485 712 485 712 496 716 c 1,41,42
 485 720 485 720 464 741.5 c 128,-1,43
 443 763 443 763 422 801 c 128,-1,44
 401 839 401 839 385.5 893.5 c 128,-1,45
 370 948 370 948 370 1018 c 2,46,-1
 370 1156 l 2,47,48
 370 1190 370 1190 363 1216 c 128,-1,49
 356 1242 356 1242 345 1260.5 c 128,-1,50
 334 1279 334 1279 320 1292 c 128,-1,51
 306 1305 306 1305 291 1313 c 0,52,53
 256 1332 256 1332 212 1334 c 1,54,55
 177 1334 177 1334 152 1343 c 128,-1,56
 127 1352 127 1352 111 1368 c 128,-1,57
 95 1384 95 1384 87.5 1405 c 128,-1,58
 80 1426 80 1426 80 1450 c 256,59,60
 80 1474 80 1474 87.5 1495 c 128,-1,61
 95 1516 95 1516 111.5 1532 c 128,-1,62
 128 1548 128 1548 155 1557 c 128,-1,63
 182 1566 182 1566 220 1566 c 0,64,65
 311 1566 311 1566 389.5 1543.5 c 128,-1,66
 468 1521 468 1521 526 1476 c 128,-1,67
 584 1431 584 1431 617 1363 c 128,-1,68
 650 1295 650 1295 650 1204 c 2,69,-1
 650 988 l 2,70,71
 650 941 650 941 660 910 c 128,-1,72
 670 879 670 879 685 859.5 c 128,-1,73
 700 840 700 840 719 828 c 128,-1,74
 738 816 738 816 756 806 c 0,75,76
 785 791 785 791 804.5 773 c 128,-1,77
 824 755 824 755 824 716 c 0,0,1
EndSplineSet
EndChar

StartChar: asciitilde
Encoding: 126 126 97
Width: 918
Flags: W
LayerCount: 2
Fore
SplineSet
422 158 m 0,0,1
 402 169 402 169 387 174.5 c 128,-1,2
 372 180 372 180 360 180 c 0,3,4
 342 180 342 180 324 167.5 c 128,-1,5
 306 155 306 155 280 128 c 0,6,7
 265 111 265 111 248 100.5 c 128,-1,8
 231 90 231 90 216 90 c 0,9,10
 198 90 198 90 173.5 101.5 c 128,-1,11
 149 113 149 113 134 134 c 1,12,13
 112 159 112 159 112 186 c 0,14,15
 112 207 112 207 126 231.5 c 128,-1,16
 140 256 140 256 172 286 c 1,17,-1
 246 352 l 2,18,19
 270 373 270 373 294.5 385.5 c 128,-1,20
 319 398 319 398 348 398 c 0,21,22
 369 398 369 398 389.5 390 c 128,-1,23
 410 382 410 382 434 370 c 0,24,25
 477 348 477 348 503.5 335 c 128,-1,26
 530 322 530 322 545 315 c 128,-1,27
 560 308 560 308 566 306 c 128,-1,28
 572 304 572 304 576 304 c 0,29,30
 591 304 591 304 606.5 314 c 128,-1,31
 622 324 622 324 640 344 c 1,32,33
 657 359 657 359 675 369.5 c 128,-1,34
 693 380 693 380 714 380 c 1,35,36
 728 378 728 378 741.5 371.5 c 128,-1,37
 755 365 755 365 772 348 c 0,38,39
 790 330 790 330 796 313 c 128,-1,40
 802 296 802 296 802 278 c 1,41,42
 800 266 800 266 793 253 c 128,-1,43
 786 240 786 240 776.5 227.5 c 128,-1,44
 767 215 767 215 756.5 204 c 128,-1,45
 746 193 746 193 738 186 c 0,46,47
 703 150 703 150 679 129.5 c 128,-1,48
 655 109 655 109 638.5 99 c 128,-1,49
 622 89 622 89 611 86.5 c 128,-1,50
 600 84 600 84 590 84 c 0,51,52
 582 84 582 84 572.5 85.5 c 128,-1,53
 563 87 563 87 545 94.5 c 128,-1,54
 527 102 527 102 498 117 c 128,-1,55
 469 132 469 132 422 158 c 0,0,1
EndSplineSet
EndChar

StartChar: exclamdown
Encoding: 161 161 98
Width: 808
Flags: W
LayerCount: 2
Fore
SplineSet
302 812 m 1,0,1
 302 843 302 843 305.5 873.5 c 128,-1,2
 309 904 309 904 321 927.5 c 128,-1,3
 333 951 333 951 355.5 965.5 c 128,-1,4
 378 980 378 980 416 980 c 256,5,6
 454 980 454 980 476.5 965.5 c 128,-1,7
 499 951 499 951 511 927.5 c 128,-1,8
 523 904 523 904 526.5 873.5 c 128,-1,9
 530 843 530 843 530 812 c 1,10,-1
 582 488 l 1,11,-1
 582 220 l 2,12,13
 582 178 582 178 575 138 c 128,-1,14
 568 98 568 98 550 67 c 128,-1,15
 532 36 532 36 499.5 17 c 128,-1,16
 467 -2 467 -2 416 -2 c 256,17,18
 365 -2 365 -2 333 17 c 128,-1,19
 301 36 301 36 283 67.5 c 128,-1,20
 265 99 265 99 258.5 139.5 c 128,-1,21
 252 180 252 180 252 222 c 2,22,-1
 252 492 l 1,23,-1
 302 812 l 1,0,1
252 1232 m 0,24,25
 252 1317 252 1317 295 1357.5 c 128,-1,26
 338 1398 338 1398 416 1398 c 0,27,28
 496 1398 496 1398 539 1357.5 c 128,-1,29
 582 1317 582 1317 582 1232 c 0,30,31
 582 1146 582 1146 539 1107 c 128,-1,32
 496 1068 496 1068 416 1068 c 0,33,34
 333 1068 333 1068 292.5 1107 c 128,-1,35
 252 1146 252 1146 252 1232 c 0,24,25
EndSplineSet
EndChar

StartChar: cent
Encoding: 162 162 99
Width: 1000
Flags: W
LayerCount: 2
Fore
SplineSet
386 520 m 2,0,1
 386 504 386 504 389 479.5 c 128,-1,2
 392 455 392 455 403 431.5 c 128,-1,3
 414 408 414 408 435.5 391 c 128,-1,4
 457 374 457 374 494 374 c 0,5,6
 538 374 538 374 563 384 c 128,-1,7
 588 394 588 394 600 411.5 c 128,-1,8
 612 429 612 429 615 452.5 c 128,-1,9
 618 476 618 476 618 502 c 0,10,11
 618 515 618 515 622.5 531.5 c 128,-1,12
 627 548 627 548 644 562.5 c 128,-1,13
 661 577 661 577 694.5 586.5 c 128,-1,14
 728 596 728 596 786 596 c 0,15,16
 839 596 839 596 868 584 c 128,-1,17
 897 572 897 572 910.5 555.5 c 128,-1,18
 924 539 924 539 926 521.5 c 128,-1,19
 928 504 928 504 928 494 c 0,20,21
 928 416 928 416 900 361 c 128,-1,22
 872 306 872 306 827 269 c 128,-1,23
 782 232 782 232 724 211.5 c 128,-1,24
 666 191 666 191 606 182 c 1,25,-1
 606 150 l 2,26,27
 606 122 606 122 602.5 96 c 128,-1,28
 599 70 599 70 586.5 50 c 128,-1,29
 574 30 574 30 550 18 c 128,-1,30
 526 6 526 6 486 6 c 0,31,32
 442 6 442 6 417 18 c 128,-1,33
 392 30 392 30 380 50 c 128,-1,34
 368 70 368 70 365 96 c 128,-1,35
 362 122 362 122 362 150 c 2,36,-1
 362 188 l 1,37,38
 303 202 303 202 252 230.5 c 128,-1,39
 201 259 201 259 163.5 303 c 128,-1,40
 126 347 126 347 104 407.5 c 128,-1,41
 82 468 82 468 82 546 c 2,42,-1
 82 780 l 2,43,44
 82 882 82 882 107.5 951 c 128,-1,45
 133 1020 133 1020 173.5 1063.5 c 128,-1,46
 214 1107 214 1107 263.5 1129.5 c 128,-1,47
 313 1152 313 1152 362 1162 c 1,48,-1
 362 1240 l 2,49,50
 362 1265 362 1265 365 1291 c 128,-1,51
 368 1317 368 1317 380 1337.5 c 128,-1,52
 392 1358 392 1358 417 1371 c 128,-1,53
 442 1384 442 1384 486 1384 c 0,54,55
 526 1384 526 1384 550 1371 c 128,-1,56
 574 1358 574 1358 586.5 1337.5 c 128,-1,57
 599 1317 599 1317 602.5 1291 c 128,-1,58
 606 1265 606 1265 606 1240 c 2,59,-1
 606 1166 l 1,60,61
 703 1152 703 1152 765.5 1117.5 c 128,-1,62
 828 1083 828 1083 863.5 1038.5 c 128,-1,63
 899 994 899 994 912.5 945 c 128,-1,64
 926 896 926 896 926 854 c 0,65,66
 926 838 926 838 924 816.5 c 128,-1,67
 922 795 922 795 908.5 775.5 c 128,-1,68
 895 756 895 756 866 742 c 128,-1,69
 837 728 837 728 784 728 c 0,70,71
 765 728 765 728 736.5 729.5 c 128,-1,72
 708 731 708 731 681 740 c 128,-1,73
 654 749 654 749 635 768 c 128,-1,74
 616 787 616 787 616 822 c 0,75,76
 616 846 616 846 613.5 868.5 c 128,-1,77
 611 891 611 891 599 908 c 128,-1,78
 587 925 587 925 562.5 935.5 c 128,-1,79
 538 946 538 946 494 946 c 0,80,81
 457 946 457 946 435.5 934 c 128,-1,82
 414 922 414 922 403 904 c 128,-1,83
 392 886 392 886 389 866 c 128,-1,84
 386 846 386 846 386 830 c 2,85,-1
 386 520 l 2,0,1
EndSplineSet
EndChar

StartChar: sterling
Encoding: 163 163 100
Width: 1236
Flags: W
LayerCount: 2
Fore
SplineSet
488 498 m 1,0,-1
 488 282 l 1,1,-1
 764 282 l 2,2,3
 803 282 803 282 842.5 278 c 128,-1,4
 882 274 882 274 914 260 c 128,-1,5
 946 246 946 246 966 218.5 c 128,-1,6
 986 191 986 191 986 144 c 0,7,8
 986 94 986 94 966 65.5 c 128,-1,9
 946 37 946 37 914 22.5 c 128,-1,10
 882 8 882 8 842.5 4 c 128,-1,11
 803 0 803 0 764 0 c 2,12,-1
 348 0 l 2,13,14
 296 0 296 0 264.5 18 c 128,-1,15
 233 36 233 36 216 66.5 c 128,-1,16
 199 97 199 97 193.5 137.5 c 128,-1,17
 188 178 188 178 188 224 c 2,18,-1
 188 498 l 1,19,-1
 178 498 l 2,20,21
 150 498 150 498 124 501.5 c 128,-1,22
 98 505 98 505 78 517.5 c 128,-1,23
 58 530 58 530 46 553.5 c 128,-1,24
 34 577 34 577 34 618 c 0,25,26
 34 662 34 662 46 687 c 128,-1,27
 58 712 58 712 78.5 724 c 128,-1,28
 99 736 99 736 125 739 c 128,-1,29
 151 742 151 742 180 742 c 2,30,-1
 188 742 l 1,31,-1
 188 992 l 2,32,33
 188 1096 188 1096 217.5 1167.5 c 128,-1,34
 247 1239 247 1239 292.5 1285 c 128,-1,35
 338 1331 338 1331 392.5 1356 c 128,-1,36
 447 1381 447 1381 496 1392.5 c 128,-1,37
 545 1404 545 1404 582 1406 c 128,-1,38
 619 1408 619 1408 630 1408 c 0,39,40
 740 1408 740 1408 819 1383 c 128,-1,41
 898 1358 898 1358 952.5 1318 c 128,-1,42
 1007 1278 1007 1278 1040 1227.5 c 128,-1,43
 1073 1177 1073 1177 1091 1125 c 128,-1,44
 1109 1073 1109 1073 1114.5 1025 c 128,-1,45
 1120 977 1120 977 1120 942 c 0,46,47
 1120 928 1120 928 1117.5 908 c 128,-1,48
 1115 888 1115 888 1100.5 869.5 c 128,-1,49
 1086 851 1086 851 1055 837.5 c 128,-1,50
 1024 824 1024 824 966 824 c 0,51,52
 947 824 947 824 918.5 826.5 c 128,-1,53
 890 829 890 829 863 838.5 c 128,-1,54
 836 848 836 848 817 866 c 128,-1,55
 798 884 798 884 798 916 c 0,56,57
 798 974 798 974 791 1020 c 128,-1,58
 784 1066 784 1066 765 1098 c 128,-1,59
 746 1130 746 1130 713.5 1147 c 128,-1,60
 681 1164 681 1164 630 1164 c 0,61,62
 577 1164 577 1164 548 1141.5 c 128,-1,63
 519 1119 519 1119 506 1092 c 0,64,65
 490 1060 490 1060 488 1020 c 1,66,-1
 488 742 l 1,67,-1
 620 742 l 2,68,69
 645 742 645 742 671 739 c 128,-1,70
 697 736 697 736 717.5 724 c 128,-1,71
 738 712 738 712 751 687 c 128,-1,72
 764 662 764 662 764 618 c 0,73,74
 764 577 764 577 751 553.5 c 128,-1,75
 738 530 738 530 717.5 517.5 c 128,-1,76
 697 505 697 505 671 501.5 c 128,-1,77
 645 498 645 498 620 498 c 2,78,-1
 488 498 l 1,0,-1
EndSplineSet
EndChar

StartChar: currency
Encoding: 164 164 101
Width: 1192
Flags: W
LayerCount: 2
Fore
SplineSet
906 598 m 0,0,1
 906 559 906 559 900.5 525 c 128,-1,2
 895 491 895 491 886 462 c 1,3,-1
 952 398 l 2,4,5
 976 374 976 374 994 349.5 c 128,-1,6
 1012 325 1012 325 1012 296 c 0,7,8
 1012 276 1012 276 1002 255 c 128,-1,9
 992 234 992 234 966 208 c 0,10,11
 943 185 943 185 923.5 175.5 c 128,-1,12
 904 166 904 166 884 166 c 0,13,14
 855 166 855 166 829.5 184 c 128,-1,15
 804 202 804 202 780 226 c 2,16,-1
 716 288 l 1,17,18
 656 270 656 270 580 270 c 256,19,20
 504 270 504 270 444 288 c 1,21,-1
 380 226 l 2,22,23
 356 202 356 202 330.5 184 c 128,-1,24
 305 166 305 166 276 166 c 0,25,26
 256 166 256 166 236.5 175.5 c 128,-1,27
 217 185 217 185 194 208 c 0,28,29
 168 234 168 234 158 255 c 128,-1,30
 148 276 148 276 148 296 c 0,31,32
 148 325 148 325 166 349.5 c 128,-1,33
 184 374 184 374 208 398 c 2,34,-1
 270 460 l 1,35,36
 252 520 252 520 252 598 c 0,37,38
 252 675 252 675 270 732 c 1,39,-1
 206 798 l 2,40,41
 183 821 183 821 165.5 846.5 c 128,-1,42
 148 872 148 872 148 902 c 0,43,44
 148 922 148 922 157.5 941.5 c 128,-1,45
 167 961 167 961 190 984 c 0,46,47
 214 1008 214 1008 235 1019 c 128,-1,48
 256 1030 256 1030 276 1030 c 0,49,50
 306 1030 306 1030 330.5 1011.5 c 128,-1,51
 355 993 355 993 378 970 c 2,52,-1
 442 904 l 1,53,54
 472 915 472 915 506.5 919.5 c 128,-1,55
 541 924 541 924 580 924 c 0,56,57
 658 924 658 924 718 906 c 1,58,-1
 782 970 l 2,59,60
 805 993 805 993 829.5 1011.5 c 128,-1,61
 854 1030 854 1030 884 1030 c 0,62,63
 924 1030 924 1030 970 984 c 0,64,65
 993 961 993 961 1002.5 941.5 c 128,-1,66
 1012 922 1012 922 1012 902 c 0,67,68
 1012 872 1012 872 994.5 846.5 c 128,-1,69
 977 821 977 821 954 798 c 2,70,-1
 888 732 l 1,71,72
 906 675 906 675 906 598 c 0,0,1
742 598 m 0,73,74
 742 684 742 684 701.5 723 c 128,-1,75
 661 762 661 762 580 762 c 0,76,77
 503 762 503 762 460.5 723 c 128,-1,78
 418 684 418 684 418 598 c 0,79,80
 418 517 418 517 460.5 476.5 c 128,-1,81
 503 436 503 436 580 436 c 256,82,83
 657 436 657 436 699.5 476.5 c 128,-1,84
 742 517 742 517 742 598 c 0,73,74
EndSplineSet
EndChar

StartChar: yen
Encoding: 165 165 102
Width: 1000
Flags: W
LayerCount: 2
Fore
SplineSet
626 330 m 1,0,-1
 626 188 l 2,1,2
 626 152 626 152 622.5 117.5 c 128,-1,3
 619 83 619 83 606.5 56 c 128,-1,4
 594 29 594 29 568.5 12.5 c 128,-1,5
 543 -4 543 -4 500 -4 c 0,6,7
 456 -4 456 -4 430.5 12.5 c 128,-1,8
 405 29 405 29 392 56 c 128,-1,9
 379 83 379 83 375.5 117.5 c 128,-1,10
 372 152 372 152 372 188 c 2,11,-1
 372 330 l 1,12,-1
 304 330 l 2,13,14
 276 330 276 330 250 333.5 c 128,-1,15
 224 337 224 337 204 349.5 c 128,-1,16
 184 362 184 362 172 385.5 c 128,-1,17
 160 409 160 409 160 450 c 0,18,19
 160 494 160 494 172 519 c 128,-1,20
 184 544 184 544 204 556 c 128,-1,21
 224 568 224 568 250 571 c 128,-1,22
 276 574 276 574 304 574 c 2,23,-1
 372 574 l 1,24,-1
 372 702 l 1,25,-1
 114 1160 l 1,26,27
 90 1198 90 1198 76 1231 c 128,-1,28
 62 1264 62 1264 62 1290 c 0,29,30
 62 1313 62 1313 75.5 1336 c 128,-1,31
 89 1359 89 1359 122 1380 c 1,32,33
 159 1400 159 1400 194 1400 c 0,34,35
 219 1400 219 1400 240 1388.5 c 128,-1,36
 261 1377 261 1377 278 1358.5 c 128,-1,37
 295 1340 295 1340 308 1316.5 c 128,-1,38
 321 1293 321 1293 332 1270 c 2,39,-1
 486 946 l 1,40,-1
 514 946 l 1,41,-1
 668 1270 l 2,42,43
 678 1293 678 1293 691.5 1316.5 c 128,-1,44
 705 1340 705 1340 722 1358.5 c 128,-1,45
 739 1377 739 1377 759.5 1388.5 c 128,-1,46
 780 1400 780 1400 806 1400 c 0,47,48
 841 1400 841 1400 878 1380 c 1,49,50
 911 1359 911 1359 924.5 1336 c 128,-1,51
 938 1313 938 1313 938 1290 c 0,52,53
 938 1275 938 1275 925 1240.5 c 128,-1,54
 912 1206 912 1206 880 1152 c 1,55,-1
 626 702 l 1,56,-1
 626 574 l 1,57,-1
 696 574 l 2,58,59
 721 574 721 574 747 571 c 128,-1,60
 773 568 773 568 793.5 556 c 128,-1,61
 814 544 814 544 827 519 c 128,-1,62
 840 494 840 494 840 450 c 0,63,64
 840 409 840 409 827 385.5 c 128,-1,65
 814 362 814 362 793.5 349.5 c 128,-1,66
 773 337 773 337 747 333.5 c 128,-1,67
 721 330 721 330 696 330 c 2,68,-1
 626 330 l 1,0,-1
EndSplineSet
EndChar

StartChar: brokenbar
Encoding: 166 166 103
Width: 666
Flags: W
LayerCount: 2
Fore
SplineSet
452 962 m 2,0,1
 452 934 452 934 448.5 908 c 128,-1,2
 445 882 445 882 432.5 862 c 128,-1,3
 420 842 420 842 396 830 c 128,-1,4
 372 818 372 818 332 818 c 0,5,6
 288 818 288 818 263 830 c 128,-1,7
 238 842 238 842 226 862 c 128,-1,8
 214 882 214 882 211 908 c 128,-1,9
 208 934 208 934 208 962 c 2,10,-1
 208 1422 l 2,11,12
 208 1447 208 1447 211 1473 c 128,-1,13
 214 1499 214 1499 226 1519.5 c 128,-1,14
 238 1540 238 1540 263 1553 c 128,-1,15
 288 1566 288 1566 332 1566 c 0,16,17
 372 1566 372 1566 396 1553 c 128,-1,18
 420 1540 420 1540 432.5 1519.5 c 128,-1,19
 445 1499 445 1499 448.5 1473 c 128,-1,20
 452 1447 452 1447 452 1422 c 2,21,-1
 452 1018 l 1,22,-1
 452 962 l 2,0,1
452 -16 m 2,23,24
 452 -44 452 -44 448.5 -70 c 128,-1,25
 445 -96 445 -96 432.5 -116 c 128,-1,26
 420 -136 420 -136 396 -148 c 128,-1,27
 372 -160 372 -160 332 -160 c 0,28,29
 288 -160 288 -160 263 -148 c 128,-1,30
 238 -136 238 -136 226 -116 c 128,-1,31
 214 -96 214 -96 211 -70 c 128,-1,32
 208 -44 208 -44 208 -16 c 2,33,-1
 208 442 l 2,34,35
 208 467 208 467 211 493 c 128,-1,36
 214 519 214 519 226 539.5 c 128,-1,37
 238 560 238 560 263 573 c 128,-1,38
 288 586 288 586 332 586 c 0,39,40
 372 586 372 586 396 573 c 128,-1,41
 420 560 420 560 432.5 539.5 c 128,-1,42
 445 519 445 519 448.5 493 c 128,-1,43
 452 467 452 467 452 442 c 2,44,-1
 452 40 l 1,45,-1
 452 -16 l 2,23,24
EndSplineSet
EndChar

StartChar: section
Encoding: 167 167 104
Width: 1162
Flags: W
LayerCount: 2
Fore
SplineSet
1004 618 m 2,0,1
 1004 560 1004 560 994 514 c 128,-1,2
 984 468 984 468 966 431.5 c 128,-1,3
 948 395 948 395 924 367.5 c 128,-1,4
 900 340 900 340 872 320 c 1,5,6
 897 303 897 303 920 281 c 128,-1,7
 943 259 943 259 959.5 233.5 c 128,-1,8
 976 208 976 208 986 179 c 128,-1,9
 996 150 996 150 996 120 c 0,10,11
 996 11 996 11 966.5 -59.5 c 128,-1,12
 937 -130 937 -130 881 -171.5 c 128,-1,13
 825 -213 825 -213 743.5 -229.5 c 128,-1,14
 662 -246 662 -246 558 -246 c 0,15,16
 463 -246 463 -246 397 -228 c 128,-1,17
 331 -210 331 -210 287 -181 c 128,-1,18
 243 -152 243 -152 218.5 -115 c 128,-1,19
 194 -78 194 -78 182 -41 c 128,-1,20
 170 -4 170 -4 167 30 c 128,-1,21
 164 64 164 64 164 88 c 0,22,23
 164 123 164 123 176.5 148.5 c 128,-1,24
 189 174 189 174 209.5 190.5 c 128,-1,25
 230 207 230 207 256 214.5 c 128,-1,26
 282 222 282 222 308 222 c 0,27,28
 333 222 333 222 357 212.5 c 128,-1,29
 381 203 381 203 400.5 188 c 128,-1,30
 420 173 420 173 432 153 c 128,-1,31
 444 133 444 133 444 112 c 0,32,33
 444 71 444 71 451 42.5 c 128,-1,34
 458 14 458 14 472.5 -3.5 c 128,-1,35
 487 -21 487 -21 508 -28.5 c 128,-1,36
 529 -36 529 -36 558 -36 c 0,37,38
 586 -36 586 -36 611.5 -33.5 c 128,-1,39
 637 -31 637 -31 656.5 -17.5 c 128,-1,40
 676 -4 676 -4 688 25.5 c 128,-1,41
 700 55 700 55 700 108 c 0,42,43
 700 136 700 136 688.5 160 c 128,-1,44
 677 184 677 184 659.5 201.5 c 128,-1,45
 642 219 642 219 620.5 229.5 c 128,-1,46
 599 240 599 240 580 242 c 1,47,48
 556 242 556 242 516.5 244.5 c 128,-1,49
 477 247 477 247 431.5 258 c 128,-1,50
 386 269 386 269 339.5 292 c 128,-1,51
 293 315 293 315 255.5 357 c 128,-1,52
 218 399 218 399 194 462.5 c 128,-1,53
 170 526 170 526 170 618 c 2,54,-1
 170 626 l 2,55,56
 170 682 170 682 179 727.5 c 128,-1,57
 188 773 188 773 204.5 809 c 128,-1,58
 221 845 221 845 243.5 872.5 c 128,-1,59
 266 900 266 900 292 920 c 1,60,61
 266 936 266 936 242.5 958.5 c 128,-1,62
 219 981 219 981 201.5 1007.5 c 128,-1,63
 184 1034 184 1034 174 1063.5 c 128,-1,64
 164 1093 164 1093 164 1124 c 0,65,66
 164 1233 164 1233 193.5 1303.5 c 128,-1,67
 223 1374 223 1374 279 1415.5 c 128,-1,68
 335 1457 335 1457 416.5 1473.5 c 128,-1,69
 498 1490 498 1490 602 1490 c 0,70,71
 697 1490 697 1490 763 1472 c 128,-1,72
 829 1454 829 1454 873 1425 c 128,-1,73
 917 1396 917 1396 941.5 1359 c 128,-1,74
 966 1322 966 1322 978 1285 c 128,-1,75
 990 1248 990 1248 993 1214 c 128,-1,76
 996 1180 996 1180 996 1156 c 0,77,78
 996 1121 996 1121 983.5 1095.5 c 128,-1,79
 971 1070 971 1070 950.5 1053.5 c 128,-1,80
 930 1037 930 1037 904 1029.5 c 128,-1,81
 878 1022 878 1022 852 1022 c 0,82,83
 827 1022 827 1022 803 1031.5 c 128,-1,84
 779 1041 779 1041 759.5 1056 c 128,-1,85
 740 1071 740 1071 728 1091 c 128,-1,86
 716 1111 716 1111 716 1132 c 0,87,88
 716 1214 716 1214 687.5 1247 c 128,-1,89
 659 1280 659 1280 602 1280 c 0,90,91
 574 1280 574 1280 548.5 1277.5 c 128,-1,92
 523 1275 523 1275 503.5 1261.5 c 128,-1,93
 484 1248 484 1248 472 1218.5 c 128,-1,94
 460 1189 460 1189 460 1136 c 0,95,96
 460 1106 460 1106 472.5 1081.5 c 128,-1,97
 485 1057 485 1057 503 1039 c 128,-1,98
 521 1021 521 1021 542 1011.5 c 128,-1,99
 563 1002 563 1002 580 1002 c 0,100,101
 603 1002 603 1002 643.5 999.5 c 128,-1,102
 684 997 684 997 731 986 c 128,-1,103
 778 975 778 975 826.5 952 c 128,-1,104
 875 929 875 929 914.5 887 c 128,-1,105
 954 845 954 845 979 781.5 c 128,-1,106
 1004 718 1004 718 1004 626 c 2,107,-1
 1004 618 l 2,0,1
696 696 m 1,108,109
 693 724 693 724 681 747 c 0,110,111
 670 766 670 766 647 782 c 128,-1,112
 624 798 624 798 580 798 c 0,113,114
 538 798 538 798 515.5 782 c 128,-1,115
 493 766 493 766 482 747 c 0,116,117
 470 724 470 724 468 696 c 1,118,-1
 468 574 l 1,119,120
 470 543 470 543 482 519 c 0,121,122
 493 498 493 498 515.5 481 c 128,-1,123
 538 464 538 464 580 464 c 0,124,125
 624 464 624 464 647 481 c 128,-1,126
 670 498 670 498 681 519 c 0,127,128
 693 543 693 543 696 574 c 1,129,-1
 696 696 l 1,108,109
EndSplineSet
EndChar

StartChar: dieresis
Encoding: 168 168 105
Width: 934
Flags: W
LayerCount: 2
Fore
SplineSet
400 1252 m 0,0,1
 400 1175 400 1175 360 1137.5 c 128,-1,2
 320 1100 320 1100 248 1100 c 256,3,4
 176 1100 176 1100 136 1137.5 c 128,-1,5
 96 1175 96 1175 96 1252 c 0,6,7
 96 1332 96 1332 136 1368 c 128,-1,8
 176 1404 176 1404 248 1404 c 0,9,10
 325 1404 325 1404 362.5 1368 c 128,-1,11
 400 1332 400 1332 400 1252 c 0,0,1
816 1252 m 0,12,13
 816 1175 816 1175 776 1137.5 c 128,-1,14
 736 1100 736 1100 664 1100 c 256,15,16
 592 1100 592 1100 552 1137.5 c 128,-1,17
 512 1175 512 1175 512 1252 c 0,18,19
 512 1332 512 1332 552 1368 c 128,-1,20
 592 1404 592 1404 664 1404 c 0,21,22
 741 1404 741 1404 778.5 1368 c 128,-1,23
 816 1332 816 1332 816 1252 c 0,12,13
EndSplineSet
EndChar

StartChar: copyright
Encoding: 169 169 106
Width: 1470
Flags: W
LayerCount: 2
Fore
SplineSet
510 872 m 2,0,1
 510 912 510 912 519.5 942.5 c 128,-1,2
 529 973 529 973 545 995.5 c 128,-1,3
 561 1018 561 1018 581.5 1033.5 c 128,-1,4
 602 1049 602 1049 623 1059 c 0,5,6
 672 1083 672 1083 736 1086 c 1,7,8
 789 1086 789 1086 827 1074 c 128,-1,9
 865 1062 865 1062 891 1042.5 c 128,-1,10
 917 1023 917 1023 932.5 998.5 c 128,-1,11
 948 974 948 974 956.5 949 c 128,-1,12
 965 924 965 924 967.5 900.5 c 128,-1,13
 970 877 970 877 970 860 c 0,14,15
 970 852 970 852 969 841.5 c 128,-1,16
 968 831 968 831 960.5 821.5 c 128,-1,17
 953 812 953 812 937.5 805 c 128,-1,18
 922 798 922 798 894 798 c 0,19,20
 884 798 884 798 870 799.5 c 128,-1,21
 856 801 856 801 842.5 806 c 128,-1,22
 829 811 829 811 819.5 820 c 128,-1,23
 810 829 810 829 810 844 c 0,24,25
 810 871 810 871 807 893 c 128,-1,26
 804 915 804 915 796 930 c 128,-1,27
 788 945 788 945 773.5 953.5 c 128,-1,28
 759 962 759 962 736 962 c 256,29,30
 713 962 713 962 700.5 952 c 128,-1,31
 688 942 688 942 683 930 c 0,32,33
 676 916 676 916 676 898 c 2,34,-1
 676 598 l 2,35,36
 676 577 676 577 683 560 c 0,37,38
 688 546 688 546 700.5 534 c 128,-1,39
 713 522 713 522 736 522 c 256,40,41
 759 522 759 522 773.5 531.5 c 128,-1,42
 788 541 788 541 796 557.5 c 128,-1,43
 804 574 804 574 807 594.5 c 128,-1,44
 810 615 810 615 810 638 c 0,45,46
 810 647 810 647 812.5 655 c 128,-1,47
 815 663 815 663 823.5 669 c 128,-1,48
 832 675 832 675 848.5 678.5 c 128,-1,49
 865 682 865 682 894 682 c 0,50,51
 922 682 922 682 937.5 675 c 128,-1,52
 953 668 953 668 960.5 659.5 c 128,-1,53
 968 651 968 651 969 644 c 128,-1,54
 970 637 970 637 970 636 c 0,55,56
 970 583 970 583 952 541.5 c 128,-1,57
 934 500 934 500 901.5 470.5 c 128,-1,58
 869 441 869 441 824 425.5 c 128,-1,59
 779 410 779 410 726 410 c 0,60,61
 717 410 717 410 697 411 c 128,-1,62
 677 412 677 412 653 418 c 128,-1,63
 629 424 629 424 603.5 436 c 128,-1,64
 578 448 578 448 557.5 470 c 128,-1,65
 537 492 537 492 523.5 525.5 c 128,-1,66
 510 559 510 559 510 608 c 2,67,-1
 510 872 l 2,0,1
1228 742 m 0,68,69
 1228 1006 1228 1006 1103 1127 c 128,-1,70
 978 1248 978 1248 728 1248 c 0,71,72
 610 1248 610 1248 517.5 1218.5 c 128,-1,73
 425 1189 425 1189 361 1127 c 128,-1,74
 297 1065 297 1065 263.5 969.5 c 128,-1,75
 230 874 230 874 230 742 c 0,76,77
 230 619 230 619 263.5 526 c 128,-1,78
 297 433 297 433 361 371 c 128,-1,79
 425 309 425 309 517.5 277.5 c 128,-1,80
 610 246 610 246 728 246 c 256,81,82
 846 246 846 246 938.5 277.5 c 128,-1,83
 1031 309 1031 309 1095.5 371 c 128,-1,84
 1160 433 1160 433 1194 526 c 128,-1,85
 1228 619 1228 619 1228 742 c 0,68,69
1316 744 m 0,86,87
 1316 595 1316 595 1277.5 484.5 c 128,-1,88
 1239 374 1239 374 1164 301 c 128,-1,89
 1089 228 1089 228 980 192 c 128,-1,90
 871 156 871 156 730 156 c 256,91,92
 589 156 589 156 478.5 192 c 128,-1,93
 368 228 368 228 292 301 c 128,-1,94
 216 374 216 374 176 484.5 c 128,-1,95
 136 595 136 595 136 744 c 0,96,97
 136 898 136 898 176 1010 c 128,-1,98
 216 1122 216 1122 292 1194.5 c 128,-1,99
 368 1267 368 1267 478.5 1301.5 c 128,-1,100
 589 1336 589 1336 730 1336 c 0,101,102
 878 1336 878 1336 988.5 1301.5 c 128,-1,103
 1099 1267 1099 1267 1171.5 1194.5 c 128,-1,104
 1244 1122 1244 1122 1280 1010 c 128,-1,105
 1316 898 1316 898 1316 744 c 0,86,87
EndSplineSet
EndChar

StartChar: guillemotleft
Encoding: 171 171 108
Width: 1526
Flags: W
LayerCount: 2
Fore
SplineSet
188 506 m 2,0,1
 178 516 178 516 167.5 527 c 128,-1,2
 157 538 157 538 148 551 c 128,-1,3
 139 564 139 564 133.5 578 c 128,-1,4
 128 592 128 592 128 608 c 0,5,6
 128 637 128 637 146 660.5 c 128,-1,7
 164 684 164 684 190 710 c 2,8,-1
 504 1022 l 2,9,10
 527 1045 527 1045 551.5 1063.5 c 128,-1,11
 576 1082 576 1082 606 1082 c 0,12,13
 626 1082 626 1082 647 1071 c 128,-1,14
 668 1060 668 1060 692 1036 c 0,15,16
 715 1013 715 1013 724.5 993.5 c 128,-1,17
 734 974 734 974 734 954 c 0,18,19
 734 924 734 924 716.5 898.5 c 128,-1,20
 699 873 699 873 676 850 c 2,21,-1
 430 606 l 1,22,-1
 674 366 l 2,23,24
 698 342 698 342 716 317.5 c 128,-1,25
 734 293 734 293 734 264 c 0,26,27
 734 244 734 244 724 223 c 128,-1,28
 714 202 714 202 688 176 c 0,29,30
 665 153 665 153 645.5 143.5 c 128,-1,31
 626 134 626 134 606 134 c 0,32,33
 577 134 577 134 551.5 152 c 128,-1,34
 526 170 526 170 502 194 c 2,35,-1
 188 506 l 2,0,1
750 508 m 2,36,37
 740 518 740 518 729.5 529 c 128,-1,38
 719 540 719 540 710 553 c 128,-1,39
 701 566 701 566 695.5 580 c 128,-1,40
 690 594 690 594 690 610 c 0,41,42
 690 639 690 639 708 662.5 c 128,-1,43
 726 686 726 686 752 712 c 2,44,-1
 1066 1024 l 2,45,46
 1089 1047 1089 1047 1113.5 1065.5 c 128,-1,47
 1138 1084 1138 1084 1168 1084 c 0,48,49
 1188 1084 1188 1084 1209 1073 c 128,-1,50
 1230 1062 1230 1062 1254 1038 c 0,51,52
 1277 1015 1277 1015 1286.5 995.5 c 128,-1,53
 1296 976 1296 976 1296 956 c 0,54,55
 1296 926 1296 926 1278.5 900.5 c 128,-1,56
 1261 875 1261 875 1238 852 c 2,57,-1
 992 608 l 1,58,-1
 1236 368 l 2,59,60
 1260 344 1260 344 1278 319.5 c 128,-1,61
 1296 295 1296 295 1296 266 c 0,62,63
 1296 246 1296 246 1286 225 c 128,-1,64
 1276 204 1276 204 1250 178 c 0,65,66
 1227 155 1227 155 1207.5 145.5 c 128,-1,67
 1188 136 1188 136 1168 136 c 0,68,69
 1139 136 1139 136 1113.5 154 c 128,-1,70
 1088 172 1088 172 1064 196 c 2,71,-1
 750 508 l 2,36,37
EndSplineSet
EndChar

StartChar: logicalnot
Encoding: 172 172 109
Width: 1492
Flags: W
LayerCount: 2
Fore
SplineSet
308 858 m 2,0,1
 279 858 279 858 253 861.5 c 128,-1,2
 227 865 227 865 207.5 877.5 c 128,-1,3
 188 890 188 890 176 913.5 c 128,-1,4
 164 937 164 937 164 978 c 0,5,6
 164 1022 164 1022 176 1047 c 128,-1,7
 188 1072 188 1072 208 1084 c 128,-1,8
 228 1096 228 1096 254 1099 c 128,-1,9
 280 1102 280 1102 308 1102 c 2,10,-1
 1118 1102 l 2,11,12
 1153 1102 1153 1102 1180.5 1096.5 c 128,-1,13
 1208 1091 1208 1091 1227 1075 c 128,-1,14
 1246 1059 1246 1059 1256 1030.5 c 128,-1,15
 1266 1002 1266 1002 1266 956 c 2,16,-1
 1266 604 l 2,17,18
 1266 576 1266 576 1262.5 550 c 128,-1,19
 1259 524 1259 524 1246.5 504 c 128,-1,20
 1234 484 1234 484 1210 472 c 128,-1,21
 1186 460 1186 460 1146 460 c 0,22,23
 1102 460 1102 460 1077 472 c 128,-1,24
 1052 484 1052 484 1040 504 c 128,-1,25
 1028 524 1028 524 1025 550 c 128,-1,26
 1022 576 1022 576 1022 604 c 2,27,-1
 1022 858 l 1,28,-1
 330 858 l 1,29,-1
 308 858 l 2,0,1
EndSplineSet
EndChar

StartChar: registered
Encoding: 174 174 110
Width: 1424
Flags: W
LayerCount: 2
Fore
SplineSet
492 974 m 2,0,1
 492 995 492 995 493 1014 c 128,-1,2
 494 1033 494 1033 501 1048 c 128,-1,3
 508 1063 508 1063 523 1071.5 c 128,-1,4
 538 1080 538 1080 566 1080 c 2,5,-1
 722 1080 l 1,6,7
 782 1076 782 1076 830 1055 c 0,8,9
 850 1046 850 1046 869.5 1031.5 c 128,-1,10
 889 1017 889 1017 904 996.5 c 128,-1,11
 919 976 919 976 928.5 948.5 c 128,-1,12
 938 921 938 921 938 884 c 0,13,14
 938 871 938 871 934 848.5 c 128,-1,15
 930 826 930 826 916.5 802 c 128,-1,16
 903 778 903 778 878.5 755.5 c 128,-1,17
 854 733 854 733 814 720 c 1,18,19
 831 715 831 715 848.5 705 c 128,-1,20
 866 695 866 695 880 678 c 128,-1,21
 894 661 894 661 903 637 c 128,-1,22
 912 613 912 613 912 582 c 2,23,-1
 912 516 l 2,24,25
 912 501 912 501 922 498 c 1,26,27
 934 486 934 486 936 477 c 128,-1,28
 938 468 938 468 938 462 c 0,29,30
 938 445 938 445 931 433 c 128,-1,31
 924 421 924 421 913 413.5 c 128,-1,32
 902 406 902 406 888 403 c 128,-1,33
 874 400 874 400 860 400 c 0,34,35
 844 400 844 400 827.5 405 c 128,-1,36
 811 410 811 410 797.5 420 c 128,-1,37
 784 430 784 430 775 445 c 128,-1,38
 766 460 766 460 766 480 c 2,39,-1
 766 582 l 2,40,41
 766 603 766 603 763.5 621 c 128,-1,42
 761 639 761 639 753 652 c 128,-1,43
 745 665 745 665 730.5 672.5 c 128,-1,44
 716 680 716 680 692 680 c 2,45,-1
 638 680 l 1,46,-1
 638 518 l 2,47,48
 638 496 638 496 637 476 c 128,-1,49
 636 456 636 456 629 440.5 c 128,-1,50
 622 425 622 425 607.5 415.5 c 128,-1,51
 593 406 593 406 566 406 c 0,52,53
 538 406 538 406 523 415.5 c 128,-1,54
 508 425 508 425 501 440.5 c 128,-1,55
 494 456 494 456 493 476 c 128,-1,56
 492 496 492 496 492 518 c 2,57,-1
 492 974 l 2,0,1
704 786 m 1,58,59
 728 787 728 787 747 798 c 0,60,61
 763 807 763 807 776.5 827 c 128,-1,62
 790 847 790 847 790 884 c 0,63,64
 790 916 790 916 777.5 933.5 c 128,-1,65
 765 951 765 951 750 959 c 0,66,67
 732 969 732 969 710 970 c 1,68,-1
 638 970 l 1,69,-1
 638 786 l 1,70,-1
 704 786 l 1,58,59
1208 742 m 0,71,72
 1208 1006 1208 1006 1083 1127 c 128,-1,73
 958 1248 958 1248 708 1248 c 0,74,75
 590 1248 590 1248 497.5 1218.5 c 128,-1,76
 405 1189 405 1189 341 1127 c 128,-1,77
 277 1065 277 1065 243.5 969.5 c 128,-1,78
 210 874 210 874 210 742 c 0,79,80
 210 619 210 619 243.5 526 c 128,-1,81
 277 433 277 433 341 371 c 128,-1,82
 405 309 405 309 497.5 277.5 c 128,-1,83
 590 246 590 246 708 246 c 256,84,85
 826 246 826 246 918.5 277.5 c 128,-1,86
 1011 309 1011 309 1075.5 371 c 128,-1,87
 1140 433 1140 433 1174 526 c 128,-1,88
 1208 619 1208 619 1208 742 c 0,71,72
1296 744 m 0,89,90
 1296 595 1296 595 1257.5 484.5 c 128,-1,91
 1219 374 1219 374 1144 301 c 128,-1,92
 1069 228 1069 228 960 192 c 128,-1,93
 851 156 851 156 710 156 c 256,94,95
 569 156 569 156 458.5 192 c 128,-1,96
 348 228 348 228 272 301 c 128,-1,97
 196 374 196 374 156 484.5 c 128,-1,98
 116 595 116 595 116 744 c 0,99,100
 116 898 116 898 156 1010 c 128,-1,101
 196 1122 196 1122 272 1194.5 c 128,-1,102
 348 1267 348 1267 458.5 1301.5 c 128,-1,103
 569 1336 569 1336 710 1336 c 0,104,105
 858 1336 858 1336 968.5 1301.5 c 128,-1,106
 1079 1267 1079 1267 1151.5 1194.5 c 128,-1,107
 1224 1122 1224 1122 1260 1010 c 128,-1,108
 1296 898 1296 898 1296 744 c 0,89,90
EndSplineSet
EndChar

StartChar: macron
Encoding: 175 175 111
Width: 996
Flags: W
LayerCount: 2
Fore
SplineSet
700 1400 m 2,0,1
 725 1400 725 1400 754 1397.5 c 128,-1,2
 783 1395 783 1395 807.5 1384.5 c 128,-1,3
 832 1374 832 1374 848 1351 c 128,-1,4
 864 1328 864 1328 864 1288 c 0,5,6
 864 1247 864 1247 848 1224.5 c 128,-1,7
 832 1202 832 1202 807.5 1191.5 c 128,-1,8
 783 1181 783 1181 754 1178.5 c 128,-1,9
 725 1176 725 1176 700 1176 c 2,10,-1
 298 1176 l 2,11,12
 270 1176 270 1176 241 1178.5 c 128,-1,13
 212 1181 212 1181 188 1191.5 c 128,-1,14
 164 1202 164 1202 149 1224.5 c 128,-1,15
 134 1247 134 1247 134 1288 c 0,16,17
 134 1328 134 1328 149 1351 c 128,-1,18
 164 1374 164 1374 188 1384.5 c 128,-1,19
 212 1395 212 1395 241 1397.5 c 128,-1,20
 270 1400 270 1400 298 1400 c 2,21,-1
 700 1400 l 2,0,1
EndSplineSet
EndChar

StartChar: degree
Encoding: 176 176 112
Width: 832
Flags: W
LayerCount: 2
Fore
SplineSet
524 1104 m 0,0,1
 524 1216 524 1216 414 1216 c 0,2,3
 360 1216 360 1216 330 1188.5 c 128,-1,4
 300 1161 300 1161 300 1104 c 256,5,6
 300 1047 300 1047 330 1018.5 c 128,-1,7
 360 990 360 990 414 990 c 0,8,9
 467 990 467 990 495.5 1018.5 c 128,-1,10
 524 1047 524 1047 524 1104 c 0,0,1
694 1104 m 256,11,12
 694 958 694 958 621 889 c 128,-1,13
 548 820 548 820 414 820 c 0,14,15
 277 820 277 820 202.5 889 c 128,-1,16
 128 958 128 958 128 1104 c 0,17,18
 128 1249 128 1249 202.5 1316.5 c 128,-1,19
 277 1384 277 1384 414 1384 c 0,20,21
 557 1384 557 1384 625.5 1317 c 128,-1,22
 694 1250 694 1250 694 1104 c 256,11,12
EndSplineSet
EndChar

StartChar: plusminus
Encoding: 177 177 113
Width: 1058
Flags: W
LayerCount: 2
Fore
SplineSet
308 212 m 2,0,1
 280 212 280 212 254 215.5 c 128,-1,2
 228 219 228 219 208 231.5 c 128,-1,3
 188 244 188 244 176 267.5 c 128,-1,4
 164 291 164 291 164 332 c 0,5,6
 164 376 164 376 176 401 c 128,-1,7
 188 426 188 426 208 438 c 128,-1,8
 228 450 228 450 254 453 c 128,-1,9
 280 456 280 456 308 456 c 2,10,-1
 750 456 l 2,11,12
 775 456 775 456 801 453 c 128,-1,13
 827 450 827 450 847.5 438 c 128,-1,14
 868 426 868 426 881 401 c 128,-1,15
 894 376 894 376 894 332 c 0,16,17
 894 291 894 291 881 267.5 c 128,-1,18
 868 244 868 244 847.5 231.5 c 128,-1,19
 827 219 827 219 801 215.5 c 128,-1,20
 775 212 775 212 750 212 c 2,21,-1
 364 212 l 1,22,-1
 308 212 l 2,0,1
312 798 m 2,23,24
 284 798 284 798 258 801.5 c 128,-1,25
 232 805 232 805 212 817.5 c 128,-1,26
 192 830 192 830 180 853.5 c 128,-1,27
 168 877 168 877 168 918 c 0,28,29
 168 962 168 962 180 987 c 128,-1,30
 192 1012 192 1012 212 1024 c 128,-1,31
 232 1036 232 1036 258 1039 c 128,-1,32
 284 1042 284 1042 312 1042 c 2,33,-1
 410 1042 l 1,34,-1
 410 1140 l 2,35,36
 410 1165 410 1165 413 1191 c 128,-1,37
 416 1217 416 1217 428 1237.5 c 128,-1,38
 440 1258 440 1258 465 1271 c 128,-1,39
 490 1284 490 1284 534 1284 c 0,40,41
 574 1284 574 1284 598 1271 c 128,-1,42
 622 1258 622 1258 634.5 1237.5 c 128,-1,43
 647 1217 647 1217 650.5 1191 c 128,-1,44
 654 1165 654 1165 654 1140 c 2,45,-1
 654 1042 l 1,46,-1
 754 1042 l 2,47,48
 779 1042 779 1042 805 1039 c 128,-1,49
 831 1036 831 1036 851.5 1024 c 128,-1,50
 872 1012 872 1012 885 987 c 128,-1,51
 898 962 898 962 898 918 c 0,52,53
 898 877 898 877 885 853.5 c 128,-1,54
 872 830 872 830 851.5 817.5 c 128,-1,55
 831 805 831 805 805 801.5 c 128,-1,56
 779 798 779 798 754 798 c 2,57,-1
 654 798 l 1,58,-1
 654 698 l 2,59,60
 654 670 654 670 650.5 644 c 128,-1,61
 647 618 647 618 634.5 598 c 128,-1,62
 622 578 622 578 598 566 c 128,-1,63
 574 554 574 554 534 554 c 0,64,65
 490 554 490 554 465 566 c 128,-1,66
 440 578 440 578 428 598 c 128,-1,67
 416 618 416 618 413 644 c 128,-1,68
 410 670 410 670 410 698 c 2,69,-1
 410 798 l 1,70,-1
 312 798 l 2,23,24
EndSplineSet
EndChar

StartChar: twosuperior
Encoding: 178 178 114
Width: 640
Flags: W
LayerCount: 2
Fore
SplineSet
312 1398 m 0,0,1
 403 1398 403 1398 447.5 1354 c 128,-1,2
 492 1310 492 1310 492 1236 c 0,3,4
 492 1189 492 1189 468.5 1156 c 128,-1,5
 445 1123 445 1123 417 1103 c 0,6,7
 384 1078 384 1078 342 1064 c 0,8,9
 328 1059 328 1059 314.5 1052 c 128,-1,10
 301 1045 301 1045 290.5 1035.5 c 128,-1,11
 280 1026 280 1026 273 1013 c 128,-1,12
 266 1000 266 1000 266 984 c 2,13,-1
 266 966 l 1,14,-1
 404 966 l 2,15,16
 417 966 417 966 433 965 c 128,-1,17
 449 964 449 964 463.5 958.5 c 128,-1,18
 478 953 478 953 488 941.5 c 128,-1,19
 498 930 498 930 498 910 c 0,20,21
 498 887 498 887 490 875 c 128,-1,22
 482 863 482 863 468.5 857.5 c 128,-1,23
 455 852 455 852 438 851 c 128,-1,24
 421 850 421 850 404 850 c 2,25,-1
 208 850 l 2,26,27
 189 850 189 850 176.5 856.5 c 128,-1,28
 164 863 164 863 156.5 873.5 c 128,-1,29
 149 884 149 884 145.5 896.5 c 128,-1,30
 142 909 142 909 142 922 c 2,31,-1
 142 984 l 2,32,33
 142 1044 142 1044 179.5 1087 c 128,-1,34
 217 1130 217 1130 280 1154 c 0,35,36
 311 1166 311 1166 329.5 1177.5 c 128,-1,37
 348 1189 348 1189 358 1199.5 c 128,-1,38
 368 1210 368 1210 371 1220.5 c 128,-1,39
 374 1231 374 1231 374 1242 c 0,40,41
 374 1262 374 1262 367.5 1273.5 c 128,-1,42
 361 1285 361 1285 351.5 1291 c 128,-1,43
 342 1297 342 1297 331 1298.5 c 128,-1,44
 320 1300 320 1300 312 1300 c 0,45,46
 292 1300 292 1300 280 1294.5 c 128,-1,47
 268 1289 268 1289 262 1280 c 128,-1,48
 256 1271 256 1271 254 1261 c 128,-1,49
 252 1251 252 1251 252 1242 c 0,50,51
 252 1226 252 1226 246.5 1215.5 c 128,-1,52
 241 1205 241 1205 232.5 1198.5 c 128,-1,53
 224 1192 224 1192 214 1189 c 128,-1,54
 204 1186 204 1186 196 1186 c 0,55,56
 167 1186 167 1186 151.5 1200.5 c 128,-1,57
 136 1215 136 1215 136 1236 c 0,58,59
 136 1252 136 1252 142 1279 c 128,-1,60
 148 1306 148 1306 166.5 1332.5 c 128,-1,61
 185 1359 185 1359 219.5 1378.5 c 128,-1,62
 254 1398 254 1398 312 1398 c 0,0,1
EndSplineSet
EndChar

StartChar: threesuperior
Encoding: 179 179 115
Width: 666
Flags: W
LayerCount: 2
Fore
SplineSet
330 1278 m 1,0,-1
 234 1278 l 2,1,2
 220 1278 220 1278 205.5 1279.5 c 128,-1,3
 191 1281 191 1281 179 1286 c 128,-1,4
 167 1291 167 1291 159.5 1301 c 128,-1,5
 152 1311 152 1311 152 1328 c 0,6,7
 152 1350 152 1350 160 1362.5 c 128,-1,8
 168 1375 168 1375 181 1381 c 128,-1,9
 194 1387 194 1387 209.5 1388.5 c 128,-1,10
 225 1390 225 1390 240 1390 c 2,11,-1
 408 1390 l 2,12,13
 440 1390 440 1390 456 1371 c 128,-1,14
 472 1352 472 1352 472 1328 c 0,15,16
 472 1325 472 1325 471.5 1317.5 c 128,-1,17
 471 1310 471 1310 468 1304 c 2,18,-1
 388 1178 l 1,19,20
 426 1173 426 1173 447 1155 c 128,-1,21
 468 1137 468 1137 477.5 1112.5 c 128,-1,22
 487 1088 487 1088 488.5 1060.5 c 128,-1,23
 490 1033 490 1033 490 1010 c 2,24,-1
 490 1000 l 2,25,26
 490 966 490 966 479 937.5 c 128,-1,27
 468 909 468 909 446 888 c 128,-1,28
 424 867 424 867 390.5 855.5 c 128,-1,29
 357 844 357 844 312 844 c 0,30,31
 253 844 253 844 217.5 863.5 c 128,-1,32
 182 883 182 883 163.5 908.5 c 128,-1,33
 145 934 145 934 139.5 960 c 128,-1,34
 134 986 134 986 134 1000 c 0,35,36
 134 1027 134 1027 151 1042.5 c 128,-1,37
 168 1058 168 1058 194 1058 c 0,38,39
 202 1058 202 1058 212 1055 c 128,-1,40
 222 1052 222 1052 231 1045 c 128,-1,41
 240 1038 240 1038 246 1027 c 128,-1,42
 252 1016 252 1016 252 1000 c 0,43,44
 252 990 252 990 254 979.5 c 128,-1,45
 256 969 256 969 262.5 960 c 128,-1,46
 269 951 269 951 280.5 945.5 c 128,-1,47
 292 940 292 940 312 940 c 0,48,49
 320 940 320 940 331 942 c 128,-1,50
 342 944 342 944 352 952 c 128,-1,51
 362 960 362 960 369 975.5 c 128,-1,52
 376 991 376 991 376 1018 c 0,53,54
 376 1040 376 1040 374.5 1055 c 128,-1,55
 373 1070 373 1070 367.5 1079 c 128,-1,56
 362 1088 362 1088 351.5 1092 c 128,-1,57
 341 1096 341 1096 322 1096 c 0,58,59
 298 1096 298 1096 284 1111 c 128,-1,60
 270 1126 270 1126 270 1146 c 0,61,62
 270 1157 270 1157 274 1166 c 128,-1,63
 278 1175 278 1175 284 1190 c 1,64,-1
 330 1278 l 1,0,-1
EndSplineSet
EndChar

StartChar: acute
Encoding: 180 180 116
Width: 718
Flags: W
LayerCount: 2
Fore
SplineSet
400 1434 m 1,0,1
 427 1452 427 1452 456 1452 c 0,2,3
 482 1452 482 1452 509 1443.5 c 128,-1,4
 536 1435 536 1435 556 1406 c 0,5,6
 568 1388 568 1388 573 1370 c 128,-1,7
 578 1352 578 1352 578 1338 c 0,8,9
 578 1311 578 1311 563 1288.5 c 128,-1,10
 548 1266 548 1266 528 1252 c 1,11,-1
 308 1118 l 2,12,13
 294 1109 294 1109 278.5 1105.5 c 128,-1,14
 263 1102 263 1102 248 1102 c 0,15,16
 221 1102 221 1102 197.5 1110.5 c 128,-1,17
 174 1119 174 1119 154 1148 c 0,18,19
 142 1165 142 1165 137 1181.5 c 128,-1,20
 132 1198 132 1198 132 1212 c 0,21,22
 132 1242 132 1242 147 1265.5 c 128,-1,23
 162 1289 162 1289 176 1298 c 2,24,-1
 400 1434 l 1,0,1
EndSplineSet
EndChar

StartChar: uni00B5
Encoding: 181 181 117
Width: 1316
Flags: W
LayerCount: 2
Fore
SplineSet
180 778 m 2,0,1
 180 821 180 821 187.5 861 c 128,-1,2
 195 901 195 901 213 932 c 128,-1,3
 231 963 231 963 262.5 981.5 c 128,-1,4
 294 1000 294 1000 342 1000 c 0,5,6
 427 1000 427 1000 465.5 942.5 c 128,-1,7
 504 885 504 885 504 786 c 0,8,9
 504 667 504 667 511.5 580.5 c 128,-1,10
 519 494 519 494 537 437.5 c 128,-1,11
 555 381 555 381 585 353.5 c 128,-1,12
 615 326 615 326 660 326 c 0,13,14
 703 326 703 326 734.5 350 c 128,-1,15
 766 374 766 374 787 425.5 c 128,-1,16
 808 477 808 477 818 558 c 128,-1,17
 828 639 828 639 828 752 c 0,18,19
 828 882 828 882 865.5 941 c 128,-1,20
 903 1000 903 1000 990 1000 c 0,21,22
 1041 1000 1041 1000 1071.5 980.5 c 128,-1,23
 1102 961 1102 961 1118 929 c 128,-1,24
 1134 897 1134 897 1139 856 c 128,-1,25
 1144 815 1144 815 1144 772 c 2,26,-1
 1144 226 l 2,27,28
 1144 183 1144 183 1141 142.5 c 128,-1,29
 1138 102 1138 102 1123 70.5 c 128,-1,30
 1108 39 1108 39 1077.5 19.5 c 128,-1,31
 1047 0 1047 0 992 0 c 256,32,33
 937 0 937 0 906 21.5 c 128,-1,34
 875 43 875 43 859.5 73 c 128,-1,35
 844 103 844 103 840 135 c 128,-1,36
 836 167 836 167 836 188 c 1,37,38
 829 163 829 163 814.5 138 c 128,-1,39
 800 113 800 113 777.5 92.5 c 128,-1,40
 755 72 755 72 725.5 59 c 128,-1,41
 696 46 696 46 660 46 c 0,42,43
 619 46 619 46 585.5 56 c 128,-1,44
 552 66 552 66 527.5 82.5 c 128,-1,45
 503 99 503 99 487 121 c 128,-1,46
 471 143 471 143 464 168 c 1,47,-1
 464 -56 l 2,48,49
 464 -98 464 -98 461.5 -138.5 c 128,-1,50
 459 -179 459 -179 445.5 -210.5 c 128,-1,51
 432 -242 432 -242 404 -261 c 128,-1,52
 376 -280 376 -280 324 -280 c 0,53,54
 273 -280 273 -280 244 -261 c 128,-1,55
 215 -242 215 -242 201 -210.5 c 128,-1,56
 187 -179 187 -179 183.5 -138.5 c 128,-1,57
 180 -98 180 -98 180 -56 c 2,58,-1
 180 778 l 2,0,1
EndSplineSet
EndChar

